<?xml version="1.0" encoding="UTF-8"?>
<svg id="Layer_2" data-name="Layer 2" xmlns="http://www.w3.org/2000/svg" viewBox="0 0 56.69 56.69">
  <defs>
    <style>
      .cls-1 {
        fill: none;
      }
    </style>
  </defs>
  <g id="Layer_1-2" data-name="Layer 1">
    <g>
      <g>
        <g>
          <path d="M3.9,42.38c-.03,.07-.07,.2-.13,.4s-.12,.39-.18,.57c-.06,.18-.13,.32-.21,.43s-.2,.22-.36,.36c-.16,.14-.3,.25-.42,.34-.12,.09-.2,.16-.23,.22-.02,.03-.03,.05-.02,.06,0,0,.03,.01,.06,.02,.03,0,.1-.02,.22-.04,.12-.02,.26-.07,.44-.13,.18-.06,.3-.13,.36-.2,.07-.07,.13-.17,.18-.31s.12-.33,.18-.58c.07-.25,.14-.64,.23-1.15,.01-.05,0-.08-.03-.08-.03,0-.05,.03-.08,.1Z"/>
          <path d="M7.28,40.21c-.07-.02-.17,.05-.28,.2-.13,.16-.24,.32-.33,.48,0,.04,.02,.07,.06,.09,.05,.04,.07,.06,.08,.06-.25,.17-.44,.3-.57,.4s-.24,.19-.34,.29c0,0,0,0,0,0,0,0,0,0,0,0-.03,.02-.06,.06-.11,.11s-.08,.09-.09,.1c-.06,.09-.11,.16-.15,.22-.04,.07-.06,.11-.07,.13-.02,.08,0,.12,.08,.13,.35,.02,.62,.03,.81,0-.31,.32-.53,.5-.68,.6,0-.05,0-.11,0-.16-.02-.15-.06-.27-.14-.37-.08-.1-.18-.15-.3-.15-.07,0-.15,.05-.23,.14-.08,.09-.16,.21-.22,.36-.07,.14-.11,.25-.13,.31-.02,.07-.04,.12-.04,.17,0,.1,.03,.18,.1,.25,.07,.07,.17,.11,.28,.11,.02,0,.05,0,.08,0s.06,0,.1-.01c.03,0,.07-.01,.1-.02,.03,0,.06-.02,.08-.03-.04,.12-.1,.23-.2,.34-.09,.11-.19,.21-.31,.3s-.26,.19-.44,.3c-.18,.11-.26,.18-.24,.2,0,0,.01,0,.04,0,.06,0,.14-.01,.26-.04s.23-.06,.33-.1c.1-.04,.18-.08,.24-.12,.06-.04,.12-.13,.2-.25,.08-.12,.18-.33,.29-.61,.03-.06,.05-.13,.07-.21,.15-.12,.29-.24,.41-.34,.13-.11,.23-.2,.33-.29,.09-.08,.17-.16,.23-.22,.06-.07,.15-.13,.24-.2,.03-.02,.06-.07,.1-.16,.02-.05,.03-.09,.03-.13,0-.02,0-.04,0-.06s-.01-.02-.03-.02c-.05,.02-.11,.03-.18,.04-.06,.01-.17,.03-.33,.04s-.27,.01-.34,.01c-.07,0-.13,0-.17,0-.05,0-.07-.01-.07-.03,.01-.03,.02-.04,.04-.06s.03-.02,.05-.04c0,0,0,0,0,0,0,0,0,0,0,0,.12-.13,.3-.25,.54-.38s.54-.25,.92-.36c.07-.02,.14-.06,.22-.14,.07-.08,.14-.16,.2-.26,.07-.11,.12-.2,.12-.27s-.02-.12-.08-.15c-.14-.07-.32-.15-.53-.23Z"/>
          <path d="M11.2,43.52c0-.17-.05-.29-.14-.36-.03-.02-.1-.06-.22-.1-.12-.04-.2-.08-.25-.11-.04-.03-.06-.06-.06-.09,0,0,0,0,0,0,.02-.06,.08-.16,.21-.32,.12-.16,.29-.3,.49-.45,.17-.1,.3-.19,.4-.25,.23-.14,.4-.25,.49-.32s.18-.15,.25-.24c.07-.09,.12-.18,.14-.25,0-.04-.01-.05-.05-.04-.02,0-.08,.05-.18,.12s-.19,.14-.29,.18-.18,.06-.25,.06c-.12,0-.23-.02-.34-.07-.11-.05-.16-.12-.16-.21,0-.05,.04-.1,.12-.16,.08-.07,.16-.1,.24-.1,.05,0,.1,.02,.15,.04,.04,.03,.08,.05,.11,.05,.06,0,.11-.04,.13-.11,0-.05,.02-.08,.02-.11,0-.06-.03-.11-.08-.16-.06-.05-.13-.07-.2-.07-.12,0-.24,.06-.38,.19-.03,.03-.13,.14-.28,.32-.04,.05-.12,.15-.23,.31-.1,.16-.15,.26-.15,.31,0,.08,.04,.15,.11,.19s.15,.07,.24,.09c-.19,.2-.33,.39-.44,.54-.1,.16-.19,.3-.26,.43,0,0,0,0,0,0-.1,.21-.16,.4-.16,.55,0,.13,.03,.23,.08,.3,.06,.07,.13,.11,.22,.15,.04,.02,.09,.03,.15,.05s.12,.03,.18,.05,.1,.04,.14,.07c.04,.03,.06,.06,.06,.1,0,.09-.04,.19-.11,.32-.08,.13-.18,.25-.32,.36s-.3,.22-.48,.3c-.24,.11-.49,.16-.75,.16-.31,0-.55-.07-.72-.2-.17-.14-.26-.32-.28-.55-.02-.22,.03-.52,.16-.91,.06-.17,.13-.35,.21-.54,.09-.19,.17-.37,.26-.56,.02-.04,.03-.08,.03-.09,0-.02,0-.03,0-.04h0s-.04,0-.06,.04c0,0-.01,.02-.03,.05-.11,.19-.22,.39-.32,.6s-.2,.42-.28,.64-.15,.44-.2,.66c-.05,.22-.08,.45-.09,.67,0,.12,.02,.25,.05,.39s.09,.26,.18,.39c.19,.24,.48,.36,.85,.37,.33,0,.62-.09,.87-.26,.13-.08,.25-.17,.36-.28,.11-.11,.2-.23,.28-.34,.18-.25,.32-.54,.43-.88,.1-.34,.15-.64,.15-.9Z"/>
          <path d="M13.3,44.78c.16,0,.32-.07,.45-.2,.13-.13,.24-.32,.32-.57,.05-.14,.07-.23,.07-.28,0-.06-.03-.1-.09-.1-.04,0-.1,0-.18,0-.08,0-.14-.02-.18-.05-.04-.03-.02-.09,.05-.18,0,0,0,0,0,0,.04-.06,.08-.11,.14-.16,.06-.05,.12-.09,.19-.12,.07-.03,.15-.04,.23-.03,.08,0,.16,.05,.24,.11,.05,0,.1,0,.17-.04,.07-.03,.13-.08,.19-.14,.47-.54,.73-.83,.78-.86,.05-.03,.09-.06,.12-.08l.09-.06s.07-.11,.12-.22c.05-.11,.07-.19,.07-.24,0-.08-.04-.1-.11-.07-.05,.03-.09,.06-.14,.09-.05,.03-.12,.04-.2,.04-.09,0-.19-.02-.3-.06-.11-.04-.2-.06-.26-.08-.06-.02-.13-.03-.19-.04-.12,0-.23,.05-.32,.15-.06,.06-.12,.15-.18,.25-.07,.12-.11,.19-.11,.22-.01,.04,0,.07,.02,.07,.04,.02,.09-.01,.15-.1,.08-.11,.18-.16,.29-.16,.06,0,.17,.02,.33,.07s.28,.09,.36,.13c-.3,.33-.47,.52-.53,.56-.06,.04-.11,.06-.14,.05-.04,0-.07,0-.11-.02-.04-.01-.07-.02-.1-.03-.08-.02-.17,0-.25,.02-.09,.03-.18,.08-.26,.14-.09,.07-.18,.15-.27,.26-.09,.1-.17,.22-.25,.35,0,0,0,0,0,0-.06,.13-.13,.24-.18,.34-.1-.03-.15-.25-.16-.65,0-.07,0-.17,.01-.31,0-.03,0-.11,.02-.26,.01-.15,.04-.4,.08-.75,.04-.35,.09-.68,.13-1.01,0-.06-.03-.06-.05-.02-.04,.1-.08,.19-.12,.29-.04,.1-.07,.19-.11,.29-.03,.11-.06,.27-.09,.45s-.06,.36-.08,.53c-.02,.17-.06,.44-.11,.83-.05,.39-.07,.62-.07,.69,0,.32,.05,.56,.14,.71,.09,.16,.21,.24,.36,.24Z"/>
          <path d="M14.08,40.2s0,.02,.01,.03c.08,.05,.15,.1,.21,.16,.07,.06,.13,.11,.2,.17,0,0,.02,.01,.03,.02,0,0,.02,0,.04,0,.01,0,.03-.01,.05-.02s.04-.03,.07-.06c.04-.04,.08-.08,.11-.12,.03-.04,.07-.09,.1-.14,.04-.06,.07-.12,.09-.18,.02-.06,.02-.12,0-.17,0-.05-.03-.09-.05-.13-.03-.04-.05-.07-.09-.11-.03-.03-.07-.06-.11-.09-.04-.03-.08-.05-.12-.07-.02,0-.03-.01-.04-.02-.01,0-.03,0-.04,.02l-.45,.69s-.01,.03-.01,.03Z"/>
          <path d="M13.2,40.29s.08,.05,.12,.08c.01,0,.03,.02,.04,.03,.05,.03,.09,.07,.13,.1,.04,.04,.08,.07,.12,.1,.01,.01,.03,.02,.04,.02h.04s.03-.02,.06-.04h.01s.03-.04,.03-.04c0,0,.02-.01,.02-.02l.02-.02s.01,0,.02-.01c0,0,0-.01,.01-.01,0,0,0,0,0,0l.05-.06s.01-.01,.02-.03c0,0,0,0,.01-.02,0,0,0-.01,0-.02v-.02s.05-.05,.05-.05c0,0,0,0,0,0,0,0,0-.01,.01-.02s.01-.02,.01-.03v-.03s.02,0,.02,0c0,0,0,0,0,0,0,0,0-.02,.01-.02,0,0,0-.02,0-.02v-.04s.01,0,.01,0c0,0,0,0,0,0v-.04s0,0,.01-.01c0,0,0,0,0-.01v-.04s0,0,0-.01c0,0,0,0,0-.01,0,0,0,0,0-.02,0,0,0,0,0-.02,0,0,0,0,0-.01,0,0,0,0,0,0,0,0,0,0,0,0v-.03s-.02-.02-.02-.03c0-.02-.02-.04-.03-.06l-.03-.04-.04-.04s-.07-.06-.1-.09h-.01s-.02-.03-.04-.03l-.04-.02s-.02-.01-.02-.02c0,0,0,0-.01,0,0,0,0,0-.01,0,0,0,0,0-.01,0s0,0-.01,0h-.02s0-.01,0-.01h0s-.03,0-.04,.02c0,0,0,0,0,0l-.45,.68s-.01,.03-.01,.04c0,0,0,.02,.01,.03,0,0,0,0,0,0Z"/>
          <path d="M15.27,45.48s-.08-.06-.12-.08c-.02,0-.03-.02-.04-.02s-.03,0-.04,.03l-.47,.71s-.02,.03-.02,.04c0,0,0,.02,.02,.03,.08,.05,.16,.11,.23,.16s.14,.12,.21,.17c0,.01,.03,.01,.05,0s.04-.02,.07-.03c.02-.02,.05-.03,.07-.05s.04-.03,.05-.04c.03-.03,.07-.07,.1-.1,.03-.04,.06-.08,.09-.12,.05-.07,.08-.13,.09-.19,.02-.06,.02-.12,0-.18-.01-.05-.03-.09-.06-.13-.03-.04-.06-.08-.09-.11s-.07-.07-.11-.09Z"/>
          <path d="M16.65,44.27c.09-.17,.16-.35,.23-.54,.06-.2,.11-.45,.14-.75,.01-.1,.02-.21,.03-.34,0-.13,.02-.25,.03-.39,0-.13,.02-.26,.03-.39s.02-.24,.04-.34c0-.06,.02-.13,.04-.24s.03-.17,.04-.21c0-.04,0-.06-.02-.06-.02,0-.04,.03-.06,.09l-.3,.72c-.04,.1-.07,.22-.09,.36s-.03,.31-.04,.51c0,.2-.02,.35-.04,.46,0,.11-.02,.22-.04,.34-.01,.12-.03,.24-.05,.35-.02,.11-.04,.22-.06,.32-.02,.1-.05,.18-.07,.25-.02,.07-.03,.11-.01,.11,.05,0,.12-.09,.21-.26Z"/>
          <path d="M22.22,39.34s0-.07-.02-.08c-.01,0-.03,0-.04,.04l-.26,.74c-.02,.07-.04,.15-.06,.25-.02,.1-.04,.3-.04,.6,0,.3-.02,.61-.02,.92,0,.31-.02,.62-.03,.94,0,.12,0,.23-.01,.32-.03,.63-.14,1.08-.31,1.35-.15,.26-.36,.48-.62,.65-.35,.2-.72,.3-1.1,.3-.28,0-.53-.08-.74-.22-.21-.14-.34-.35-.38-.65,0-.1,0-.2,.02-.31,.02-.11,.04-.21,.08-.32s.07-.22,.12-.33c.04-.11,.09-.22,.13-.33,.04-.09,.06-.16,.06-.21,0-.05,0-.07-.01-.07l-.11,.22c-.37,.71-.55,1.37-.55,1.96,.01,.37,.13,.66,.35,.87,.22,.2,.49,.31,.81,.33,.67,0,1.24-.32,1.71-.96,.2-.29,.37-.6,.49-.92,.16-.41,.27-.87,.33-1.37,.02-.1,.03-.21,.04-.31,.01-.18,.03-.56,.06-1.16,0-.12,.01-.26,.02-.4s.01-.29,.02-.44,.01-.29,.02-.44c0-.14,.01-.28,.02-.4,0-.13,.01-.24,.02-.33,0-.1,.02-.17,.03-.22Z"/>
          <path d="M22.57,44.74c.12-.03,.23-.06,.33-.1,.1-.04,.18-.08,.24-.12,.06-.04,.12-.13,.2-.25,.08-.12,.18-.33,.29-.61,.03-.06,.05-.13,.07-.21,.15-.12,.29-.24,.41-.34,.13-.11,.23-.2,.33-.29,.09-.08,.17-.16,.23-.22,.06-.07,.15-.13,.24-.2,.03-.02,.06-.07,.1-.16,.02-.05,.03-.09,.03-.13,0-.02,0-.04,0-.06s-.01-.02-.03-.02c-.05,.02-.11,.03-.18,.04-.06,.01-.17,.03-.33,.04s-.27,.01-.34,.01c-.07,0-.13,0-.17,0-.05,0-.07-.01-.07-.03,.01-.03,.02-.04,.04-.06s.03-.02,.05-.04c0,0,0,0,0,0,0,0,0,0,0,0,.13-.14,.34-.29,.64-.45,.3-.15,.59-.3,.88-.44,.11-.06,.19-.1,.25-.14,.06-.04,.12-.09,.18-.16,.08-.09,.16-.19,.22-.28s.12-.19,.17-.28c0-.02,0-.04,0-.04s-.03,0-.05,.02c-.18,.13-.39,.25-.61,.35-.22,.1-.45,.23-.69,.37-.24,.15-.44,.29-.61,.44-.18,.15-.3,.26-.37,.34,0,0,0,0,0,0,0,0,0,0,0,0-.03,.02-.06,.06-.11,.11s-.08,.09-.09,.1c-.06,.09-.11,.16-.15,.22-.04,.07-.06,.11-.07,.13-.02,.08,0,.12,.08,.13,.35,.02,.62,.03,.81,0-.31,.32-.53,.5-.68,.6,0-.05,0-.11,0-.16-.02-.15-.06-.27-.14-.37-.08-.1-.18-.15-.3-.15-.07,0-.15,.05-.23,.14-.08,.09-.16,.21-.22,.36-.07,.14-.11,.25-.13,.31-.02,.07-.04,.12-.04,.17,0,.1,.03,.18,.1,.25,.07,.07,.17,.11,.28,.11,.02,0,.05,0,.08,0s.06,0,.1-.01c.03,0,.07-.01,.1-.02,.03,0,.06-.02,.08-.03-.04,.12-.1,.23-.2,.34-.09,.11-.19,.21-.31,.3s-.26,.19-.44,.3c-.18,.11-.26,.18-.24,.2,0,0,.01,0,.04,0,.06,0,.14-.01,.26-.04Z"/>
          <path d="M25.51,38.12s0,.02,.01,.03c.08,.05,.15,.1,.21,.16,.07,.06,.13,.11,.2,.17,0,0,.02,.01,.03,.01,0,0,.02,0,.04,0,.01,0,.03-.01,.05-.02s.04-.03,.07-.06c.04-.04,.08-.08,.11-.12,.03-.04,.07-.09,.1-.14,.04-.06,.07-.12,.09-.18,.02-.06,.02-.11,0-.17,0-.05-.03-.09-.05-.13-.03-.04-.05-.07-.09-.11-.03-.03-.07-.06-.11-.09-.04-.03-.08-.05-.12-.07-.02-.01-.03-.02-.04-.02-.01,0-.03,0-.04,.02l-.45,.69s-.01,.03-.01,.03Z"/>
          <path d="M24.63,38.2s.08,.05,.12,.09c.01,0,.03,.02,.04,.03,.05,.03,.09,.07,.13,.1,.04,.04,.08,.07,.12,.1,.01,.01,.03,.02,.04,.02h.04s.03-.02,.06-.04h.01s.03-.04,.03-.04c0,0,.02-.01,.02-.02l.02-.02s.01,0,.02-.02c0,0,0-.01,.01-.02,0,0,0,0,0,0l.05-.06s.01-.02,.02-.03c0,0,0,0,.01-.01,0,0,0-.01,0-.01v-.02s.05-.05,.05-.05c0,0,0,0,0,0,0,0,0-.02,.01-.02s.01-.02,.01-.02v-.03s.02,0,.02,0c0,0,0,0,0,0,0,0,0-.02,.01-.02,0,0,0-.02,0-.02v-.04s.01,0,.01,0c0,0,0,0,0,0v-.04s0,0,.01-.01c0,0,0,0,0-.01v-.04s0,0,0-.01c0,0,0,0,0-.01,0,0,0,0,0-.01,0,0,0,0,0-.02,0,0,0,0,0-.01,0,0,0,0,0,0,0,0,0,0,0,0v-.03s-.02-.02-.02-.03c0-.02-.02-.04-.03-.06l-.03-.04-.04-.04s-.07-.06-.1-.08h-.01s-.02-.03-.04-.03-.02-.01-.04-.02c0,0-.02-.01-.02-.01,0,0,0,0-.01,0,0,0,0,0-.01,0,0,0,0,0-.01,0s0,0-.01,0h-.02s0-.01,0-.01h0s-.03,0-.04,.02c0,0,0,0,0,0l-.45,.68s-.01,.03-.01,.04c0,0,0,.02,.01,.03,0,0,0,0,0,0Z"/>
          <path d="M27.53,44.74c.12-.03,.23-.06,.33-.1,.1-.04,.18-.08,.24-.12,.06-.04,.12-.13,.2-.25,.08-.12,.18-.33,.29-.61,.03-.06,.05-.13,.07-.21s.04-.14,.05-.19c.01-.05,.02-.11,.03-.18,0-.07,0-.14,0-.22-.02-.15-.06-.27-.14-.37-.08-.1-.18-.15-.3-.15-.07,0-.15,.05-.23,.14-.08,.09-.16,.21-.22,.36-.07,.14-.11,.25-.13,.31-.02,.07-.04,.12-.04,.17,0,.1,.03,.18,.1,.25,.07,.07,.17,.11,.28,.11,.02,0,.05,0,.08,0s.06,0,.1-.01c.03,0,.07-.01,.1-.02,.03,0,.06-.02,.08-.03-.04,.12-.1,.23-.2,.34-.09,.11-.19,.21-.31,.3s-.26,.19-.44,.3c-.18,.11-.26,.18-.24,.2,0,0,.01,0,.04,0,.06,0,.14-.01,.26-.04Z"/>
          <path d="M29.72,45.83c.19,.24,.48,.36,.85,.37,.33,0,.62-.09,.87-.26,.13-.08,.25-.17,.36-.28s.2-.23,.28-.34c.18-.25,.32-.54,.43-.88,.1-.34,.15-.64,.15-.9,0-.17-.05-.29-.14-.36-.03-.02-.1-.06-.22-.1-.12-.04-.2-.08-.25-.12-.05-.04-.07-.1-.06-.16,0-.04,.04-.12,.12-.23s.2-.23,.36-.36c.16-.13,.3-.21,.44-.26s.25-.07,.32-.07c.03,0,.05,0,.06,.02,.01,0,.02,.01,.03,0,0,0,.02-.01,.04-.04,.02-.03,.04-.06,.06-.1s.04-.09,.07-.14,.05-.11,.07-.16,.04-.11,.06-.16,.03-.09,.04-.13c0-.03-.02-.05-.04-.06-.02,0-.06,0-.11,.01-.04,.01-.08,.03-.12,.06-.11,.06-.22,.12-.33,.2-.11,.08-.23,.17-.35,.28s-.27,.26-.44,.45c-.2,.25-.35,.49-.46,.73s-.16,.43-.16,.6c0,.13,.03,.23,.08,.29,.06,.07,.13,.11,.22,.15,.04,.02,.09,.03,.15,.05,.06,.02,.12,.03,.18,.05,.06,.02,.1,.04,.14,.07,.04,.03,.06,.06,.06,.1,0,.09-.04,.19-.11,.32-.08,.13-.18,.25-.32,.36s-.3,.22-.48,.3c-.24,.11-.49,.16-.75,.16-.31,0-.55-.07-.72-.2-.17-.14-.26-.32-.28-.55-.02-.22,.03-.52,.16-.91,.06-.17,.13-.35,.21-.54,.09-.19,.17-.37,.26-.56,.02-.05,.03-.08,.03-.09,0-.02,0-.03,0-.04h0s-.04,.01-.06,.04c0,0-.01,.02-.03,.05-.11,.19-.22,.39-.32,.6-.1,.21-.2,.42-.28,.64-.08,.22-.15,.44-.2,.66s-.08,.45-.09,.67c0,.12,.02,.25,.05,.39s.09,.26,.18,.39Z"/>
          <path d="M34.12,44.73c.12-.02,.26-.07,.44-.13,.18-.06,.3-.13,.36-.2,.07-.07,.13-.17,.18-.31s.12-.33,.18-.58c.07-.25,.14-.64,.23-1.15,.01-.05,0-.08-.03-.08-.03,0-.05,.03-.08,.1-.03,.07-.07,.2-.13,.4s-.12,.39-.18,.57c-.06,.18-.13,.32-.21,.43s-.2,.22-.36,.36c-.16,.14-.3,.25-.42,.34-.12,.09-.2,.16-.23,.22-.02,.03-.03,.05-.02,.06,0,0,.03,.01,.06,.02,.03,0,.1-.02,.22-.04Z"/>
          <path d="M35,41.3c.07,.06,.14,.12,.21,.17,0,.01,.03,.01,.05,0s.04-.02,.07-.03c.02-.02,.05-.03,.07-.05s.04-.03,.05-.04c.03-.03,.07-.07,.09-.1,.03-.04,.06-.08,.09-.12,.05-.07,.08-.13,.09-.19,.02-.06,.02-.12,0-.18-.01-.05-.03-.09-.06-.13-.03-.04-.06-.08-.09-.11s-.07-.07-.11-.1c-.04-.03-.08-.06-.12-.08-.02,0-.03-.02-.04-.02s-.03,0-.04,.03l-.47,.71s-.02,.03-.02,.04c0,0,0,.02,.02,.03,.08,.05,.16,.11,.23,.16Z"/>
          <path d="M36.47,44.78c.22,0,.41-.13,.58-.38,.15-.22,.26-.35,.33-.39,.05-.03,.11-.05,.19-.06,.03,0,.07,0,.1-.01,.04,0,.07,0,.1-.02,.07-.03,.14-.08,.21-.14s.14-.12,.2-.18c.1-.03,.18-.06,.25-.12s.13-.14,.19-.25c.06-.12,.11-.27,.16-.46,.01-.09,.01-.13,0-.13-.03-.01-.06,.02-.08,.11-.04,.09-.07,.15-.1,.2s-.06,.08-.08,.09c-.03,.02-.05,.03-.08,.02-.03,0-.06,0-.09-.02-.02,0-.03,0-.04,0,0,0,0,.01-.01,.02-.06,.11-.13,.19-.21,.26-.08,.07-.16,.1-.26,.11-.03,0-.07,0-.11,0-.04,0-.08,0-.11,0-.06,.02-.14,.09-.25,.21-.11,.13-.27,.19-.49,.2-.15,0-.27-.03-.37-.1-.09-.07-.15-.16-.19-.27-.04-.11-.06-.21-.07-.3v-.04c0-.07,0-.18,.01-.34,0-.03,0-.11,.02-.26,.01-.15,.04-.4,.08-.75,.04-.35,.09-.68,.13-1.01,0-.06-.03-.06-.05-.02-.04,.1-.08,.19-.12,.29-.04,.1-.07,.19-.11,.29-.03,.11-.06,.27-.09,.45s-.06,.36-.08,.53c-.02,.17-.06,.44-.11,.83-.05,.39-.07,.62-.07,.69,0,.24,.03,.45,.11,.63,.11,.21,.28,.32,.52,.32Z"/>
          <path d="M41.24,41.17c.07,.06,.14,.12,.21,.17,0,.01,.03,.02,.05,0s.04-.02,.07-.03,.05-.03,.07-.05c.02-.02,.04-.03,.05-.04,.03-.03,.07-.07,.1-.1,.03-.04,.06-.08,.09-.12,.05-.07,.08-.13,.09-.19,.02-.06,.02-.12,0-.18-.01-.05-.03-.09-.06-.13-.03-.04-.06-.08-.09-.11s-.07-.07-.11-.09-.08-.06-.12-.08c-.02-.01-.03-.02-.04-.02s-.03,0-.04,.03l-.47,.71s-.02,.03-.02,.04c0,0,0,.02,.02,.03,.08,.05,.16,.11,.23,.16Z"/>
          <path d="M44.34,40.37c.07,.06,.14,.12,.21,.17,0,.01,.03,.01,.05,0s.04-.02,.07-.03,.05-.03,.07-.05c.02-.02,.04-.03,.05-.04,.03-.03,.07-.07,.1-.1,.03-.04,.06-.08,.09-.12,.05-.07,.08-.13,.09-.19,.02-.06,.02-.12,0-.18-.01-.05-.03-.09-.06-.13-.03-.04-.06-.08-.09-.11s-.07-.07-.11-.09-.08-.06-.12-.08c-.02,0-.03-.01-.04-.02s-.03,0-.04,.03l-.47,.71s-.02,.03-.02,.04c0,0,0,.02,.02,.03,.08,.05,.16,.11,.23,.16Z"/>
          <path d="M44.05,42.22c.07-.05,.14-.09,.21-.13,.07-.04,.12-.06,.15-.08,0,0,.02,0,.03-.02s.03-.02,.05-.03c.02-.01,.04-.02,.05-.04,.02-.02,.03-.03,.04-.05,.03-.05,.06-.11,.09-.16,.03-.05,.06-.11,.08-.17,.01-.03,.02-.05,0-.07s-.03-.02-.07-.01c-.12,.04-.24,.1-.36,.18-.12,.07-.24,.16-.35,.25s-.22,.19-.31,.3-.18,.21-.25,.33l-.13,.2c-.09,.05-.24,.23-.46,.53-.07,.1-.13,.16-.16,.17-.03,.01-.07,0-.11-.01-.04-.02-.09-.03-.14-.03-.06,0-.11,.02-.15,.04-.04,.02-.09,.05-.13,.09-.04,.04-.08,.07-.13,.11-.05,.04-.1,.07-.16,.11s-.13,.06-.2,.08c-.08,.02-.17,.03-.27,.03-.07,0-.14,0-.21-.03-.07-.02-.14-.05-.19-.09-.06-.04-.11-.09-.14-.15s-.06-.13-.06-.21h0c0-.12,.05-.28,.13-.46,.02-.06,.02-.1,0-.11s-.05,0-.07,.04c-.08,.18-.18,.38-.28,.59s-.22,.39-.34,.55c-.12,.15-.28,.3-.47,.44-.19,.14-.41,.28-.65,.42-.06,.04-.08,.07-.06,.07,.02,0,.05,.01,.09,.01,.21-.04,.4-.07,.58-.12,.16-.05,.32-.16,.46-.34,.05-.06,.14-.19,.23-.33,0,0,0,0,0,.01,0,.07,.03,.14,.05,.21,.02,.07,.06,.14,.1,.2,.04,.06,.1,.11,.17,.15,.07,.04,.16,.07,.28,.07,.11,0,.21,0,.29-.04s.16-.08,.23-.13,.12-.11,.17-.16c.05-.06,.08-.11,.12-.14,.07-.11,.14-.19,.19-.25,.06-.06,.11-.1,.16-.12,.05-.02,.1-.03,.14-.02s.09,.02,.14,.04c.07,0,.13-.03,.2-.1,.02-.02,.07-.08,.14-.16,.03-.04,.08-.1,.15-.18,.09-.1,.16-.16,.19-.18,.03-.02,.07-.04,.11-.04,.02,0,.07,.01,.16,.04,.09,.03,.16,.04,.19,.04,.08,0,.17-.05,.25-.15,.08-.09,.12-.19,.12-.27,0-.05-.05-.12-.14-.21-.09-.09-.13-.16-.13-.22,.05-.05,.11-.1,.18-.15,.07-.05,.14-.1,.22-.15Z"/>
          <path d="M44.97,44.43c-.02,.07-.03,.11-.01,.11,.05,0,.12-.09,.21-.26,.09-.17,.16-.35,.23-.54,.06-.2,.11-.45,.14-.75,.01-.1,.02-.21,.03-.34,0-.13,.02-.25,.03-.39,0-.13,.02-.26,.03-.39s.02-.24,.04-.34c0-.06,.02-.13,.04-.24s.03-.17,.04-.21c0-.04,0-.06-.02-.06-.02,0-.04,.03-.06,.09l-.3,.72c-.04,.1-.07,.22-.09,.36s-.03,.31-.04,.51c0,.2-.02,.35-.04,.46,0,.11-.02,.22-.04,.34-.01,.12-.03,.24-.05,.35-.02,.11-.04,.22-.06,.32-.02,.1-.05,.18-.07,.25Z"/>
          <path d="M48.2,39.45s0,0,0,0v-.04s0,0,.01-.01c0,0,0,0,0-.01v-.04s0,0,0-.01c0,0,0,0,0-.01,0,0,0,0,0-.02,0,0,0,0,0-.02,0,0,0,0,0-.01,0,0,0,0,0,0s0,0,0,0v-.03s-.02-.02-.02-.03c0-.02-.02-.04-.03-.06l-.03-.04-.04-.04s-.07-.06-.1-.09h-.01s-.02-.03-.04-.03-.02-.01-.04-.02c0,0-.02-.01-.02-.02,0,0,0,0-.01,0s0,0-.01,0c0,0,0,0-.01,0s0,0-.01,0h-.02s0-.01,0-.01h0s-.03,0-.04,.02c0,0,0,0,0,0l-.45,.68s-.01,.03-.01,.04,0,.02,.01,.03c0,0,0,0,0,0,.04,.03,.08,.05,.12,.09,.01,0,.03,.02,.04,.03,.05,.03,.09,.07,.13,.1,.04,.04,.08,.07,.12,.1,.01,.01,.03,.02,.04,.02h.04s.03-.02,.06-.04h.01s.03-.04,.03-.04c0,0,.02-.01,.02-.02l.02-.02s.01,0,.02-.01c0,0,0-.01,.01-.02,0,0,0,0,0,0l.05-.06s.01-.02,.02-.03c0,0,0,0,.01-.02,0,0,0-.01,0-.01v-.02s.05-.05,.05-.05c0,0,0,0,0,0,0,0,0-.02,.01-.02s.01-.02,.01-.02v-.03s.02,0,.02,0c0,0,0,0,0,0,0,0,0-.02,.01-.02,0,0,0-.02,0-.02v-.04s.01,0,.01,0Z"/>
          <path d="M48.96,38.99s-.07-.06-.11-.09c-.04-.03-.08-.05-.12-.07-.02,0-.03-.02-.04-.02-.01,0-.03,0-.04,.03l-.45,.68s-.01,.03-.01,.03,0,.02,.01,.03c.08,.05,.15,.1,.21,.16,.07,.06,.13,.11,.2,.17,0,0,.02,.01,.03,.02s.02,0,.04,0c.01,0,.03,0,.05-.02s.04-.03,.07-.06c.04-.04,.08-.08,.11-.13,.03-.04,.07-.09,.1-.14,.04-.06,.07-.12,.09-.18,.02-.06,.02-.11,0-.17,0-.05-.03-.09-.05-.13-.03-.04-.05-.07-.09-.11Z"/>
          <path d="M48.1,41.24c-.18,.51-.27,.79-.28,.82,0,.02,0,.06,0,.1s0,.09,0,.14,.01,.09,.01,.13c0,.04,0,.08,0,.12,0,.05-.04,.11-.11,.16-.05,.04-.12,.07-.19,.11-.02-.12-.05-.23-.12-.32-.08-.1-.18-.15-.3-.15-.07,0-.15,.05-.23,.14-.08,.09-.16,.21-.22,.36-.07,.14-.11,.25-.13,.31-.02,.07-.04,.12-.04,.17,0,.1,.03,.18,.1,.25,.07,.07,.17,.11,.28,.11,.02,0,.05,0,.08,0s.06,0,.1-.01c.03,0,.07-.01,.1-.02,.03,0,.06-.02,.08-.03-.04,.12-.1,.23-.2,.34-.09,.11-.19,.21-.31,.3s-.26,.19-.44,.3c-.18,.11-.26,.18-.24,.2,0,0,.01,0,.04,0,.06,0,.14-.01,.26-.04s.23-.06,.33-.1c.1-.04,.18-.08,.24-.12,.06-.04,.12-.13,.2-.25,.08-.12,.18-.33,.29-.61,.03-.06,.05-.13,.07-.21,0,0,0,0,0,0,.05-.04,.11-.1,.2-.2,.1-.11,.2-.28,.31-.5,.11-.22,.17-.46,.17-.71v-.69c0-.05,0-.09,0-.11-.02-.03-.03-.03-.05,0Z"/>
          <path d="M50.18,42.47c-.08-.08-.16-.15-.24-.22-.02-.01-.03,0-.05,.02-.01,.02-.03,.05-.04,.09l-.19,.43-.14,.32s0,.02,0,.02c0,0,0,.02,.02,.03,.15,.11,.28,.23,.39,.36,.11,.13,.16,.24,.14,.32,0,.07-.07,.17-.2,.31-.13,.14-.28,.27-.47,.41-.07,.06-.13,.1-.18,.14-.02,.02-.04,.04-.04,.06,0,.01,0,.02,0,.03,.01,.01,.04,.01,.07,0,.29-.09,.47-.15,.56-.2,.09-.04,.15-.09,.2-.15,.05-.06,.09-.12,.13-.19,.11-.19,.19-.37,.25-.55,.06-.18,.09-.36,.09-.55,0-.16-.03-.3-.09-.4-.06-.1-.13-.19-.21-.27Z"/>
          <path d="M52.1,40.13s0,.02,.01,.03c.08,.05,.15,.1,.21,.16,.07,.06,.13,.11,.2,.17,0,0,.02,.01,.03,.02,0,0,.02,0,.04,0,.01,0,.03-.01,.05-.02s.04-.03,.07-.06c.04-.04,.08-.08,.11-.12,.03-.04,.07-.09,.1-.14,.04-.06,.07-.12,.09-.18,.02-.06,.02-.12,0-.17,0-.05-.03-.09-.05-.13-.03-.04-.05-.07-.09-.11-.03-.03-.07-.06-.11-.09-.04-.03-.08-.05-.12-.07-.02,0-.03-.01-.04-.02-.01,0-.03,0-.04,.02l-.45,.69s-.01,.03-.01,.03Z"/>
          <path d="M51.22,40.22s.08,.05,.12,.08c.01,0,.03,.02,.04,.03,.05,.03,.09,.07,.13,.1,.04,.04,.08,.07,.12,.1,.01,.01,.03,.02,.04,.02h.04s.03-.02,.06-.04h.01s.03-.04,.03-.04c0,0,.02-.01,.02-.02l.02-.02s.01,0,.02-.01c0,0,0-.01,.01-.01,0,0,0,0,0,0l.05-.06s.01-.01,.02-.03c0,0,0,0,.01-.02,0,0,0-.01,0-.02v-.02s.05-.05,.05-.05c0,0,0,0,0,0,0,0,0-.01,.01-.02s.01-.02,.01-.03v-.03s.02,0,.02,0c0,0,0,0,0,0,0,0,0-.02,.01-.02,0,0,0-.02,0-.02v-.04s.01,0,.01,0c0,0,0,0,0,0v-.04s0,0,.01-.01c0,0,0,0,0-.01v-.04s0,0,0-.01c0,0,0,0,0-.01,0,0,0,0,0-.02,0,0,0,0,0-.02,0,0,0,0,0-.01,0,0,0,0,0,0,0,0,0,0,0,0v-.03s-.02-.02-.02-.03c0-.02-.02-.04-.03-.06l-.03-.04-.04-.04s-.03-.03-.05-.04-.03-.03-.05-.04h-.01s-.02-.03-.04-.03l-.04-.02s-.02-.01-.02-.02c0,0,0,0-.01,0,0,0,0,0-.01,0,0,0,0,0-.01,0s0,0-.01,0h-.02s0-.01,0-.01h0s-.03,0-.04,.02c0,0,0,0,0,0l-.45,.68s-.01,.03-.01,.04c0,0,0,.02,.01,.03,0,0,0,0,0,0Z"/>
          <path d="M54.31,42.34s-.04,0-.05,.03c-.02,.03-.03,.07-.04,.11s-.03,.08-.05,.12-.04,.08-.06,.11c-.02,.03-.05,.06-.08,.07-.02,0-.03,.01-.06,.02-.02,0-.04,0-.05-.02,0,0-.02,0-.03,0s-.02,.02-.03,.05c-.02,.04-.03,.07-.04,.1-.01,.03-.03,.06-.05,.08s-.04,.05-.07,.06-.06,.03-.11,.04c-.04,0-.07,0-.1-.01-.02,0-.03,0-.04,0,0,0-.02,0-.03,.01-.04,.07-.09,.13-.13,.18-.04,.05-.08,.09-.13,.13-.04,.03-.07,.04-.11,.05-.03,0-.07,.01-.1,0-.03,0-.05-.01-.08-.02-.02-.01-.05-.02-.07-.03s-.04-.02-.06-.03c-.02-.01-.03-.02-.05-.02-.06,0-.13,.03-.21,.08-.06,.06-.14,.13-.26,.24-.12,.1-.26,.15-.42,.15-.39,0-.58-.24-.58-.71,0,0,0,0,0,0,0,0,0,0,0,0,0-.07,0-.18,.01-.34,0-.03,0-.11,.02-.26,.01-.15,.04-.4,.08-.75,.04-.35,.09-.68,.13-1.01,0-.06-.03-.06-.05-.02-.04,.1-.08,.19-.12,.29-.04,.1-.07,.19-.11,.29-.03,.11-.06,.27-.09,.45s-.06,.36-.08,.53c-.02,.17-.06,.44-.11,.83-.05,.39-.07,.62-.07,.69,0,.26,.06,.48,.17,.67,.11,.19,.28,.28,.49,.28,.2,0,.4-.14,.59-.42,.15-.23,.29-.37,.4-.42,.05-.02,.11-.02,.2,0,.05,.02,.11,.03,.17,.02s.11-.04,.17-.07c.05-.03,.11-.07,.16-.11s.1-.07,.14-.11c.04,0,.08-.01,.12-.03s.08-.04,.12-.07,.08-.06,.11-.09c.03-.03,.06-.06,.09-.09,.09-.04,.17-.1,.23-.18,.06-.07,.11-.16,.16-.25,.04-.09,.08-.19,.1-.29s.05-.2,.07-.3c0-.03-.01-.04-.04-.05Z"/>
          <path d="M10.42,53.18c-.03,.07-.07,.2-.13,.4s-.12,.39-.18,.57c-.06,.18-.13,.32-.21,.43s-.2,.22-.36,.36c-.16,.14-.3,.25-.42,.34-.12,.09-.2,.16-.23,.22-.02,.03-.03,.05-.02,.06,0,0,.03,.01,.06,.02,.03,0,.1-.02,.22-.04,.12-.02,.26-.07,.44-.13,.18-.06,.3-.13,.36-.2,.07-.07,.13-.17,.18-.31s.12-.33,.18-.58c.07-.25,.14-.64,.23-1.15,.01-.05,0-.08-.03-.08-.03,0-.05,.03-.08,.1Z"/>
          <path d="M12.7,50.09c.07,.06,.13,.11,.2,.17,0,0,.02,.01,.03,.02,0,0,.02,0,.04,0,.01,0,.03-.01,.05-.02s.04-.03,.07-.06c.04-.04,.08-.08,.11-.12,.03-.04,.07-.09,.1-.14,.04-.06,.07-.12,.09-.18,.02-.06,.02-.12,0-.17,0-.05-.03-.09-.05-.13-.03-.04-.05-.07-.09-.11-.03-.03-.07-.06-.11-.09-.04-.03-.08-.05-.12-.07-.02,0-.03-.01-.04-.02-.01,0-.03,0-.04,.02l-.45,.69s-.01,.03-.01,.03,0,.02,.01,.03c.08,.05,.15,.1,.21,.16Z"/>
          <path d="M13.1,51.15c.07,.06,.13,.11,.2,.17,0,0,.02,.01,.03,.01s.02,0,.04,0c.01,0,.03-.01,.05-.02s.04-.03,.07-.06c.04-.04,.08-.08,.11-.12,.03-.04,.07-.09,.1-.14,.04-.06,.07-.12,.09-.18,.02-.06,.02-.11,0-.17,0-.05-.03-.09-.05-.13-.03-.04-.05-.07-.09-.11s-.07-.06-.11-.09c-.04-.03-.08-.05-.12-.07-.02,0-.03-.02-.04-.02-.01,0-.03,0-.04,.02l-.45,.69s-.01,.03-.01,.03,0,.02,.01,.03c.08,.05,.15,.1,.21,.16Z"/>
          <path d="M11.99,50.98s-.01,.03-.01,.04c0,0,0,.02,.02,.03,.04,.03,.08,.05,.12,.08l.02,.02,.17,.14,.03,.03,.07,.06s0,0,.01,.01c0,0,.01,0,.02,0,.01,0,.03,0,.04,0,.02,0,.04-.02,.06-.04h.01s.03-.04,.03-.04c.02-.02,.03-.03,.05-.05,.02-.02,.03-.04,.05-.05,.01-.02,.02-.03,.04-.04,.01-.02,.02-.03,.03-.05l.05-.07,.04-.06,.02-.04s0,0,0-.02c0,0,0-.01,0-.01v-.02s.02-.04,.02-.04c0,0,0,0,0,0,0,0,0,0,0,0,0-.03,.01-.07,.01-.1,0,0,0,0,0,0,0,0,0,0,0,0,0,0,0,0,0-.01,0,0,0,0,0-.01,0,0,0-.01,0-.02v-.03s-.02-.02-.02-.03c0,0,0-.02,0-.03h0s-.03-.06-.03-.06l-.02-.02s-.03-.04-.05-.06-.04-.04-.06-.05l-.03-.03s-.05-.04-.08-.05-.05-.03-.08-.05c0,0,0,0-.01,0,0,0-.01,0-.01,0h0s-.03,0-.05,.02l-.45,.68Z"/>
          <path d="M19.13,46.65s-.17,.15-.48,.38c-.27,.21-1.26,.89-2.96,2.04-.12,.08-.24,.16-.37,.24s-.24,.16-.37,.25c-.08,.06-.16,.15-.24,.25-.13,.18-.2,.27-.2,.3,0,.05,.05,.05,.14-.01,.04-.02,.09-.05,.13-.08,.05-.03,.09-.06,.14-.09,.73-.43,1.43-.87,2.11-1.33,.68-.45,1.24-.88,1.68-1.28,.25-.31,.4-.51,.43-.6,.04-.09,.02-.11-.04-.07Z"/>
          <path d="M14.46,50.21l-.27,.8c-.03,.06-.04,.14-.04,.24,0,.07,0,.39,0,.97-.02,.25-.05,.43-.1,.54-.05,.11-.1,.19-.14,.23-.04,.04-.08,.07-.1,.09-.01,0-.04,.02-.08,.02-.04,0-.07,0-.1-.02s-.04-.02-.05,0c-.09,.14-.16,.21-.19,.23-.05,.03-.11,.03-.18,0-.03-.02-.05-.01-.06,.02-.09,.14-.19,.21-.28,.21-.03,0-.05-.02-.07-.04-.03-.02-.05-.03-.07-.02,0,0-.02,.02-.04,.06-.02,.04-.05,.07-.08,.09-.03,.03-.08,.06-.15,.09-.07,.03-.14,.06-.22,.08,0,0,0,0,0,0,0-.04,0-.09,0-.13-.02-.15-.06-.27-.14-.37-.08-.1-.18-.15-.3-.15-.07,0-.15,.05-.23,.14-.08,.09-.16,.21-.22,.36-.07,.14-.11,.25-.13,.31-.02,.07-.04,.12-.04,.17,0,.1,.03,.18,.1,.25,.07,.07,.17,.11,.28,.11,.02,0,.05,0,.08,0s.06,0,.1-.01c.03,0,.07-.01,.1-.02,.03,0,.06-.02,.08-.03-.04,.12-.1,.23-.2,.34-.09,.11-.19,.21-.31,.3s-.26,.19-.44,.3c-.18,.11-.26,.18-.24,.2,0,0,.01,0,.04,0,.06,0,.14-.01,.26-.04s.23-.06,.33-.1c.1-.04,.18-.08,.24-.12,.06-.04,.12-.13,.2-.25,.08-.12,.18-.33,.29-.61,.02-.06,.05-.13,.07-.2,.03,0,.08-.03,.16-.08,.09-.05,.17-.1,.24-.14,.14-.04,.27-.09,.38-.18,0,0,.03,0,.09,0,.05,0,.11-.03,.18-.06s.17-.1,.31-.19c.08-.02,.14-.04,.18-.06,.04-.02,.08-.06,.12-.1,.13-.13,.2-.21,.22-.24,.09-.11,.17-.24,.23-.38,.06-.14,.11-.34,.16-.6,.04-.26,.06-.45,.06-.58,0-.54,.02-.91,.03-1.11s.02-.28,.02-.26c0-.03,0-.06,0-.07-.02-.02-.04-.01-.05,.02Z"/>
          <path d="M17.24,53.18c-.03,.07-.07,.2-.13,.4s-.12,.39-.18,.57c-.06,.18-.13,.32-.21,.43s-.2,.22-.36,.36c-.16,.14-.3,.25-.42,.34-.12,.09-.2,.16-.23,.22-.02,.03-.03,.05-.02,.06,0,0,.03,.01,.06,.02,.03,0,.1-.02,.22-.04,.12-.02,.26-.07,.44-.13,.18-.06,.3-.13,.36-.2,.07-.07,.13-.17,.18-.31s.12-.33,.18-.58c.07-.25,.14-.64,.23-1.15,.01-.05,0-.08-.03-.08-.03,0-.05,.03-.08,.1Z"/>
          <path d="M18.38,51.92l-.3,.72c-.04,.1-.07,.22-.09,.36s-.03,.31-.04,.51c0,.2-.02,.35-.04,.46,0,.11-.02,.22-.04,.34-.01,.12-.03,.24-.05,.35-.02,.11-.04,.22-.06,.32-.02,.1-.05,.18-.07,.25-.02,.07-.03,.11-.01,.11,.05,0,.12-.09,.21-.26,.09-.17,.16-.35,.23-.54,.06-.2,.11-.45,.14-.75,.01-.1,.02-.21,.03-.34,0-.13,.02-.25,.03-.39,0-.13,.02-.26,.03-.39s.02-.24,.04-.34c0-.06,.02-.13,.04-.24s.03-.17,.04-.21c0-.04,0-.06-.02-.06-.02,0-.04,.03-.06,.09Z"/>
          <path d="M19.78,53.27c-.08-.08-.16-.15-.24-.22-.02-.01-.03,0-.05,.02-.01,.02-.03,.05-.04,.09l-.19,.43-.14,.32s0,.02,0,.02c0,0,0,.02,.02,.03,.15,.11,.28,.23,.39,.36,.11,.13,.16,.24,.14,.32,0,.07-.07,.17-.2,.31-.13,.14-.28,.27-.47,.41-.07,.06-.13,.1-.18,.14-.02,.02-.04,.04-.04,.06,0,.01,0,.02,0,.03,.01,.01,.04,.01,.07,0,.29-.09,.47-.15,.56-.2,.09-.04,.15-.09,.2-.15,.05-.06,.09-.12,.13-.19,.11-.19,.19-.37,.25-.55,.06-.18,.09-.36,.09-.55,0-.16-.03-.3-.09-.4-.06-.1-.13-.19-.21-.27Z"/>
          <path d="M21.91,53.18c-.03,.07-.07,.2-.13,.4s-.12,.39-.18,.57c-.06,.18-.13,.32-.21,.43s-.2,.22-.36,.36c-.16,.14-.3,.25-.42,.34-.12,.09-.2,.16-.23,.22-.02,.03-.03,.05-.02,.06,0,0,.03,.01,.06,.02,.03,0,.1-.02,.22-.04,.12-.02,.26-.07,.44-.13,.18-.06,.3-.13,.36-.2,.07-.07,.13-.17,.18-.31s.12-.33,.18-.58c.07-.25,.14-.64,.23-1.15,.01-.05,0-.08-.03-.08-.03,0-.05,.03-.08,.1Z"/>
          <path d="M24.97,52.68s.04-.1,.06-.17c.01-.03,.02-.06,.02-.09s-.01-.05-.04-.06c-.03,0-.05,0-.07,.02-.11,.1-.24,.15-.37,.15s-.29-.04-.46-.11c-.17-.07-.3-.11-.38-.11-.12,0-.24,.06-.34,.18-.02,.02-.06,.08-.13,.2-.07,.11-.12,.2-.14,.25-.02,.05,0,.08,.03,.09,.02,.01,.07-.04,.16-.14,.09-.1,.18-.16,.28-.16,.11,0,.26,.05,.45,.14,.05,.03,.14,.07,.25,.13-.02,.05-.1,.15-.25,.32-.14,.15-.25,.24-.35,.33-.02-.14-.06-.26-.14-.36-.08-.1-.18-.15-.3-.15-.07,0-.15,.05-.23,.14-.08,.09-.16,.21-.22,.36-.07,.14-.11,.25-.13,.31-.02,.07-.04,.12-.04,.17,0,.1,.03,.18,.1,.25,.07,.07,.17,.11,.28,.11,.02,0,.05,0,.08,0s.06,0,.1-.01c.03,0,.07-.01,.1-.02,.03,0,.06-.02,.08-.03-.04,.12-.1,.23-.2,.34-.09,.11-.19,.21-.31,.3s-.26,.19-.44,.3c-.18,.11-.26,.18-.24,.2,0,0,.01,0,.04,0,.06,0,.14-.01,.26-.04s.23-.06,.33-.1c.1-.04,.18-.08,.24-.12,.06-.04,.12-.13,.2-.25,.08-.12,.18-.33,.29-.61,.03-.06,.05-.13,.07-.21,0,0,0,0,0,0l.11-.12,.47-.51,.45-.49c.06-.06,.12-.1,.17-.11,.03-.03,.07-.11,.12-.22,0-.02,.02-.06,.04-.1Z"/>
          <path d="M24.39,50.01s-.08-.06-.12-.08c-.02,0-.03-.02-.04-.02s-.03,0-.04,.03l-.47,.71s-.02,.03-.02,.04c0,0,0,.02,.02,.03,.08,.05,.16,.11,.23,.16s.14,.12,.21,.17c0,.01,.03,.01,.05,0s.04-.02,.07-.03c.02-.02,.05-.03,.07-.05s.04-.03,.05-.04c.03-.03,.07-.07,.09-.1,.03-.04,.06-.08,.09-.12,.05-.07,.08-.13,.09-.19,.02-.06,.02-.12,0-.18-.01-.05-.03-.09-.06-.13-.03-.04-.06-.08-.09-.11s-.07-.07-.11-.09Z"/>
          <path d="M27.09,55.73s-.07-.07-.11-.09c-.04-.03-.08-.06-.12-.08-.02,0-.03-.02-.04-.02s-.03,0-.04,.03l-.47,.71s-.02,.03-.02,.04c0,0,0,.02,.02,.03,.08,.05,.16,.11,.23,.16s.14,.12,.21,.17c0,.01,.03,.01,.05,0s.04-.02,.07-.03c.02-.02,.05-.03,.07-.05s.04-.03,.05-.04c.03-.03,.07-.07,.1-.1,.03-.04,.06-.08,.09-.12,.05-.07,.08-.13,.09-.19,.02-.06,.02-.12,0-.18-.01-.05-.03-.09-.06-.13-.03-.04-.06-.08-.09-.11Z"/>
          <path d="M27.61,52.87c.02-.08,0-.12-.03-.13-.04,0-.07,.03-.1,.08-.03,.05-.06,.1-.08,.16-.04,.11-.13,.21-.27,.28-.12,.06-.22,.12-.31,.18s-.15,.12-.2,.18c-.05,.06-.09,.12-.13,.19-.04,.06-.07,.12-.1,.19-.03,.06-.06,.13-.09,.19s-.06,.13-.1,.2c-.06,.13-.17,.26-.33,.37-.04,.03-.08,.06-.11,.09-.03,.02-.08,.06-.14,.1s-.13,.09-.22,.15c-.09,.06-.21,.14-.36,.24-.07,.05-.12,.09-.14,.14s0,.07,.04,.09c0,0,.03,0,.05,0,.02,0,.04,0,.06,0l.54-.09c.2-.04,.34-.11,.44-.21,.07-.07,.13-.15,.18-.25,.05-.1,.09-.21,.13-.32,.04-.11,.08-.21,.12-.31,.04-.1,.08-.17,.13-.23,.03-.04,.07-.08,.13-.12s.11-.07,.18-.1c.07-.03,.14-.06,.2-.11s.12-.09,.17-.14c.05-.06,.1-.13,.15-.21,.05-.09,.09-.19,.12-.3,.02-.06,.04-.12,.05-.17,.02-.05,.03-.09,.04-.13Z"/>
          <path d="M31.34,50.13c.07,.06,.13,.11,.2,.17,0,0,.02,.01,.03,.02s.02,0,.04,0c.01,0,.03,0,.05-.02s.04-.03,.07-.06c.04-.04,.08-.08,.11-.13,.03-.04,.07-.09,.1-.14,.04-.06,.07-.12,.09-.18,.02-.06,.02-.11,0-.17,0-.05-.03-.09-.05-.13-.03-.04-.05-.07-.09-.11s-.07-.06-.11-.09c-.04-.03-.08-.05-.12-.07-.02,0-.03-.02-.04-.02-.01,0-.03,0-.04,.03l-.45,.68s-.01,.03-.01,.03,0,.02,.01,.03c.08,.05,.15,.1,.21,.16Z"/>
          <path d="M31.12,49.83v-.04s0,0,.01-.01c0,0,0,0,0-.01v-.04s0,0,0-.01c0,0,0,0,0-.01,0,0,0,0,0-.02,0,0,0,0,0-.02,0,0,0,0,0-.01,0,0,0,0,0,0s0,0,0,0v-.03s-.02-.02-.02-.03c0-.02-.02-.04-.03-.06l-.03-.04-.04-.04s-.07-.06-.1-.09h-.01s-.02-.03-.04-.03-.02-.01-.04-.02c0,0-.02-.01-.02-.02,0,0,0,0-.01,0s0,0-.01,0c0,0,0,0-.01,0s0,0-.01,0h-.02s0-.01,0-.01h0s-.03,0-.04,.02c0,0,0,0,0,0l-.45,.68s-.01,.03-.01,.04,0,.02,.01,.03c0,0,0,0,0,0,.04,.03,.08,.05,.12,.09,.01,0,.03,.02,.04,.03,.05,.03,.09,.07,.13,.1,.04,.04,.08,.07,.12,.1,.01,.01,.03,.02,.04,.02h.04s.03-.02,.06-.04h.01s.03-.04,.03-.04c0,0,.02-.01,.02-.02l.02-.02s.01,0,.02-.01c0,0,0-.01,.01-.02,0,0,0,0,0,0l.05-.06s.01-.02,.02-.03c0,0,0,0,.01-.02,0,0,0-.01,0-.01v-.02s.05-.05,.05-.05c0,0,0,0,0,0,0,0,0-.02,.01-.02s.01-.02,.01-.02v-.03s.02,0,.02,0c0,0,0,0,0,0,0,0,0-.02,.01-.02,0,0,0-.02,0-.02v-.04s.01,0,.01,0c0,0,0,0,0,0Z"/>
          <path d="M37.92,46.51c.25-.31,.4-.51,.44-.6,.04-.09,.02-.11-.04-.07-.01,.02-.17,.15-.48,.38-.27,.21-1.26,.89-2.96,2.04-.12,.08-.24,.16-.37,.24-.12,.07-.24,.16-.37,.25-.08,.06-.16,.15-.24,.25-.13,.18-.2,.27-.2,.3,0,.05,.05,.05,.14-.01,.04-.02,.09-.05,.13-.08,.05-.03,.09-.06,.14-.09,.73-.43,1.43-.87,2.11-1.33,.68-.45,1.24-.88,1.68-1.28Z"/>
          <path d="M33.64,49.4c-.05,.11-.13,.26-.24,.47-.11,.21-.17,.34-.18,.39,0,.11-.01,.2-.02,.27s-.01,.17-.01,.27c0,.21-.02,.35-.04,.42-.04,.14-.12,.3-.25,.49,0,0,0,0,0,0l-.14,.2c-.14,.15-.24,.3-.3,.43s-.12,.23-.18,.31c-.05,.07-.11,.14-.15,.19-.05,.06-.08,.09-.1,.11,0,0,0,0,0,0-.04,.04-.15,.05-.35,.04-.2-.02-.39,0-.57,.04-.08,.03-.17,.07-.26,.12-.09,.05-.18,.11-.28,.19-.09,.07-.19,.16-.29,.26-.1,.1-.2,.22-.3,.35-.07,.09-.23,.32-.48,.68s-.46,.63-.63,.82c-.17,.19-.32,.34-.45,.45s-.29,.22-.46,.33-.29,.19-.35,.22c-.05,.03-.06,.04-.05,.05,.01,.02,.05,.02,.12-.01,.04-.01,.14-.05,.28-.12,.15-.07,.33-.17,.55-.31,.22-.14,.41-.29,.58-.45,.16-.16,.33-.37,.52-.61,.18-.24,.35-.44,.52-.6,.16-.15,.33-.27,.49-.34,.16-.07,.33-.12,.49-.15,0,0,0,0,0,0,.03,0,.07,.01,.12,.01,.05,0,.1,0,.16-.01,.03,0,.08-.02,.14-.04,.07-.02,.15-.09,.24-.19,.1-.1,.19-.21,.27-.32l.4-.47c.1-.11,.17-.18,.24-.21,.06-.04,.13-.05,.19-.05,0,0,.06,.01,.14,.04,.05,.01,.08,.02,.1,.02,.09,0,.17-.04,.23-.12,.07-.08,.12-.18,.15-.29,0-.06,0-.11-.04-.16-.04-.06-.09-.1-.14-.14-.08-.05-.12-.09-.12-.11-.03-.04-.05-.08-.05-.14,.02-.04,.05-.09,.08-.16,.07-.12,.12-.2,.14-.24,.05-.1,.1-.22,.16-.36,.04-.13,.07-.28,.1-.47,0-.09,0-.18,0-.28,0-.1,.02-.26,.05-.48,0-.02,.01-.06,.03-.11,.01-.06,.02-.12,.02-.16,0-.02,0-.04-.02-.05-.01-.01-.03-.01-.05,0Z"/>
          <path d="M39.18,51.27c-.07-.02-.17,.05-.28,.2-.13,.16-.24,.32-.33,.48,0,.04,.02,.07,.06,.09,.05,.04,.07,.06,.08,.06-.25,.17-.44,.3-.57,.4s-.24,.19-.34,.29c0,0,0,0,0,0-.07,.08-.14,.17-.2,.28-.06,.11-.11,.2-.13,.3,0,.02,0,.03-.01,.05,0,.02,0,.03,0,.04s.02,.02,.03,.03,.04,.01,.07,.01c.05,0,.1,0,.17,0,.07,0,.14-.01,.22-.02,.07-.01,.15-.02,.22-.04,.07-.02,.14-.03,.19-.05,.03,0,.03,.02,.01,.04-.04,.07-.09,.13-.15,.19s-.13,.11-.2,.15c-.07,.04-.15,.08-.23,.11s-.16,.05-.24,.05c-.12,.02-.21,.01-.29-.02s-.15-.08-.2-.14c-.05-.06-.09-.14-.12-.24-.03-.09-.04-.19-.05-.29,0-.03,0-.06,0-.09,0-.05,.02-.22,.04-.5,.02-.28,.05-.5,.08-.66,0-.06,0-.09,0-.1-.01,0-.03,0-.04,.03l-.28,.87c-.01,.05-.03,.15-.06,.28-.02,.13-.06,.36-.09,.67,0,.03,0,.04,0,.07-.01,.04-.02,.08-.02,.11,0,.01,0,.03,0,.05-.02,.17-.03,.31-.04,.36,0,.08-.01,.15-.03,.2-.03,.11-.09,.2-.18,.28-.09,.08-.19,.11-.29,.09-.11-.02-.18-.03-.21-.04-.07-.02-.12-.03-.16-.03-.09,0-.2,.03-.31,.08-.01-.02,0-.04-.02-.07-.18,.1-.33,.23-.46,.38s-.22,.28-.26,.37c-.03,.07-.04,.12-.02,.14,.02,.02,.04,.01,.07,0,.2-.12,.41-.17,.65-.16,.01,.02,.01,.05,.03,.07,.06,.01,.14,.03,.25,.05,.11,.02,.22,0,.35-.06,.12-.05,.24-.14,.37-.26,.1-.11,.19-.24,.26-.38,.11-.23,.17-.35,.19-.35,0,0,.01-.01,.02-.02,.02,.03,.04,.07,.08,.09,.06,.05,.13,.09,.22,.12s.19,.04,.32,.04c.12-.01,.23-.05,.33-.1,.1-.05,.19-.12,.28-.2,.08-.08,.16-.17,.23-.28,.07-.1,.14-.21,.2-.32,.06-.11,.12-.21,.18-.32,.06-.11,.11-.2,.16-.29,.02-.03,.04-.07,.06-.1,.03-.03,.04-.06,.05-.09,.02-.04,.03-.07,.03-.1,0-.03,0-.06,0-.07,0-.02-.02-.03-.05-.04s-.06,0-.1,.01c-.05,.02-.11,.03-.17,.05-.07,.02-.13,.03-.2,.05s-.14,.03-.21,.05c-.07,.01-.13,.02-.19,.03-.05,0-.1,.02-.14,.02s-.06,0-.06,0c0-.02,.01-.04,.02-.05,.01-.02,.02-.03,.03-.04h0c.12-.13,.3-.25,.54-.38s.54-.25,.92-.36c.07-.02,.14-.06,.22-.14,.07-.08,.14-.16,.2-.26,.07-.11,.12-.2,.12-.27s-.02-.12-.08-.15c-.14-.07-.32-.15-.53-.23Z"/>
          <path d="M41.64,52.23c-.09,.06-.23,.09-.4,.09s-.33-.05-.45-.14c-.13-.1-.24-.21-.35-.34-.02,.03-.07,.15-.16,.36s-.15,.37-.18,.47c.01,.02,.05,.09,.11,.21,.06,.12,.14,.28,.23,.48s.17,.46,.23,.76c.09,.43,.14,.91,.14,1.45,0,0,0,.01,.01,.01,0,0,0,0,.01-.01,.05-.1,.1-.26,.13-.47,.04-.23,.06-.44,.07-.62s.02-.39,.02-.61-.01-.45-.04-.69c.05-.01,.12-.03,.2-.06,.08-.03,.16-.07,.23-.12s.15-.12,.21-.21c.07-.09,.12-.2,.16-.35s.06-.28,.06-.4-.01-.18-.04-.18c-.05,.19-.12,.32-.22,.39Z"/>
          <path d="M42.98,53.31l-.48,.78c.04,.08,.15,.2,.33,.35,.02,.03,.06,.06,.12,.09,.09,0,.2-.08,.33-.24,.13-.16,.2-.32,.2-.49,0-.05-.05-.13-.15-.23-.1-.11-.22-.19-.36-.27Z"/>
          <path d="M45.69,52.23c-.09,.06-.23,.09-.4,.09s-.33-.05-.45-.14c-.13-.1-.24-.21-.35-.34-.02,.03-.07,.15-.16,.36s-.15,.37-.18,.47c.01,.02,.05,.09,.11,.21,.06,.12,.14,.28,.23,.48s.17,.46,.23,.76c.09,.43,.14,.91,.14,1.45,0,0,0,.01,.01,.01,0,0,0,0,.01-.01,.05-.1,.1-.26,.13-.47,.04-.23,.06-.44,.07-.62s.02-.39,.02-.61-.01-.45-.04-.69c.05-.01,.12-.03,.2-.06,.08-.03,.16-.07,.23-.12s.15-.12,.21-.21c.07-.09,.12-.2,.16-.35s.06-.28,.06-.4-.01-.18-.04-.18c-.05,.19-.12,.32-.22,.39Z"/>
          <path d="M47.03,53.31l-.48,.78c.04,.08,.15,.2,.33,.35,.02,.03,.06,.06,.12,.09,.09,0,.2-.08,.33-.24,.13-.16,.2-.32,.2-.49,0-.05-.05-.13-.15-.23-.1-.11-.22-.19-.36-.27Z"/>
        </g>
        <g>
          <path d="M28.25,38.01c-.49-.67-.98-1.34-1.49-2-.06-.08-.27-.07-.4-.04-2.75,.64-5.46,.39-8.15-.4-.09-.03-.17-.07-.25-.14,2.38-.14,4.76-.26,7.06-1.2-.66-.47-1.29-.87-1.87-1.33-2.99-2.31-5.3-5.14-6.55-8.74-.85-2.44-1.05-4.93-.72-7.5,.35-2.63,.99-5.15,2.25-7.49,.83-1.54,1.87-2.91,3.25-4.01,.1-.08,.2-.14,.34-.2-2.48,4.45-3.74,9.14-2.86,14.25,.88,5.13,3.77,9.02,7.72,12.38,0-.51,.02-.92,0-1.33-.2-4.58-.47-9.15-.59-13.73-.1-3.6-.02-7.21-.02-10.82,0-.11,.04-.26,.11-.32,.76-.62,1.54-1.22,2.31-1.82,.5,.45,1.02,1.06,1.67,1.45,.55,.34,.66,.71,.65,1.3-.03,3.67,.03,7.34-.05,11.01-.07,3.28-.27,6.55-.41,9.83-.06,1.45-.11,2.89-.17,4.37,7.3-5.67,11.18-15.52,4.83-26.55,.03-.03,.06-.07,.09-.1,.55,.53,1.15,1.02,1.66,1.6,2.14,2.42,3.27,5.32,3.86,8.45,.31,1.67,.52,3.35,.4,5.07-.2,3.01-1.19,5.73-2.88,8.2-1.62,2.37-3.68,4.29-6.1,5.82-.08,.05-.16,.1-.32,.21,2.32,.97,4.69,1.08,7.13,1.19-1.53,.7-5.27,1.4-8.76,.5-.54,.7-1.09,1.41-1.64,2.12h-.09Z"/>
          <path d="M8.93,17.48c.17-.91,.27-1.83,.52-2.72,1.24-4.46,4.13-7.51,8.26-9.45,.65-.31,1.34-.55,2.02-.82,.05-.02,.12-.02,.17-.03-8.3,8.16-9.92,17.22-3.77,27.42-.66-.51-1.36-.99-1.97-1.55-3.01-2.76-4.72-6.17-5.14-10.23-.01-.1-.05-.2-.08-.3,0-.77,0-1.55,0-2.32Z"/>
          <path d="M47.76,19.34c-.12,.84-.2,1.69-.38,2.51-.9,4.07-3.02,7.33-6.45,9.73-.12,.08-.25,.15-.48,.28,6.24-10.21,4.59-19.23-3.67-27.37,0,0,.06-.02,.1,0,4.37,1.5,7.8,4.09,9.7,8.44,.63,1.44,.99,2.95,1.09,4.52,0,.14,.05,.27,.08,.41v1.49Z"/>
          <path d="M28.32,.8c1.75,1.84,3.34,1.74,4.89-.76,.57,.74,.35,2.05-.48,2.88-1.22,1.22-2.68,1.19-4.39-.12-1.67,1.24-2.97,1.33-4.19,.31C23.24,2.36,22.84,1.07,23.43,0c.6,.86,1.14,1.78,2.24,2.01,1.15,.24,1.92-.47,2.64-1.21Z"/>
        </g>
      </g>
      <rect class="cls-1" width="56.69" height="56.69"/>
    </g>
  </g>
</svg>