<svg width="108" height="55" viewBox="0 0 108 55" fill="none" xmlns="http://www.w3.org/2000/svg">
<path d="M18.666 27.9626C18.1532 27.9626 17.6923 27.8917 17.2832 27.7498C16.8741 27.608 16.5223 27.4062 16.2278 27.1444C16.0641 27.3026 15.8896 27.4335 15.7041 27.5371C15.5241 27.6408 15.336 27.7253 15.1396 27.7908C14.9487 27.8508 14.755 27.8944 14.5587 27.9217C14.3678 27.9489 14.1823 27.9626 14.0023 27.9626C13.7187 27.9626 13.4514 27.9408 13.2005 27.8971C12.9496 27.8535 12.7096 27.7553 12.4805 27.6026V27.9462C12.4805 29.4462 12.0741 30.5562 11.2614 31.2762C10.4541 31.9962 9.25413 32.3562 7.66141 32.3562H6.06595C5.33504 32.3562 4.66413 32.2362 4.05322 31.9962C3.44232 31.7562 2.91595 31.4126 2.47413 30.9653C2.03232 30.5235 1.68595 29.9862 1.43504 29.3535C1.18959 28.7262 1.06686 28.0198 1.06686 27.2344C1.06686 26.8744 1.08868 26.5144 1.13232 26.1544C1.18141 25.7944 1.25504 25.4262 1.35322 25.0498C1.45141 24.6735 1.57686 24.2808 1.72959 23.8717C1.88777 23.4571 2.07868 23.0153 2.30232 22.5462L4.13504 23.438C3.94413 23.8308 3.77504 24.1962 3.62777 24.5344C3.48595 24.8671 3.36595 25.1862 3.26777 25.4917C3.17504 25.7917 3.10413 26.0835 3.05504 26.3671C3.01141 26.6453 2.98959 26.9262 2.98959 27.2098C2.98959 27.6462 3.06322 28.0526 3.2105 28.4289C3.36322 28.8108 3.57322 29.1408 3.8405 29.4189C4.11322 29.7026 4.4405 29.9235 4.82232 30.0817C5.18777 30.2398 5.58868 30.3189 6.02504 30.3189H7.66141C8.23959 30.3189 8.70868 30.2644 9.06868 30.1553C9.43413 30.0517 9.71777 29.8989 9.91959 29.6971C10.1214 29.4953 10.2578 29.2471 10.3287 28.9526C10.405 28.658 10.4432 28.3226 10.4432 27.9462V22.3089H12.4805V23.7817C12.4805 24.2508 12.5241 24.6271 12.6114 24.9108C12.6987 25.1944 12.8132 25.4126 12.955 25.5653C13.0969 25.7126 13.2578 25.8108 13.4378 25.8598C13.6232 25.9089 13.8114 25.9335 14.0023 25.9335C14.1169 25.9335 14.245 25.9144 14.3869 25.8762C14.5341 25.8326 14.6732 25.7617 14.8041 25.6635C14.935 25.5653 15.0441 25.4344 15.1314 25.2708C15.2187 25.1017 15.2623 24.8944 15.2623 24.6489V22.3089H17.2914V24.7308C17.3023 25.1453 17.4141 25.4508 17.6269 25.6471C17.845 25.838 18.186 25.9335 18.6496 25.9335H18.6414C18.7178 25.928 18.8187 25.9117 18.9441 25.8844C19.075 25.8517 19.2005 25.7917 19.3205 25.7044C19.4405 25.6117 19.5441 25.4835 19.6314 25.3198C19.7187 25.1508 19.7623 24.9271 19.7623 24.6489C19.7623 24.4689 19.7405 24.2398 19.6969 23.9617C19.6532 23.6835 19.6014 23.3998 19.5414 23.1108C19.4814 22.8162 19.4214 22.5435 19.3614 22.2926C19.3014 22.0362 19.2523 21.8453 19.2141 21.7198L21.1369 21.1389C21.1478 21.1717 21.1696 21.2562 21.2023 21.3926C21.2405 21.5289 21.2814 21.698 21.325 21.8998C21.3741 22.0962 21.4232 22.3171 21.4723 22.5626C21.5269 22.8026 21.5732 23.048 21.6114 23.2989C21.655 23.5444 21.6905 23.7871 21.7178 24.0271C21.745 24.2617 21.7587 24.4689 21.7587 24.6489C21.7587 25.2053 21.666 25.6908 21.4805 26.1053C21.3005 26.5144 21.0632 26.858 20.7687 27.1362C20.4796 27.4089 20.1496 27.6135 19.7787 27.7498C19.4132 27.8862 19.0423 27.9571 18.666 27.9626ZM27.1006 27.4635C27.0678 28.2162 26.9288 28.8926 26.6833 29.4926C26.4378 30.098 26.0997 30.6108 25.6688 31.0308C25.2378 31.4562 24.7169 31.7835 24.106 32.0126C23.4951 32.2417 22.8051 32.3562 22.036 32.3562H21.0215V30.3189H22.036C22.5597 30.3189 23.0124 30.2644 23.3942 30.1553C23.776 30.0462 24.0897 29.8717 24.3351 29.6317C24.5806 29.3917 24.7633 29.078 24.8833 28.6908C25.0033 28.3089 25.0633 27.8426 25.0633 27.2917V22.3089H27.1006V27.4635ZM29.8527 30.3189C30.2891 30.3189 30.6764 30.3026 31.0146 30.2698C31.3582 30.2426 31.6609 30.1989 31.9227 30.1389C32.19 30.0844 32.4218 30.0108 32.6182 29.918C32.82 29.8308 32.9946 29.7244 33.1418 29.5989C33.3709 29.4135 33.5427 29.198 33.6573 28.9526C33.7773 28.7071 33.8482 28.3771 33.87 27.9626H32.61C32.3373 27.9626 32.0591 27.9408 31.7755 27.8971C31.4918 27.8535 31.2191 27.7798 30.9573 27.6762C30.6955 27.5671 30.4473 27.428 30.2127 27.2589C29.9836 27.0898 29.7818 26.8826 29.6073 26.6371C29.4382 26.3862 29.3018 26.0917 29.1982 25.7535C29.1 25.4153 29.0509 25.028 29.0509 24.5917C29.0509 24.2153 29.0836 23.8826 29.1491 23.5935C29.2146 23.2989 29.2964 23.0398 29.3946 22.8162C29.4982 22.5926 29.6127 22.3989 29.7382 22.2353C29.8636 22.0662 29.9836 21.9189 30.0982 21.7935C30.4255 21.4662 30.7964 21.2153 31.2109 21.0408C31.6255 20.8608 32.0727 20.7708 32.5527 20.7708C33.1473 20.7708 33.6546 20.8744 34.0746 21.0817C34.5 21.2835 34.8464 21.5644 35.1136 21.9244C35.3864 22.2844 35.5855 22.7126 35.7109 23.2089C35.8364 23.6998 35.8991 24.2344 35.8991 24.8126V25.9253H37.29V27.9626H35.8909C35.8691 28.7098 35.7355 29.3398 35.49 29.8526C35.25 30.3653 34.89 30.8126 34.41 31.1944C34.1591 31.3908 33.8864 31.5598 33.5918 31.7017C33.2973 31.8489 32.9673 31.9717 32.6018 32.0698C32.2364 32.168 31.8273 32.2389 31.3746 32.2826C30.9273 32.3317 30.42 32.3562 29.8527 32.3562V30.3189ZM32.5527 22.808C32.0891 22.808 31.7209 22.9526 31.4482 23.2417C31.1755 23.5308 31.0391 23.9808 31.0391 24.5917C31.0391 24.8317 31.0855 25.0362 31.1782 25.2053C31.2764 25.3744 31.3991 25.5135 31.5464 25.6226C31.6991 25.7262 31.8682 25.8026 32.0536 25.8517C32.2391 25.9008 32.4246 25.9253 32.61 25.9253H33.87V24.8126C33.87 24.5017 33.8455 24.2371 33.7964 24.0189C33.7473 23.7953 33.6818 23.6098 33.6 23.4626C33.5236 23.3153 33.4336 23.198 33.33 23.1108C33.2318 23.0235 33.1336 22.958 33.0355 22.9144C32.9427 22.8708 32.8527 22.8435 32.7655 22.8326C32.6782 22.8162 32.6073 22.808 32.5527 22.808ZM44.8336 19.0198C45.1882 19.4889 45.5482 19.9635 45.9136 20.4435C46.0664 20.6508 46.2273 20.8662 46.3964 21.0898C46.5709 21.3135 46.7455 21.5426 46.92 21.7771C47.1 22.0062 47.2746 22.2353 47.4436 22.4644C47.6127 22.6935 47.7764 22.9117 47.9346 23.1189C48.2727 23.5717 48.4936 24.0653 48.5973 24.5998C48.63 24.7908 48.6464 24.9817 48.6464 25.1726C48.6464 25.5162 48.5891 25.8598 48.4746 26.2035C48.3655 26.5308 48.2046 26.8308 47.9918 27.1035C47.7846 27.3762 47.5309 27.6108 47.2309 27.8071C46.9309 28.0035 46.5873 28.1562 46.2 28.2653C45.8127 28.3744 45.3873 28.4289 44.9236 28.4289C44.5309 28.4289 44.1246 28.388 43.7046 28.3062C43.2846 28.2298 42.8564 28.0826 42.42 27.8644C42.3218 27.8208 42.2264 27.7771 42.1336 27.7335C42.0518 27.6953 41.9673 27.6571 41.88 27.6189C41.7927 27.5753 41.7191 27.5371 41.6591 27.5044C41.1355 27.6626 40.5546 27.7771 39.9164 27.848C39.2836 27.9244 38.5827 27.9626 37.8136 27.9626H36.8891V25.9253H37.8136C37.9664 25.9253 38.1 25.928 38.2146 25.9335C38.3346 25.9335 38.4491 25.9335 38.5582 25.9335C38.6618 25.9335 38.7655 25.9308 38.8691 25.9253C38.9782 25.9198 39.0982 25.9089 39.2291 25.8926C39.0873 25.7289 38.9591 25.5708 38.8446 25.418C38.7355 25.2598 38.64 25.0962 38.5582 24.9271C38.4818 24.7526 38.4218 24.5698 38.3782 24.3789C38.34 24.1826 38.3209 23.9671 38.3209 23.7326C38.3209 23.2853 38.4055 22.8735 38.5746 22.4971C38.7491 22.1208 38.9864 21.7989 39.2864 21.5317C39.5918 21.2644 39.9464 21.0571 40.35 20.9098C40.7591 20.7571 41.1982 20.6808 41.6673 20.6808C42.1964 20.6808 42.6655 20.7871 43.0746 20.9998C43.4891 21.2071 43.8355 21.4717 44.1136 21.7935C44.3973 22.1098 44.61 22.4535 44.7518 22.8244C44.8991 23.1953 44.9727 23.5417 44.9727 23.8635C44.9727 24.1253 44.9455 24.3653 44.8909 24.5835C44.8418 24.8017 44.7709 25.0089 44.6782 25.2053C44.5855 25.3962 44.4709 25.5789 44.3346 25.7535C44.1982 25.928 44.0455 26.0998 43.8764 26.2689C44.0455 26.3235 44.22 26.3753 44.4 26.4244C44.58 26.468 44.7546 26.4898 44.9236 26.4898C45.0927 26.4898 45.27 26.4789 45.4555 26.4571C45.6409 26.4298 45.8155 26.3808 45.9791 26.3098C46.1482 26.2335 46.2955 26.1298 46.4209 25.9989C46.5518 25.868 46.65 25.6962 46.7155 25.4835C46.7373 25.4071 46.7482 25.328 46.7482 25.2462C46.7482 25.0989 46.7046 24.9108 46.6173 24.6817C46.53 24.4526 46.3691 24.1608 46.1346 23.8062C45.9055 23.4517 45.6191 23.0617 45.2755 22.6362C44.9318 22.2053 44.5555 21.7362 44.1464 21.2289L43.2955 20.1735L44.8336 19.0198ZM40.2518 23.7326C40.2518 23.9344 40.2818 24.1144 40.3418 24.2726C40.4073 24.4253 40.5027 24.5671 40.6282 24.698C40.7591 24.8289 40.9173 24.9571 41.1027 25.0826C41.2936 25.2026 41.5146 25.3308 41.7655 25.4671C41.9346 25.3853 42.0982 25.2926 42.2564 25.1889C42.4146 25.0853 42.5509 24.9708 42.6655 24.8453C42.7855 24.7144 42.8809 24.5698 42.9518 24.4117C43.0227 24.2535 43.0582 24.0789 43.0582 23.888C43.0582 23.6589 43.0091 23.4571 42.9109 23.2826C42.8127 23.108 42.6927 22.9635 42.5509 22.8489C42.4091 22.7344 42.2564 22.6498 42.0927 22.5953C41.9346 22.5408 41.7927 22.5135 41.6673 22.5135C41.4818 22.5135 41.3018 22.5462 41.1273 22.6117C40.9582 22.6771 40.8082 22.7671 40.6773 22.8817C40.5464 22.9908 40.4427 23.1189 40.3664 23.2662C40.29 23.4135 40.2518 23.5689 40.2518 23.7326ZM54.7771 27.9626C54.1771 27.9626 53.6617 27.9244 53.2307 27.848C52.7998 27.7771 52.4371 27.6708 52.1426 27.5289C51.848 27.3817 51.6107 27.1962 51.4307 26.9726C51.2562 26.7489 51.1226 26.4871 51.0298 26.1871C50.9371 25.8871 50.8744 25.5489 50.8417 25.1726C50.8144 24.7908 50.8007 24.3708 50.8007 23.9126V16.1644H52.838V23.9126C52.838 24.3489 52.8517 24.698 52.8789 24.9598C52.9117 25.2217 52.9907 25.4262 53.1162 25.5735C53.2471 25.7153 53.4407 25.8108 53.6971 25.8598C53.9589 25.9035 54.3189 25.9253 54.7771 25.9253V27.9626ZM60.5206 26.4162C60.5696 26.4162 60.646 26.408 60.7496 26.3917C60.8587 26.3698 60.9678 26.3098 61.0769 26.2117C61.186 26.1135 61.2815 25.9635 61.3633 25.7617C61.4506 25.5544 61.4942 25.2653 61.4942 24.8944C61.4942 24.7526 61.4669 24.5726 61.4124 24.3544C61.3633 24.1308 61.2733 23.9153 61.1424 23.708C61.0169 23.4953 60.8451 23.3153 60.6269 23.168C60.4142 23.0153 60.1442 22.9389 59.8169 22.9389C59.5333 22.9389 59.3015 23.0235 59.1215 23.1926C58.9415 23.3617 58.7887 23.5717 58.6633 23.8226C58.5433 24.0735 58.4396 24.3462 58.3524 24.6408C58.2706 24.9298 58.1806 25.1944 58.0824 25.4344C58.2842 25.5489 58.4969 25.6662 58.7206 25.7862C58.9496 25.9008 59.1733 26.0044 59.3915 26.0971C59.6096 26.1898 59.8142 26.2662 60.0051 26.3262C60.2015 26.3862 60.3733 26.4162 60.5206 26.4162ZM59.8169 20.9098C60.3896 20.9098 60.8887 21.0162 61.3142 21.2289C61.7451 21.4417 62.0996 21.728 62.3778 22.088C62.6615 22.4426 62.8715 22.8544 63.0078 23.3235C63.1496 23.7926 63.2206 24.2835 63.2206 24.7962C63.2206 25.3635 63.1715 25.8462 63.0733 26.2444C62.9751 26.6426 62.8442 26.9726 62.6806 27.2344C62.5224 27.4962 62.3396 27.7008 62.1324 27.848C61.9306 28.0008 61.726 28.1126 61.5187 28.1835C61.3169 28.2598 61.1206 28.3062 60.9296 28.3226C60.7387 28.3444 60.5751 28.3553 60.4387 28.3553C60.166 28.3553 59.9069 28.328 59.6615 28.2735C59.416 28.2244 59.1651 28.1508 58.9087 28.0526C58.6578 27.9598 58.396 27.8453 58.1233 27.7089C57.8506 27.5671 57.5533 27.4089 57.2315 27.2344C56.986 27.4962 56.7215 27.6844 56.4378 27.7989C56.1596 27.908 55.8324 27.9626 55.456 27.9626H54.4496L54.4333 25.9253H55.456C55.576 25.9253 55.6796 25.8898 55.7669 25.8189C55.8596 25.748 55.9415 25.6498 56.0124 25.5244C56.0887 25.3935 56.1569 25.238 56.2169 25.058C56.2824 24.8726 56.3478 24.668 56.4133 24.4444C56.5224 24.0517 56.6533 23.648 56.806 23.2335C56.9587 22.8135 57.1606 22.4317 57.4115 22.088C57.6678 21.7444 57.9896 21.4635 58.3769 21.2453C58.7642 21.0217 59.2442 20.9098 59.8169 20.9098Z" fill="white"/>
<path d="M107.923 51.6006C107.885 50.713 107.834 49.6609 107.765 48.5399C107.621 46.2349 107.399 43.6526 107.057 41.6536C107.032 41.4952 106.997 41.3386 106.952 41.1849C106.769 40.5101 106.445 39.8817 106.002 39.341C105.559 38.8003 105.007 38.3595 104.381 38.0478C101.575 36.6494 96.7407 34.8475 93.3511 33.6348L93.6859 36.1961C96.9971 37.3955 100.972 38.9143 103.357 40.1022C103.693 40.2695 103.989 40.5058 104.226 40.7956C104.463 41.0854 104.637 41.4221 104.735 41.7837L104.756 41.8544C104.773 41.9153 104.787 41.9773 104.796 42.04C105.069 43.6506 105.299 45.8867 105.475 48.6796C105.532 49.6245 105.584 50.6403 105.63 51.6905L105.636 51.8626H62.3643L62.3701 51.7C62.4179 50.6135 62.4676 49.6245 62.525 48.6854C62.6412 46.4538 62.8691 44.2296 63.2079 42.0208C63.216 41.9646 63.2282 41.909 63.2442 41.8544L63.2653 41.7837C63.363 41.422 63.5362 41.0851 63.7736 40.7953C64.0111 40.5055 64.3072 40.2693 64.6426 40.1022C67.0279 38.9124 71.0029 37.3936 74.3141 36.1961L74.6489 33.6348C71.2592 34.8475 66.4254 36.6494 63.6191 38.0478C62.9932 38.3592 62.4404 38.7999 61.9973 39.3406C61.5541 39.8814 61.2307 40.51 61.0482 41.1849C61.0031 41.3388 60.9673 41.4953 60.9411 41.6536C60.6006 43.6526 60.3787 46.2349 60.2353 48.5399C60.1664 49.6609 60.1148 50.713 60.0765 51.6006C60.0172 53.1309 60 54.1581 60 54.1581H108C108 54.1581 107.983 53.1309 107.923 51.6006Z" fill="white"/>
<path d="M94.137 14.9393H94.1405C94.137 14.2783 94.1264 13.4063 94.1194 12.4956C94.0983 10.1645 94.0772 7.57666 94.0772 7.57666L91.63 8.00913L89.109 8.45216L84.4678 9.27143C84.4186 9.27847 84.3377 9.29255 84.2076 9.30658L84.1057 9.31714L84.0564 9.31362L84.0107 9.31714L83.9088 9.30658C83.7787 9.29255 83.6943 9.27847 83.6486 9.27143L79.0039 8.45216L76.4828 8.00913L74.0356 7.57666V14.1939C74.0356 14.1939 74.0181 14.5561 74.004 14.978H74.0075C73.9962 15.4599 74.0232 15.942 74.0884 16.4196L75.4315 23.3463C75.8221 25.3512 76.8977 27.158 78.4741 28.457C80.0505 29.756 82.0296 30.4663 84.0723 30.4663C86.1149 30.4663 88.094 29.756 89.6704 28.457C91.2468 27.158 92.3225 25.3512 92.713 23.3463L94.0561 16.4196C94.1213 15.929 94.1484 15.4341 94.137 14.9393ZM92.277 16.1313L90.9409 23.0017C90.6311 24.5965 89.7762 26.0339 88.5227 27.0674C87.2691 28.1008 85.6951 28.666 84.0705 28.666C82.4459 28.666 80.8719 28.1008 79.6183 27.0674C78.3648 26.0339 77.5099 24.5965 77.2001 23.0017L75.8675 16.1313C75.8267 15.8083 75.8067 15.4829 75.8077 15.1573H75.8288C79.2746 15.1573 82.3054 16.6517 84.0459 18.909L84.0564 18.916L84.067 18.909C85.8074 16.6517 88.8418 15.1573 92.2875 15.1573H92.3368C92.336 15.4829 92.3161 15.8081 92.277 16.1313Z" fill="white"/>
<path d="M67.5907 5.01694L72.6327 5.90647L74.5736 6.24756L77.8928 6.83126L81.2401 7.4184L83.9369 7.8931C83.9761 7.90199 84.0162 7.9067 84.0565 7.90714H84.06C84.099 7.90648 84.1379 7.90177 84.176 7.8931L86.8728 7.42192L90.2236 6.83124L93.5358 6.24754L95.4802 5.90645L100.104 5.09074L100.107 11.9893L99.0665 17.9209L99.1404 17.9455C99.3714 18.0295 99.6089 18.0942 99.8506 18.1389C100.089 18.1809 100.33 18.2021 100.571 18.2022C100.924 18.2018 101.275 18.1557 101.616 18.0651C101.746 18.0334 101.876 17.9912 102.006 17.9455L102.08 17.9209L101.039 12.0069V4.51412C101.052 4.46841 101.058 4.42099 101.057 4.37349C101.058 4.30163 101.046 4.23019 101.021 4.16251V4.15902C100.985 4.04929 100.92 3.95133 100.832 3.87529C100.745 3.79925 100.639 3.74789 100.526 3.72653L84.1654 0.850384C84.1307 0.843223 84.0954 0.839692 84.06 0.839849H84.0564C84.0198 0.839695 83.9833 0.843225 83.9474 0.850384L67.5872 3.72652C67.4735 3.74788 67.3676 3.79924 67.2804 3.87528C67.1933 3.95132 67.128 4.04928 67.0914 4.15901V4.16251C67.0684 4.23039 67.0577 4.30184 67.0598 4.37349C67.058 4.52617 67.1103 4.67456 67.2075 4.79234C67.3047 4.91012 67.4404 4.98968 67.5907 5.01694Z" fill="white"/>
<path d="M91.3177 33.5737H88.984C88.5199 34.4102 87.8403 35.107 87.0157 35.5918C86.8465 35.6933 86.6722 35.7859 86.4934 35.8692C85.7109 36.2271 84.8605 36.4124 84 36.4124C83.1395 36.4124 82.2891 36.2271 81.5066 35.8692C81.3278 35.7859 81.1535 35.6933 80.9843 35.5918C80.1593 35.1076 79.4795 34.4106 79.016 33.5737H76.6823L76.3819 35.8692L74.7694 48.2111L83.9991 44.3853L93.2306 48.2111L91.6181 35.8692L91.3177 33.5737Z" fill="white"/>
</svg>
