<svg width="48" height="52" viewBox="0 0 48 52" fill="none" xmlns="http://www.w3.org/2000/svg">
<path d="M16.2389 9.21966H14.7376C14.5823 9.20554 14.4257 9.22277 14.2771 9.27031C14.1249 9.3326 13.9983 9.44461 13.9179 9.58808C13.8767 9.66255 13.8487 9.74356 13.835 9.82755C13.828 9.91645 13.828 10.0057 13.835 10.0946V10.371C13.8463 10.4658 13.8463 10.5616 13.835 10.6565C13.7865 10.8476 13.6661 11.0126 13.4988 11.117C13.4093 11.1732 13.3088 11.2093 13.2041 11.2229C13.0982 11.2229 12.9922 11.2229 12.8863 11.2229H7.42452C7.35282 11.2343 7.27977 11.2343 7.20807 11.2229C7.06175 11.1843 6.9304 11.1027 6.83105 10.9885C6.73169 10.8744 6.66891 10.733 6.65085 10.5828C6.64635 10.5077 6.64635 10.4323 6.65085 10.3571V10.1315C6.66859 9.97645 6.65289 9.81942 6.60479 9.67097C6.55404 9.52854 6.45826 9.40654 6.33195 9.32344C6.20563 9.24034 6.05568 9.20067 5.9048 9.21044H2.44628C2.09689 9.19632 1.74894 9.26293 1.42947 9.40509C1.10999 9.54726 0.827589 9.76116 0.604193 10.0302C0.378088 10.3092 0.22038 10.6372 0.143672 10.9881C0.120646 11.0802 0.111439 11.1677 0.0976237 11.2598V11.49V48.5252C0.0933132 48.7709 0.12433 49.0159 0.189727 49.2528C0.339777 49.752 0.65475 50.1855 1.08314 50.4824C1.51402 50.7773 2.03104 50.92 2.5522 50.8877H16.2021C16.6856 50.8877 17.1738 50.8877 17.6527 50.8877C18.1281 50.8598 18.5826 50.6825 18.9514 50.3811C19.1303 50.2319 19.2856 50.0565 19.4119 49.8607C19.5381 49.6652 19.6358 49.4528 19.702 49.2298C19.7641 49.005 19.792 48.7721 19.7849 48.539V47.839C19.7849 46.918 19.7849 45.9969 19.7849 45.0759C19.7849 37.7904 19.7849 31.228 19.7849 25.734C19.7849 20.2399 19.7849 15.7637 19.7849 12.6828V11.5913C19.7909 11.2764 19.7346 10.9634 19.6191 10.6703C19.5151 10.4161 19.367 10.1822 19.1816 9.97951C19.0314 9.81193 18.8558 9.66896 18.6612 9.55584C18.3987 9.39431 18.1054 9.28923 17.8001 9.24729C17.7219 9.24244 17.6434 9.24244 17.5652 9.24729H16.2481L16.2389 9.21966Z" fill="#757575"/>
<path d="M17.5008 9.24729H17.5791C17.6573 9.24212 17.7357 9.24212 17.8139 9.24729C18.1219 9.28462 18.4185 9.38663 18.6843 9.54663C18.8795 9.66273 19.0564 9.80705 19.2093 9.97491C19.4027 10.1759 19.5586 10.4099 19.6698 10.6657C19.7871 10.9585 19.8465 11.2713 19.8448 11.5867V12.6782C19.8448 15.7591 19.8448 20.2215 19.8448 25.7294V48.5943C19.8504 48.8321 19.8209 49.0696 19.7573 49.2989C19.6938 49.5309 19.5944 49.7516 19.4626 49.9528C19.3277 50.153 19.1649 50.3329 18.979 50.487C18.5991 50.7957 18.1321 50.9776 17.6435 51.0074C17.183 51.0074 16.6764 51.0074 16.1883 51.0074H2.52459C1.99048 51.0345 1.46201 50.8875 1.01869 50.5883C0.576369 50.2834 0.251425 49.8366 0.0976493 49.3219C0.0265053 49.0672 -0.00609592 48.8033 0.00093665 48.539V47.7607C0.00093665 46.7199 0.00093665 45.6884 0.00093665 44.666V38.6194C0.00093665 34.6497 0.00093665 30.8273 0.00093665 27.1846C0.00093665 23.5419 0.00093665 20.0788 0.00093665 16.8367C0.00093665 15.2156 0.00093665 13.6499 0.00093665 12.1486V11.5867C0.00093665 11.4946 0.00093665 11.3979 0.00093665 11.3058C0.00093665 11.2137 0.0285682 11.1216 0.0515943 11.0295C0.134959 10.6696 0.300458 10.3339 0.535143 10.0486C0.771059 9.77387 1.06525 9.55519 1.39632 9.40847C1.72027 9.26933 2.0709 9.20329 2.42328 9.21506H5.8864C6.04945 9.20429 6.21145 9.24803 6.34692 9.33939C6.47654 9.43205 6.57459 9.56226 6.62784 9.71242C6.67323 9.86142 6.68888 10.0179 6.6739 10.1729V10.3986C6.6693 10.4722 6.6693 10.546 6.6739 10.6196C6.69196 10.7624 6.75116 10.8968 6.84429 11.0065C6.93742 11.1143 7.06106 11.1914 7.19889 11.2275C7.2678 11.2344 7.33722 11.2344 7.40613 11.2275H12.8955C13.0015 11.2275 13.1074 11.2275 13.2087 11.2275C13.3101 11.2147 13.4074 11.1802 13.4942 11.1262C13.6569 11.0199 13.7724 10.855 13.8166 10.6657C13.8282 10.5724 13.8282 10.4781 13.8166 10.3848V10.1085C13.8074 10.0181 13.8074 9.92709 13.8166 9.83676C13.8289 9.75031 13.8587 9.66727 13.9041 9.59268C13.9851 9.44417 14.1154 9.32856 14.2725 9.26571C14.4209 9.21741 14.5777 9.20017 14.733 9.21506C14.5777 9.20132 14.4211 9.21853 14.2725 9.26571C14.1216 9.32824 13.9965 9.44032 13.9179 9.58347C13.8767 9.65794 13.8487 9.73895 13.835 9.82294C13.8257 9.91173 13.8257 10.0013 13.835 10.09V10.3664C13.8463 10.4612 13.8463 10.557 13.835 10.6519C13.8155 10.7508 13.7761 10.8447 13.7191 10.9278C13.662 11.011 13.5887 11.0816 13.5034 11.1354C13.414 11.1916 13.3134 11.2277 13.2087 11.2413C13.0982 11.2413 12.9969 11.2413 12.8909 11.2413H7.43836C7.36665 11.2526 7.29362 11.2526 7.22191 11.2413C7.07754 11.2032 6.94773 11.123 6.84889 11.0111C6.75113 10.8939 6.68741 10.7521 6.66469 10.6012C6.66007 10.5261 6.66007 10.4507 6.66469 10.3756V10.1499C6.67744 9.99488 6.66183 9.83883 6.61863 9.68939C6.56815 9.5478 6.47478 9.42545 6.35153 9.33939C6.2249 9.25172 6.07232 9.20951 5.91864 9.21966H2.45552C2.10961 9.20855 1.76544 9.27298 1.44697 9.40847C1.12358 9.5551 0.835999 9.77039 0.604219 10.0394C0.379395 10.3192 0.221838 10.6469 0.143697 10.9973C0.120671 11.0894 0.11607 11.1769 0.0976493 11.269V11.5453V12.1071C0.0976493 13.6084 0.0976493 15.1742 0.0976493 16.7952V48.4976C0.0890667 48.7556 0.120128 49.0134 0.189752 49.262C0.339803 49.7612 0.654775 50.1947 1.08317 50.4916C1.51405 50.7865 2.03107 50.9292 2.55222 50.8969H16.1975C16.6856 50.8969 17.1738 50.8969 17.6481 50.8969C18.125 50.869 18.5809 50.6918 18.9514 50.3903C19.1292 50.2399 19.2843 50.0646 19.4119 49.8699C19.5384 49.6752 19.6346 49.4625 19.6974 49.239C19.7587 49.0139 19.7882 48.7814 19.7849 48.5482V45.0805C19.7849 37.795 19.7849 31.2326 19.7849 25.7386C19.7849 20.2445 19.7849 15.7683 19.7849 12.6874C19.7849 12.3005 19.7849 11.9367 19.7849 11.596C19.7983 10.9984 19.5825 10.4183 19.1817 9.97491C19.0289 9.80818 18.8519 9.66536 18.6567 9.55123C18.3945 9.38897 18.1011 9.28383 17.7955 9.24269C17.7173 9.23752 17.6388 9.23752 17.5606 9.24269L17.5008 9.24729Z" fill="#2B2D42"/>
<path d="M17.9613 12.9914C17.9613 12.9914 17.5791 13.0144 17.1094 13.019C16.6396 13.0236 16.2528 13.019 16.2528 13.019C16.2528 13.019 16.635 13.019 17.1094 12.996C17.5837 12.9729 17.9613 12.9821 17.9613 12.9914Z" fill="#2B2D42"/>
<path d="M17.9613 13.4288C17.9613 13.4288 17.5791 13.4518 17.1094 13.4564C16.6396 13.461 16.2528 13.4564 16.2528 13.4564C16.2528 13.4564 16.635 13.4564 17.1094 13.4564C17.5837 13.4564 17.9613 13.4196 17.9613 13.4288Z" fill="#2B2D42"/>
<path d="M17.9613 13.8663C17.9613 13.8663 17.5791 13.8663 17.1048 13.8663C16.6304 13.8663 16.2528 13.8663 16.2528 13.8663C16.2528 13.8663 16.635 13.8663 17.1048 13.8433C17.5745 13.8203 17.9613 13.8571 17.9613 13.8663Z" fill="#2B2D42"/>
<path d="M2.40485 14.3637H2.53839H2.90221C2.90221 14.2854 2.90221 14.1979 2.90221 14.1012C2.90221 14.0045 2.90221 14.0045 2.90221 13.9492C2.90812 13.9198 2.92344 13.8931 2.94588 13.8731C2.96831 13.8532 2.99663 13.8411 3.02655 13.8387H3.19694C3.23112 13.8433 3.26235 13.8604 3.2845 13.8868C3.30665 13.9133 3.31813 13.947 3.31668 13.9814C3.31668 14.1058 3.31668 14.2347 3.31668 14.3683H3.7772V13.6499C3.77545 13.6278 3.76875 13.6064 3.75759 13.5872C3.74642 13.5681 3.73109 13.5517 3.71273 13.5394L3.51471 13.3413L3.32129 13.1525L3.22457 13.0558C3.19234 13.0282 3.16931 12.9959 3.12786 12.9867C3.0954 12.9734 3.05901 12.9734 3.02655 12.9867C2.99512 13.0135 2.96587 13.0428 2.93905 13.0742L2.77326 13.24C2.67195 13.3459 2.56142 13.4472 2.48313 13.5394C2.45947 13.5928 2.45148 13.6519 2.46011 13.7097V14.3591C2.46011 14.3591 2.46011 14.3591 2.46011 14.3038C2.46011 14.2485 2.46011 14.2071 2.46011 14.1426C2.46011 14.0782 2.46011 13.9768 2.46011 13.8755C2.46011 13.7742 2.46011 13.7696 2.46011 13.7143V13.6222C2.45171 13.5906 2.45171 13.5572 2.46011 13.5255C2.54761 13.4196 2.64892 13.3275 2.75024 13.217L2.91603 13.0512L3.00353 12.9637C3.0221 12.949 3.04384 12.9389 3.06703 12.9341C3.09022 12.9293 3.1142 12.93 3.13707 12.9361C3.1812 12.95 3.21986 12.9773 3.2476 13.0144L3.34431 13.1065L3.53773 13.2999L3.74036 13.4979C3.76053 13.513 3.77771 13.5318 3.79101 13.5532C3.79764 13.5788 3.79764 13.6058 3.79101 13.6315V13.7742C3.79101 13.9722 3.79101 14.1657 3.79101 14.3499H3.29826V13.9492C3.29847 13.9221 3.28874 13.8959 3.27092 13.8756C3.25309 13.8552 3.2284 13.8421 3.20155 13.8387C3.15089 13.8387 3.08642 13.8387 3.03576 13.8387C3.01219 13.8404 2.98986 13.8499 2.97234 13.8658C2.95482 13.8816 2.9431 13.9029 2.93905 13.9262C2.93905 13.9722 2.93905 14.0275 2.93905 14.0736V14.3499H2.47853C2.47853 14.3499 2.40485 14.3683 2.40485 14.3637Z" fill="white"/>
<path d="M13.9923 23.5965C14.3331 21.4899 12.9017 19.506 10.7952 19.1652C8.68871 18.8244 6.70477 20.2558 6.36397 22.3623C6.02316 24.4688 7.45455 26.4528 9.56107 26.7936C11.6676 27.1344 13.6515 25.703 13.9923 23.5965Z" fill="white"/>
<path d="M11.514 24.5458H8.86597V24.2188C8.86597 23.8671 9.0057 23.5297 9.25443 23.281C9.50316 23.0323 9.84051 22.8925 10.1923 22.8925C10.3662 22.8925 10.5385 22.9269 10.6991 22.9936C10.8598 23.0603 11.0057 23.158 11.1285 23.2813C11.2513 23.4045 11.3485 23.5507 11.4147 23.7116C11.4808 23.8725 11.5146 24.0449 11.514 24.2188V24.5458Z" fill="#757575"/>
<path d="M10.1831 22.9893C10.613 22.9893 10.9614 22.6408 10.9614 22.211C10.9614 21.7812 10.613 21.4327 10.1831 21.4327C9.7533 21.4327 9.40485 21.7812 9.40485 22.211C9.40485 22.6408 9.7533 22.9893 10.1831 22.9893Z" fill="#757575"/>
<path d="M16.3173 31.2787H3.2937V33.9405H16.3173V31.2787Z" fill="white"/>
<path d="M16.3173 35.1378H3.2937V37.7996H16.3173V35.1378Z" fill="white"/>
<path d="M13.1903 43.068H6.65091C6.29794 43.068 5.95941 42.9278 5.70982 42.6782C5.46022 42.4286 5.32001 42.09 5.32001 41.7371C5.32123 41.3849 5.46198 41.0476 5.71145 40.799C5.96091 40.5504 6.29873 40.4108 6.65091 40.4108H13.1903C13.5421 40.4108 13.8794 40.5505 14.1282 40.7992C14.3769 41.048 14.5166 41.3853 14.5166 41.7371C14.5172 41.9116 14.4834 42.0846 14.417 42.246C14.3506 42.4075 14.253 42.5542 14.1298 42.6779C14.0066 42.8015 13.8602 42.8996 13.6989 42.9666C13.5377 43.0335 13.3649 43.068 13.1903 43.068Z" fill="#757575"/>
<path d="M14.0008 29.6714C12.6428 29.7928 11.2788 29.8328 9.91597 29.7912C8.55166 29.8327 7.18608 29.7927 5.82654 29.6714C7.18625 29.5529 8.55166 29.513 9.91597 29.5517C11.2788 29.5129 12.6426 29.5529 14.0008 29.6714Z" fill="#E9E9E9"/>
<path d="M5.09433 33.1898H4.51867C4.4918 33.1898 4.46603 33.1791 4.44703 33.1601C4.42803 33.1411 4.41736 33.1154 4.41736 33.0885C4.41736 32.9871 4.45763 32.8899 4.52931 32.8182C4.601 32.7465 4.69822 32.7063 4.79959 32.7063C4.90097 32.7063 4.99819 32.7465 5.06987 32.8182C5.14155 32.8899 5.18183 32.9871 5.18183 33.0885C5.18206 33.1131 5.1733 33.137 5.1572 33.1557C5.14109 33.1743 5.11874 33.1865 5.09433 33.1898Z" fill="#757575"/>
<path d="M4.80417 32.7339C4.93134 32.7339 5.03444 32.6308 5.03444 32.5036C5.03444 32.3765 4.93134 32.2734 4.80417 32.2734C4.677 32.2734 4.57391 32.3765 4.57391 32.5036C4.57391 32.6308 4.677 32.7339 4.80417 32.7339Z" fill="#757575"/>
<path d="M5.14955 36.5102H4.46338V36.9937H5.14955V36.5102Z" fill="#757575"/>
<path d="M5.22787 36.6207H4.99761V36.4733C5.00195 36.4451 5.00013 36.4163 4.99229 36.3888C4.98445 36.3614 4.97077 36.3359 4.95218 36.3143C4.93359 36.2926 4.91053 36.2752 4.88458 36.2633C4.85864 36.2514 4.83043 36.2452 4.80188 36.2452C4.77333 36.2452 4.74512 36.2514 4.71918 36.2633C4.69323 36.2752 4.67018 36.2926 4.65159 36.3143C4.633 36.3359 4.61931 36.3614 4.61147 36.3888C4.60363 36.4163 4.60182 36.4451 4.60616 36.4733V36.6207H4.3759V36.4733C4.36969 36.4136 4.37608 36.3533 4.39465 36.2963C4.41323 36.2393 4.44358 36.1868 4.48374 36.1422C4.5239 36.0977 4.57297 36.062 4.62777 36.0377C4.68258 36.0133 4.7419 36.0007 4.80188 36.0007C4.86187 36.0007 4.92118 36.0133 4.97598 36.0377C5.03079 36.062 5.07986 36.0977 5.12002 36.1422C5.16018 36.1868 5.19053 36.2393 5.2091 36.2963C5.22768 36.3533 5.23408 36.4136 5.22787 36.4733V36.6207Z" fill="#757575"/>
<path d="M11.514 8.26637C11.514 8.37476 11.4819 8.48071 11.4217 8.57083C11.3614 8.66096 11.2758 8.7312 11.1757 8.77268C11.0756 8.81416 10.9654 8.82501 10.8591 8.80386C10.7528 8.78272 10.6551 8.73052 10.5785 8.65388C10.5018 8.57724 10.4496 8.47959 10.4285 8.37328C10.4074 8.26698 10.4182 8.15679 10.4597 8.05665C10.5012 7.95652 10.5714 7.87093 10.6615 7.81071C10.7516 7.75049 10.8576 7.71835 10.966 7.71835C11.1113 7.71835 11.2507 7.77609 11.3535 7.87886C11.4563 7.98164 11.514 8.12102 11.514 8.26637Z" fill="#757575"/>
<path d="M38.4425 8.26639C38.4425 8.37478 38.4104 8.48073 38.3502 8.57085C38.29 8.66098 38.2044 8.73122 38.1042 8.7727C38.0041 8.81418 37.8939 8.82503 37.7876 8.80388C37.6813 8.78274 37.5837 8.73054 37.507 8.6539C37.4304 8.57726 37.3782 8.47961 37.357 8.3733C37.3359 8.267 37.3467 8.15681 37.3882 8.05667C37.4297 7.95654 37.4999 7.87095 37.5901 7.81073C37.6802 7.75051 37.7861 7.71837 37.8945 7.71837C37.9667 7.71776 38.0382 7.73151 38.105 7.75883C38.1717 7.78616 38.2324 7.8265 38.2834 7.87751C38.3344 7.92852 38.3747 7.98918 38.4021 8.05595C38.4294 8.12272 38.4431 8.19425 38.4425 8.26639Z" fill="#757575"/>
<path d="M37.8824 8C37.8782 7.95562 37.8782 7.91068 37.8824 7.8663V7.48301C37.8824 7.13092 37.8824 6.64067 37.8661 6.01226C37.8497 5.38385 37.8661 4.59053 37.8661 3.6858C37.8661 3.24011 37.8661 2.74095 37.8661 2.23733C37.8324 1.67854 37.6455 1.15762 37.3428 0.778455C37.04 0.399293 36.6437 0.189759 36.2327 0.191647H34.8084H31.6659L24.4334 0.231757H17.2303H14.0845H12.6733C12.2455 0.23657 11.8361 0.470214 11.5332 0.882456C11.2598 1.24356 11.0856 1.7219 11.0399 2.23733C11.0399 2.74095 11.0399 3.23566 11.0399 3.6858C11.0399 4.57716 11.0399 5.37048 11.0399 6.01226C11.0399 6.65404 11.0399 7.13092 11.0236 7.48301V7.8663C11.0285 7.91062 11.0285 7.95569 11.0236 8C11.0194 7.95562 11.0194 7.91068 11.0236 7.8663V7.48301C11.0236 7.13092 11.0236 6.64067 11.0073 6.01226C10.9909 5.38385 11.0073 4.59053 11.0073 3.6858C11.0073 3.24011 11.0073 2.75432 11.0073 2.22841C11.039 1.63027 11.2336 1.06995 11.5527 0.657595C11.8719 0.24524 12.2926 0.0106739 12.7321 0H14.1564H17.3022H24.5053H31.7083H34.8509H36.2785C36.7178 0.00974527 37.1385 0.244128 37.4573 0.656779C37.7761 1.06943 37.9698 1.63029 38 2.22841C38 2.75877 38 3.23565 38 3.69025C38 4.58162 38 5.37493 37.9837 6.01671C37.9673 6.6585 37.9837 7.13538 37.9837 7.48747V7.87076C37.956 7.92197 37.9217 7.96578 37.8824 8Z" fill="#757575"/>
<path d="M44.4254 9.26569H42.9241C42.7691 9.24736 42.6119 9.26307 42.4636 9.31174C42.3439 9.35601 42.238 9.43141 42.1571 9.53016C42.0762 9.62891 42.023 9.74745 42.0031 9.87357C41.9961 9.96093 41.9961 10.0487 42.0031 10.1361V10.4124C42.01 10.509 42.01 10.6059 42.0031 10.7025C41.9587 10.9015 41.838 11.0751 41.6669 11.1861C41.5781 11.2428 41.4771 11.2775 41.3722 11.2874C41.2662 11.2874 41.1603 11.2874 41.0544 11.2874H35.5926C35.5183 11.2887 35.4441 11.2809 35.3716 11.2644C35.2264 11.228 35.0961 11.1476 34.9985 11.0341C34.9003 10.9177 34.8379 10.7753 34.819 10.6242C34.8121 10.5492 34.8121 10.4736 34.819 10.3986V10.1729C34.8337 10.0179 34.8181 9.86145 34.7729 9.7124C34.7214 9.57138 34.6282 9.44932 34.5058 9.36239C34.3792 9.27472 34.2266 9.23252 34.0729 9.24266H30.619C30.2699 9.23062 29.9226 9.29816 29.6035 9.44018C29.2843 9.5822 29.0017 9.79498 28.7769 10.0624C28.5513 10.3435 28.3937 10.6729 28.3164 11.0249C28.3164 11.1124 28.2888 11.2045 28.2703 11.292C28.2519 11.3795 28.2703 11.4486 28.2703 11.5222V48.5942C28.2637 48.8401 28.2948 49.0854 28.3624 49.3219C28.5116 49.8227 28.8266 50.258 29.2558 50.5561C29.6886 50.8469 30.2042 50.9891 30.7249 50.9613H44.3425C44.8261 50.9613 45.3142 50.9613 45.7932 50.9613C46.2754 50.9305 46.7352 50.7465 47.1057 50.4363C47.2825 50.285 47.4375 50.1098 47.5662 49.9159C47.8198 49.5208 47.9497 49.059 47.9392 48.5896V45.1403C47.9392 37.8549 47.9392 31.2924 47.9392 25.7984C47.9392 20.3044 47.9392 15.8281 47.9392 12.7426V11.6512C47.9552 11.0546 47.7389 10.475 47.3359 10.0348C47.1842 9.86565 47.0071 9.72116 46.8109 9.60647C46.55 9.44252 46.2558 9.33869 45.9498 9.30252C45.8738 9.28806 45.7968 9.28036 45.7195 9.2795H44.4024L44.4254 9.26569Z" fill="#757575"/>
<path d="M45.6781 9.24729H45.7564C45.8346 9.24229 45.913 9.24229 45.9912 9.24729C46.2979 9.28416 46.5931 9.38623 46.857 9.54663C47.0546 9.66118 47.2332 9.80565 47.3866 9.97491C47.7963 10.4172 48.0162 11.0025 47.9991 11.6052C47.9991 11.9459 47.9991 12.3098 47.9991 12.6966C47.9991 15.7775 47.9991 20.2399 47.9991 25.7478C47.9991 31.2556 47.9991 37.8227 47.9991 45.0897V48.5943C48.0024 48.832 47.9729 49.0691 47.9116 49.2989C47.8458 49.5301 47.7465 49.7504 47.6169 49.9528C47.4806 50.152 47.318 50.3317 47.1333 50.487C46.7529 50.7948 46.2862 50.9767 45.7978 51.0074C45.3143 51.0074 44.8307 51.0074 44.3426 51.0074H30.7065C30.1725 51.0339 29.6442 50.8868 29.2006 50.5883C28.7593 50.2824 28.4347 49.836 28.2796 49.3219C28.2061 49.0677 28.1735 48.8034 28.1828 48.539V44.666C28.1828 42.6182 28.1828 40.6027 28.1828 38.6194C28.1828 34.6497 28.1828 30.8273 28.1828 27.1846C28.1828 23.5419 28.1828 20.0788 28.1828 16.8367V11.5867V11.3058C28.1828 11.2137 28.1828 11.1216 28.2335 11.0295C28.3149 10.6689 28.4806 10.3328 28.7171 10.0486C28.9471 9.77452 29.2369 9.55685 29.5642 9.41235C29.8916 9.26784 30.2477 9.20035 30.6052 9.21506H34.0683C34.2314 9.20429 34.3934 9.24803 34.5288 9.33939C34.6585 9.43205 34.7565 9.56226 34.8097 9.71242C34.8551 9.86143 34.8708 10.0179 34.8558 10.1729V10.3986C34.8512 10.4722 34.8512 10.546 34.8558 10.6196C34.8739 10.7624 34.9331 10.8968 35.0262 11.0065C35.1193 11.1143 35.243 11.1914 35.3808 11.2275C35.4497 11.2344 35.5191 11.2344 35.588 11.2275H41.0314C41.1373 11.2275 41.2478 11.2275 41.3492 11.2275C41.4492 11.2154 41.5453 11.1808 41.6301 11.1262C41.7952 11.0215 41.9126 10.8561 41.9571 10.6657C41.9663 10.5723 41.9663 10.4782 41.9571 10.3848V10.1085C41.9502 10.018 41.9502 9.92719 41.9571 9.83676C41.9737 9.75143 42.0032 9.66913 42.0446 9.59268C42.1274 9.44385 42.2592 9.32832 42.4176 9.26571C42.5659 9.21702 42.7227 9.19977 42.8781 9.21506C42.7227 9.20094 42.5661 9.21817 42.4176 9.26571C42.2667 9.32825 42.1416 9.44032 42.063 9.58347C42.0223 9.65862 41.9928 9.73929 41.9755 9.82294C41.9685 9.91184 41.9685 10.0011 41.9755 10.09V10.3664C41.9868 10.4612 41.9868 10.557 41.9755 10.6519C41.9549 10.751 41.9146 10.8449 41.8568 10.928C41.799 11.0111 41.725 11.0817 41.6393 11.1354C41.5498 11.1916 41.4493 11.2277 41.3446 11.2413C41.2386 11.2413 41.1373 11.2413 41.0268 11.2413H35.6249C35.5532 11.2527 35.4801 11.2527 35.4084 11.2413C35.2621 11.2028 35.1308 11.1211 35.0314 11.007C34.9321 10.8928 34.8693 10.7515 34.8512 10.6012C34.8512 10.5229 34.8512 10.4492 34.8512 10.3756V10.1499C34.8679 9.99518 34.8538 9.83866 34.8097 9.68939C34.7589 9.5467 34.6637 9.42405 34.538 9.33939C34.413 9.25206 34.262 9.20984 34.1098 9.21966H30.6466C30.2975 9.20762 29.9502 9.27516 29.6311 9.41718C29.312 9.5592 29.0293 9.77197 28.8046 10.0394C28.5785 10.3184 28.4207 10.6464 28.344 10.9973C28.321 11.0894 28.3118 11.1769 28.298 11.269V11.5453V16.8183C28.298 20.0419 28.298 23.5189 28.298 27.1662V38.6009C28.298 40.5812 28.298 42.5967 28.298 44.6476V48.5206C28.2909 48.7788 28.3235 49.0367 28.3947 49.285C28.5435 49.7835 28.8568 50.217 29.2835 50.5146C29.7145 50.8093 30.2314 50.9518 30.7526 50.9199H44.3426C44.8307 50.9199 45.3143 50.9199 45.7932 50.9199C46.2708 50.9015 46.7303 50.7322 47.1057 50.4363C47.2858 50.2884 47.4412 50.1127 47.5662 49.916C47.696 49.7225 47.794 49.5095 47.8563 49.285C47.9176 49.06 47.9471 48.8275 47.9438 48.5943V45.1265C47.9438 37.8411 47.9438 31.2786 47.9438 25.7846C47.9438 20.2906 47.9438 15.8143 47.9438 12.7334V11.642C47.9498 11.3271 47.8935 11.014 47.778 10.721C47.6757 10.4659 47.5274 10.2317 47.3406 10.0302C47.1903 9.86259 47.0147 9.71962 46.8202 9.6065C46.5576 9.44497 46.2644 9.33989 45.959 9.29795C45.8808 9.29295 45.8023 9.29295 45.7241 9.29795L45.6781 9.24729Z" fill="#2B2D42"/>
<path d="M46.1247 12.9914C46.1247 12.9914 45.7425 13.0144 45.2728 13.019C44.803 13.0236 44.4162 13.019 44.4162 13.019C44.4162 13.019 44.7984 13.019 45.2728 12.996C45.7471 12.9729 46.1247 12.9821 46.1247 12.9914Z" fill="white"/>
<path d="M46.1294 13.4288C46.1294 13.4288 45.7471 13.4518 45.2728 13.4564C44.7985 13.461 44.4208 13.4564 44.4208 13.4564C44.4208 13.4564 44.8031 13.4564 45.2728 13.4564C45.7425 13.4564 46.1294 13.4196 46.1294 13.4288Z" fill="#2B2D42"/>
<path d="M46.1339 13.8663C46.1339 13.8663 45.7517 13.8663 45.2773 13.8663C44.803 13.8663 44.4254 13.8663 44.4254 13.8663C44.4254 13.8663 44.8076 13.8663 45.2773 13.8433C45.7471 13.8203 46.1339 13.8571 46.1339 13.8663Z" fill="white"/>
<path d="M39.8893 16.7584C39.8893 17.0635 39.7988 17.3618 39.6293 17.6155C39.4597 17.8692 39.2188 18.067 38.9369 18.1837C38.655 18.3005 38.3448 18.331 38.0455 18.2715C37.7463 18.212 37.4714 18.0651 37.2556 17.8493C37.0399 17.6335 36.8929 17.3587 36.8334 17.0594C36.7739 16.7601 36.8044 16.4499 36.9212 16.168C37.038 15.8861 37.2357 15.6452 37.4894 15.4757C37.7431 15.3061 38.0414 15.2157 38.3465 15.2157C38.7557 15.2157 39.1481 15.3782 39.4374 15.6675C39.7267 15.9568 39.8893 16.3492 39.8893 16.7584Z" fill="white"/>
<path d="M38.8761 17.3801H37.8169V17.2511C37.8169 17.1107 37.8727 16.976 37.972 16.8766C38.0713 16.7773 38.206 16.7215 38.3465 16.7215C38.4162 16.7209 38.4854 16.7342 38.5499 16.7606C38.6144 16.787 38.6731 16.826 38.7224 16.8753C38.7717 16.9246 38.8106 16.9832 38.837 17.0477C38.8634 17.1123 38.8767 17.1814 38.8761 17.2511V17.3801Z" fill="#757575"/>
<path d="M38.6597 16.4452C38.6606 16.5073 38.643 16.5683 38.6091 16.6204C38.5753 16.6725 38.5267 16.7134 38.4696 16.7378C38.4124 16.7622 38.3493 16.7691 38.2883 16.7575C38.2272 16.7459 38.171 16.7165 38.1267 16.6729C38.0825 16.6293 38.0522 16.5735 38.0398 16.5126C38.0273 16.4518 38.0332 16.3886 38.0568 16.3311C38.0803 16.2736 38.1205 16.2244 38.1721 16.1898C38.2236 16.1552 38.2844 16.1367 38.3465 16.1367C38.3874 16.1361 38.428 16.1436 38.466 16.1588C38.504 16.174 38.5385 16.1967 38.5677 16.2254C38.5968 16.2541 38.6199 16.2883 38.6357 16.3261C38.6515 16.3638 38.6597 16.4043 38.6597 16.4452Z" fill="#757575"/>
<path d="M29.7683 24.897L29.7386 30.2022L36.7937 30.2416L36.8234 24.9364L29.7683 24.897Z" fill="white"/>
<path d="M29.7348 30.201L32.217 26.9175L33.7321 28.9852L34.7729 27.8892L36.79 30.2378L29.7348 30.201Z" fill="#757575"/>
<path d="M34.3952 26.5261C34.3943 26.6363 34.3607 26.7437 34.2987 26.8348C34.2368 26.926 34.1491 26.9967 34.047 27.038C33.9448 27.0793 33.8327 27.0894 33.7248 27.067C33.6169 27.0446 33.518 26.9908 33.4407 26.9122C33.3634 26.8336 33.3112 26.7339 33.2906 26.6256C33.27 26.5174 33.282 26.4054 33.325 26.3039C33.368 26.2025 33.4401 26.1161 33.5322 26.0556C33.6244 25.9951 33.7324 25.9633 33.8426 25.9642C33.99 25.9666 34.1305 26.0269 34.2339 26.132C34.3373 26.2371 34.3952 26.3786 34.3952 26.5261Z" fill="#757575"/>
<g opacity="0.2">
<path d="M29.7348 30.201L32.217 26.9175L33.7321 28.9852L34.7729 27.8892L36.79 30.2378L29.7348 30.201Z" fill="#E9E9E9"/>
</g>
<g opacity="0.2">
<path d="M34.3952 26.5261C34.3943 26.6363 34.3607 26.7437 34.2987 26.8348C34.2368 26.926 34.1491 26.9967 34.047 27.038C33.9448 27.0793 33.8327 27.0894 33.7248 27.067C33.6169 27.0446 33.518 26.9908 33.4407 26.9122C33.3634 26.8336 33.3112 26.7339 33.2906 26.6256C33.27 26.5174 33.282 26.4054 33.325 26.3039C33.368 26.2025 33.4401 26.1161 33.5322 26.0556C33.6244 25.9951 33.7324 25.9633 33.8426 25.9642C33.99 25.9666 34.1305 26.0269 34.2339 26.132C34.3373 26.2371 34.3952 26.3786 34.3952 26.5261Z" fill="#E9E9E9"/>
</g>
<path d="M29.7395 31.8375L29.671 44.0964L45.9824 44.1875L46.0509 31.9286L29.7395 31.8375Z" fill="white"/>
<path d="M29.6703 44.0949L35.4084 36.5056L38.9129 41.295L41.3215 38.7575L45.982 44.1871L29.6703 44.0949Z" fill="#757575"/>
<path d="M40.4418 35.5984C40.4409 35.8527 40.3646 36.101 40.2224 36.3119C40.0803 36.5228 39.8787 36.6867 39.6433 36.783C39.408 36.8792 39.1493 36.9035 38.9001 36.8526C38.6509 36.8018 38.4224 36.6781 38.2436 36.4973C38.0647 36.3166 37.9435 36.0867 37.8954 35.837C37.8472 35.5873 37.8742 35.3289 37.973 35.0946C38.0718 34.8603 38.238 34.6605 38.4504 34.5206C38.6628 34.3808 38.9119 34.3071 39.1662 34.3089C39.5062 34.3113 39.8313 34.4484 40.0704 34.6901C40.3095 34.9318 40.4431 35.2584 40.4418 35.5984Z" fill="#757575"/>
<g opacity="0.2">
<path d="M29.6703 44.0949L35.4084 36.5056L38.9129 41.295L41.3215 38.7575L45.982 44.1871L29.6703 44.0949Z" fill="#E9E9E9"/>
</g>
<g opacity="0.2">
<path d="M40.4418 35.5984C40.4409 35.8527 40.3646 36.101 40.2224 36.3119C40.0803 36.5228 39.8787 36.6867 39.6433 36.783C39.408 36.8792 39.1493 36.9035 38.9001 36.8526C38.6509 36.8018 38.4224 36.6781 38.2436 36.4973C38.0647 36.3166 37.9435 36.0867 37.8954 35.837C37.8472 35.5873 37.8742 35.3289 37.973 35.0946C38.0718 34.8603 38.238 34.6605 38.4504 34.5206C38.6628 34.3808 38.9119 34.3071 39.1662 34.3089C39.5062 34.3113 39.8313 34.4484 40.0704 34.6901C40.3095 34.9318 40.4431 35.2584 40.4418 35.5984Z" fill="#E9E9E9"/>
</g>
<path d="M39.0814 24.8971L39.0518 30.2023L46.1069 30.2417L46.1365 24.9366L39.0814 24.8971Z" fill="white"/>
<path d="M39.0511 30.201L41.5334 26.9175L43.0485 28.9852L44.0893 27.8892L46.1063 30.2378L39.0511 30.201Z" fill="#757575"/>
<path d="M43.7116 26.5261C43.7107 26.6363 43.6771 26.7437 43.6151 26.8348C43.5531 26.926 43.4655 26.9967 43.3634 27.038C43.2612 27.0793 43.1491 27.0894 43.0412 27.067C42.9333 27.0446 42.8344 26.9908 42.7571 26.9122C42.6799 26.8336 42.6276 26.7339 42.607 26.6256C42.5864 26.5174 42.5983 26.4054 42.6414 26.3039C42.6844 26.2025 42.7565 26.1161 42.8486 26.0556C42.9408 25.9951 43.0488 25.9633 43.159 25.9642C43.3064 25.9666 43.4469 26.0269 43.5503 26.132C43.6537 26.2371 43.7116 26.3786 43.7116 26.5261Z" fill="#757575"/>
<g opacity="0.2">
<path d="M39.0511 30.201L41.5334 26.9175L43.0485 28.9852L44.0893 27.8892L46.1063 30.2378L39.0511 30.201Z" fill="#E9E9E9"/>
</g>
<g opacity="0.2">
<path d="M43.7116 26.5261C43.7107 26.6363 43.6771 26.7437 43.6151 26.8348C43.5531 26.926 43.4655 26.9967 43.3634 27.038C43.2612 27.0793 43.1491 27.0894 43.0412 27.067C42.9333 27.0446 42.8344 26.9908 42.7571 26.9122C42.6799 26.8336 42.6276 26.7339 42.607 26.6256C42.5864 26.5174 42.5983 26.4054 42.6414 26.3039C42.6844 26.2025 42.7565 26.1161 42.8486 26.0556C42.9408 25.9951 43.0488 25.9633 43.159 25.9642C43.3064 25.9666 43.4469 26.0269 43.5503 26.132C43.6537 26.2371 43.7116 26.3786 43.7116 26.5261Z" fill="#E9E9E9"/>
</g>
<path d="M8.7509 8.81439C9.05357 8.81439 9.29892 8.56903 9.29892 8.26637C9.29892 7.9637 9.05357 7.71835 8.7509 7.71835C8.44824 7.71835 8.20288 7.9637 8.20288 8.26637C8.20288 8.56903 8.44824 8.81439 8.7509 8.81439Z" fill="#757575"/>
</svg>
