<svg width="47" height="56" viewBox="0 0 47 56" fill="none" xmlns="http://www.w3.org/2000/svg">
<path d="M37.3926 10.6829L23.1838 5.58279L9.11769 10.6199C7.32113 11.4594 5.75962 11.9757 5.75962 13.6464V21.9744C5.72876 27.8228 7.32763 33.5642 10.377 38.5548C13.4242 43.5979 17.9415 47.5879 23.3223 49.9891C29.073 48.1211 33.3672 43.1386 35.9906 38.8822C39.0474 33.8938 40.6535 28.1522 40.629 22.3018V14.8091C40.629 12.4207 39.3613 11.2579 37.3926 10.6829Z" fill="#757575"/>
<g opacity="0.3">
<path d="M23.3223 45.1534C19.0595 43.2283 15.4861 40.0474 13.0802 36.0363C10.6649 32.0871 9.39608 27.5438 9.41572 22.9146V17.0716C9.41572 15.7493 10.2133 14.5069 11.7999 13.7681L23.188 9.51174V5.58279L9.12189 10.6199C7.64434 11.2621 5.76382 11.9757 5.76382 13.6464V21.9744C5.73295 27.8228 7.33182 33.5642 10.3812 38.5548C13.4284 43.5979 17.9457 47.5879 23.3265 49.9891L23.3223 45.1534Z" fill="#757575"/>
</g>
<g opacity="0.4">
<path d="M23.3223 49.9891C24.2862 49.6733 25.2203 49.273 26.1137 48.7927C28.3052 47.5501 30.2963 45.9836 32.0197 44.146C33.5859 42.4608 34.9639 40.6099 36.1292 38.6262C39.2265 33.6031 40.7903 27.7852 40.629 21.8862V15.0064C40.629 11.5811 38.8618 11.3293 37.3842 10.6829L23.1838 5.58279V9.51174L34.7104 13.8311C36.2971 14.574 37.0946 15.8123 37.0946 17.1387V22.9818C37.1142 27.6102 35.8438 32.1525 33.4259 36.0992C31.0752 40.0884 27.5452 43.2503 23.3223 45.1492V49.9891Z" fill="#757575"/>
</g>
<path d="M26.9532 22.541V21.4161C26.921 20.4596 26.5183 19.5531 25.8303 18.8879C25.1423 18.2227 24.2227 17.8508 23.2657 17.8508C22.3086 17.8508 21.3891 18.2227 20.701 18.8879C20.013 19.5531 19.6103 20.4596 19.5781 21.4161V22.562C19.0885 22.6344 18.6413 22.8802 18.3177 23.2546C17.9942 23.629 17.8158 24.1072 17.8151 24.602V31.2342C17.8162 31.7812 18.0343 32.3054 18.4215 32.6918C18.8086 33.0782 19.3333 33.2952 19.8803 33.2952H26.7643C27.0353 33.2958 27.3038 33.2429 27.5543 33.1396C27.8049 33.0362 28.0326 32.8845 28.2244 32.6931C28.4162 32.5016 28.5684 32.2742 28.6723 32.0239C28.7761 31.7736 28.8296 31.5052 28.8296 31.2342V24.602C28.8307 24.0862 28.6387 23.5887 28.2915 23.2073C27.9443 22.8259 27.4669 22.5882 26.9532 22.541ZM24.2668 29.5762H22.466L22.7473 28.2791C22.5485 28.1509 22.3966 27.9618 22.3142 27.74C22.2318 27.5183 22.2235 27.2758 22.2903 27.0489C22.3571 26.822 22.4956 26.6229 22.6851 26.4812C22.8745 26.3395 23.1047 26.263 23.3412 26.263C23.5778 26.263 23.8079 26.3395 23.9974 26.4812C24.1868 26.6229 24.3253 26.822 24.3921 27.0489C24.459 27.2758 24.4506 27.5183 24.3682 27.74C24.2859 27.9618 24.1339 28.1509 23.9352 28.2791L24.2668 29.5762ZM26.1599 22.5326H20.3714V21.4161C20.3999 20.6675 20.7173 19.9592 21.257 19.4397C21.7966 18.9202 22.5166 18.63 23.2657 18.63C24.0147 18.63 24.7347 18.9202 25.2743 19.4397C25.814 19.9592 26.1314 20.6675 26.1599 21.4161V22.5326Z" fill="white"/>
<path d="M11.716 22.4613C11.5961 22.0873 11.5255 21.6992 11.5061 21.3069C11.3974 20.3681 11.3581 19.4224 11.3886 18.4778C11.3886 17.9237 11.4431 17.399 11.4935 16.9205C11.5126 16.4838 11.6196 16.0555 11.8083 15.6612C11.9449 15.3929 12.1622 15.1742 12.4296 15.0358C12.6227 14.9434 12.7444 14.9476 12.7444 14.9644C12.4018 15.1232 12.1266 15.3983 11.9678 15.741C11.8133 16.1214 11.7294 16.5268 11.7202 16.9373C11.6824 17.4116 11.653 17.9321 11.6362 18.482C11.6069 19.5775 11.6362 20.5808 11.6782 21.286C11.7242 21.6759 11.7369 22.0691 11.716 22.4613Z" fill="white"/>
<path d="M11.9343 26.088C11.8671 26.088 11.8041 25.748 11.7957 25.324C11.7874 24.9001 11.8377 24.5559 11.9049 24.5517C11.972 24.5475 12.035 24.8959 12.0434 25.3198C12.0518 25.7438 11.993 26.088 11.9343 26.088Z" fill="white"/>
<path d="M42.2157 6.46848C42.5997 6.56029 42.9759 6.6824 43.3406 6.83367C43.7865 7.01166 44.2093 7.24279 44.5999 7.52207C45.152 7.89902 45.6089 8.39909 45.9347 8.98283C46.3273 9.72443 46.5374 10.549 46.5476 11.3881C46.5476 12.3031 46.5476 13.2938 46.5476 14.3641C46.5476 16.5007 46.5685 18.9437 46.5476 21.6679C46.5083 24.6617 46.1224 27.6409 45.3974 30.5458C44.5462 33.9288 43.2311 37.1777 41.4895 40.2003C39.5405 43.5841 37.1257 46.6772 34.3158 49.3888C31.3775 52.197 27.7508 54.682 23.5154 56H23.4776H23.4398C21.9564 55.3662 20.5089 54.6515 19.1037 53.8592C17.667 53.0266 16.2833 52.1056 14.9607 51.1014C12.2314 49.0133 9.80201 46.56 7.74087 43.8102C3.28176 37.9333 0.628819 30.886 0.105469 23.5275C-0.0288537 21.7855 0.00892222 20.0645 0.00472463 18.3728V13.3651C0.00472463 12.5256 0.00472463 11.7364 0.00472463 10.9347C-0.00833434 10.5299 0.00568504 10.1246 0.0466967 9.72161C0.107942 9.3118 0.275863 8.92529 0.533618 8.60085C1.062 8.00419 1.71754 7.53369 2.45192 7.22405C3.15292 6.89244 3.85811 6.6028 4.55071 6.29638L23.2677 0H23.2887H23.3139L37.1995 4.74747L40.906 6.00674L41.8589 6.33835L42.1821 6.46008C42.1821 6.46008 42.0687 6.4307 41.8547 6.35934L40.8934 6.04452L37.1744 4.78525L23.3013 0.121727H23.3475L4.64725 6.47268C3.95885 6.7791 3.24946 7.06873 2.54846 7.40034C1.84024 7.69895 1.20776 8.15215 0.697324 8.72678C0.460177 9.0255 0.306629 9.38186 0.252381 9.75939C0.214163 10.1513 0.201545 10.5453 0.214604 10.9389V13.3693C0.214604 15.0022 0.214604 16.6686 0.214604 18.356C0.214604 20.0435 0.185221 21.7645 0.319544 23.4939C0.842254 30.8116 3.482 37.8194 7.91717 43.6633C9.96798 46.3971 12.3846 48.8363 15.0992 50.9125C16.4131 51.9116 17.7884 52.827 19.2171 53.6535C20.6202 54.4507 22.0664 55.1696 23.549 55.8069H23.4776C27.6752 54.5057 31.2641 52.0291 34.2025 49.2503C37.0031 46.555 39.4122 43.4804 41.3593 40.1163C43.0924 37.1149 44.4072 33.8907 45.2673 30.5332C45.9968 27.6415 46.3898 24.6751 46.4384 21.6931C46.4384 18.9731 46.4384 16.5259 46.4636 14.3893C46.4636 13.3189 46.4636 12.3241 46.4636 11.4174C46.4624 10.5902 46.2623 9.7753 45.8801 9.0416C45.5634 8.46549 45.1199 7.96887 44.5831 7.58923C44.191 7.31016 43.7685 7.0764 43.3238 6.89244C43.0494 6.77733 42.7691 6.67645 42.4843 6.59021L42.2157 6.46848Z" fill="#757575"/>
</svg>
