<svg width="44" height="56" viewBox="0 0 44 56" fill="none" xmlns="http://www.w3.org/2000/svg">
<path d="M1 1V52C1 53.6569 2.34315 55 4 55H43" stroke="#757575" stroke-width="0.2"/>
<path d="M43 18L43 55" stroke="url(#paint0_linear_1411_9939)" stroke-width="0.2"/>
<path d="M35.2903 50H8.37286C7.47977 50 6.62327 49.6452 5.99176 49.0137C5.36025 48.3822 5.00546 47.5257 5.00546 46.6326V9.3674C5.00546 8.47431 5.36025 7.6178 5.99176 6.98629C6.62327 6.35478 7.47977 6 8.37286 6H25.4446L38.6631 19.6443V46.6544C38.6559 47.5442 38.2974 48.3951 37.6656 49.0218C37.0339 49.6484 36.1801 50 35.2903 50Z" fill="#757575"/>
<g opacity="0.2">
<path d="M5.00545 36.6505H38.6631V46.2342C38.6631 47.2329 38.2663 48.1908 37.5601 48.897C36.8539 49.6032 35.8961 50 34.8973 50H8.76581C7.76706 50 6.80921 49.6032 6.10298 48.897C5.39676 48.1908 5 47.2329 5 46.2342V36.6505H5.00545Z" fill="#222B29"/>
</g>
<g opacity="0.2">
<path d="M25.4445 6V16.4897C25.4474 17.3187 25.7788 18.1127 26.366 18.6978C26.9531 19.283 27.7483 19.6115 28.5773 19.6115H38.6631L25.4445 6Z" fill="white"/>
</g>
<g opacity="0.2">
<path d="M25.581 17.4284C25.581 17.4284 25.45 19.9717 28.3481 20.8068C28.4558 20.838 28.5651 20.8635 28.6755 20.8832C29.9963 21.1178 38.6631 22.6624 38.6631 22.4604V19.6115H28.5773C28.5773 19.6115 26.0613 19.5351 25.581 17.4284Z" fill="#222B29"/>
</g>
<path d="M18.8244 25.615L14.7857 27.094L18.8244 28.5621V30.0903L13.0501 27.9072V26.319L18.8244 24.1359V25.615Z" fill="white"/>
<path d="M23.1687 21.1342H24.8551L20.8491 32.5681H19.1627L23.1687 21.1342Z" fill="white"/>
<path d="M30.8477 26.319V27.8963L25.0898 30.0903V28.5731L29.1285 27.1049L25.0898 25.615V24.1196L30.8477 26.319Z" fill="white"/>
<path d="M17.449 41.617V46.1414H16.4011V44.2858H14.3436V46.1414H13.3011V41.617H14.349V43.4016H16.4066V41.617H17.449Z" fill="white"/>
<path d="M19.463 42.4684H17.9948V41.617H21.9408V42.4684H20.5054V46.1414H19.463V42.4684Z" fill="white"/>
<path d="M26.6343 46.1414V43.4126L25.3027 45.6448H24.8278L23.5071 43.4617V46.1196H22.5247V41.5952H23.387L25.0789 44.4059L26.7489 41.5952H27.6058V46.1196L26.6343 46.1414Z" fill="white"/>
<path d="M28.6865 41.617H29.7343V45.29H32.0047V46.1414H28.6865V41.617Z" fill="white"/>
<path d="M7.71599 16.4613C7.59609 16.0873 7.52554 15.6992 7.50611 15.3069C7.39741 14.3681 7.35813 13.4224 7.38858 12.4778C7.38858 11.9237 7.44315 11.399 7.49352 10.9205C7.51257 10.4838 7.61965 10.0555 7.80834 9.66119C7.94493 9.39289 8.1622 9.17415 8.42958 9.03576C8.62267 8.94341 8.7444 8.9476 8.7444 8.96439C8.40179 9.12317 8.12661 9.39834 7.96784 9.74095C7.81329 10.1214 7.72937 10.5268 7.72019 10.9373C7.68241 11.4116 7.65302 11.9321 7.63623 12.482C7.60685 13.5775 7.63624 14.5808 7.67821 15.286C7.72424 15.6759 7.73688 16.0691 7.71599 16.4613Z" fill="white"/>
<path d="M26.0707 0.929289C26.0317 0.890237 25.9683 0.890237 25.9293 0.929289C25.8902 0.968342 25.8902 1.03166 25.9293 1.07071L26.0707 0.929289ZM25.9293 1.07071L42.9293 18.0707L43.0707 17.9293L26.0707 0.929289L25.9293 1.07071Z" fill="#757575"/>
<defs>
<linearGradient id="paint0_linear_1411_9939" x1="43.5" y1="18" x2="43.5" y2="55" gradientUnits="userSpaceOnUse">
<stop stop-color="#C1121F" stop-opacity="0.2"/>
<stop offset="1" stop-color="#C1121F" stop-opacity="0.8"/>
</linearGradient>
</defs>
</svg>
