<svg width="41" height="53" viewBox="0 0 41 53" fill="none" xmlns="http://www.w3.org/2000/svg">
<path d="M23.5543 40.7158C22.9128 41.3479 21.961 41.3498 21.1232 41.3928C20.3508 41.432 19.3971 41.5237 18.8791 42.1876C18.361 42.8514 18.866 43.5883 19.5785 43.7884C20.4219 44.0259 21.2616 43.6144 21.9928 43.2273C22.8343 42.771 23.9433 42.1932 24.8372 42.8645C24.9569 42.9543 25.0728 42.7523 24.955 42.6626C24.3827 42.2324 23.6085 42.2661 22.9633 42.4999C22.1648 42.7879 21.4841 43.3489 20.6538 43.5527C20.2137 43.6875 19.7385 43.6466 19.3279 43.4387C18.909 43.1918 18.7668 42.7205 19.0735 42.3166C19.6159 41.6303 20.6799 41.6452 21.4691 41.6078C22.2583 41.5704 23.1223 41.4657 23.7132 40.8785C23.7311 40.8557 23.7399 40.8272 23.7381 40.7984C23.7362 40.7696 23.7239 40.7424 23.7033 40.7221C23.6828 40.7018 23.6555 40.6897 23.6266 40.6882C23.5978 40.6867 23.5694 40.6959 23.5468 40.7139L23.5543 40.7158Z" fill="#2B2D42"/>
<path d="M23.1803 39.9528L24.2014 42.6831L34.6252 36.6427L31.9043 33.7048L26.7279 34.5108L23.1803 39.9528Z" fill="#2B2D42"/>
<path d="M33.0667 51.4393C37.4482 50.808 40.4882 46.7443 39.8568 42.3629C39.2254 37.9814 35.1617 34.9414 30.7803 35.5728C26.3989 36.2042 23.3589 40.2678 23.9903 44.6493C24.6216 49.0307 28.6853 52.0707 33.0667 51.4393Z" fill="#C1121F"/>
<path d="M37.0788 45.8155C37.0788 45.8155 37.0882 45.7856 37.1087 45.7277L37.2004 45.4752L37.2714 45.2882C37.2939 45.219 37.3107 45.1404 37.3332 45.0582C37.3906 44.8677 37.4343 44.6733 37.4641 44.4766C37.5585 43.9386 37.5717 43.3896 37.5033 42.8477C37.4157 42.1307 37.1923 41.437 36.8451 40.8037C36.4249 40.0349 35.8305 39.3753 35.1096 38.8775C34.9128 38.7415 34.7066 38.6196 34.4925 38.5128C34.384 38.4586 34.2774 38.3988 34.1633 38.3501L33.8155 38.2155C33.7575 38.193 33.6996 38.1669 33.6397 38.15L33.4527 38.0995C33.3293 38.0678 33.2077 38.0285 33.0787 38.0004C32.8231 37.9492 32.5645 37.9142 32.3045 37.8957C32.038 37.8779 31.7706 37.8779 31.5041 37.8957C31.3694 37.9051 31.2348 37.9275 31.0983 37.9443C30.9619 37.9589 30.8269 37.984 30.6943 38.0191C30.4213 38.079 30.1527 38.1571 29.8902 38.2529C29.626 38.3604 29.3692 38.4854 29.1216 38.6269C28.6106 38.9134 28.149 39.2803 27.7545 39.7134C26.9324 40.6068 26.4243 41.744 26.3071 42.9524C26.2466 43.5344 26.2807 44.1224 26.4081 44.6935C26.4687 44.9722 26.5481 45.2464 26.6456 45.5145C26.7491 45.7716 26.8697 46.0215 27.0065 46.2625C27.0688 46.3848 27.1401 46.5023 27.2197 46.6141C27.2982 46.7263 27.373 46.8404 27.4553 46.9488C27.6204 47.1585 27.7997 47.3566 27.992 47.5416C28.1791 47.7232 28.3778 47.8925 28.5867 48.0484C28.6915 48.1251 28.8018 48.1906 28.9084 48.2598L29.0673 48.3626C29.1216 48.3963 29.1777 48.4206 29.2338 48.4505L29.5667 48.6207C29.677 48.673 29.7948 48.7123 29.907 48.7572C30.1292 48.8453 30.3573 48.9177 30.5896 48.9741C31.367 49.1594 32.1749 49.1779 32.96 49.0287C33.7452 48.8795 34.4899 48.5658 35.1451 48.1083C35.5952 47.7962 35.9956 47.4179 36.3326 46.9862C36.4601 46.8332 36.5758 46.6706 36.6786 46.5C36.7254 46.4271 36.7721 46.3616 36.8095 46.2999L36.9012 46.1241C36.9554 46.0213 36.9965 45.9371 37.0283 45.8866C37.0601 45.8361 37.0732 45.8062 37.0732 45.8062C37.0732 45.8062 37.062 45.8342 37.0358 45.8904L36.918 46.1335L36.8301 46.3205C36.7946 46.3841 36.7497 46.4514 36.7029 46.5262C36.6019 46.6984 36.4881 46.8628 36.3626 47.018C36.0277 47.4548 35.6278 47.8376 35.1769 48.1532C34.5168 48.621 33.7647 48.9432 32.9706 49.0982C32.1765 49.2533 31.3585 49.2378 30.5709 49.0527C30.3349 48.9963 30.1031 48.9238 29.8771 48.8357C29.763 48.789 29.6452 48.7497 29.5311 48.6974L29.1926 48.5272C29.1365 48.4973 29.0786 48.4711 29.0243 48.4374L28.8616 48.3327C28.7532 48.2635 28.641 48.1962 28.5362 48.1195C28.3232 47.9622 28.1208 47.791 27.9303 47.6071C27.7338 47.4195 27.5507 47.2182 27.3824 47.0049C27.2982 46.8946 27.2234 46.7786 27.143 46.6646C27.0618 46.5508 26.9887 46.4314 26.9242 46.3074C26.6355 45.8104 26.4296 45.2697 26.3146 44.7066C26.1848 44.1251 26.1495 43.5265 26.2098 42.9337C26.3288 41.7047 26.8463 40.5482 27.6835 39.6405C28.0844 39.1997 28.5543 38.8271 29.0748 38.5371C29.3264 38.3945 29.5876 38.2696 29.8565 38.1631C30.1235 38.0663 30.3965 37.987 30.6737 37.9256C30.8089 37.8906 30.9464 37.8656 31.0852 37.8508C31.2236 37.834 31.3601 37.8115 31.4966 37.8022C31.768 37.7825 32.0405 37.7825 32.3119 37.8022C32.576 37.8201 32.8384 37.8564 33.0974 37.9107C33.2246 37.9387 33.3499 37.978 33.4714 38.0098L33.6584 38.0621C33.7201 38.0808 33.7781 38.107 33.8454 38.1295L34.197 38.266C34.313 38.3165 34.4195 38.3782 34.5299 38.4324C34.7464 38.5426 34.9551 38.6676 35.1545 38.8064C35.8182 39.2693 36.3757 39.8683 36.7897 40.5635C37.2038 41.2588 37.4649 42.0343 37.5557 42.8384C37.6219 43.3846 37.6036 43.9378 37.5015 44.4784C37.4694 44.6762 37.4225 44.8712 37.3612 45.0619C37.3369 45.1461 37.3182 45.2227 37.2939 45.2919L37.2191 45.4789L37.1181 45.7295C37.0938 45.78 37.0788 45.8155 37.0788 45.8155Z" fill="#2B2D42"/>
<path d="M33.7335 44.7874C34.4359 43.7865 34.1939 42.4056 33.1929 41.7031C32.192 41.0007 30.8111 41.2427 30.1086 42.2436C29.4062 43.2446 29.6482 44.6255 30.6491 45.328C31.6501 46.0304 33.031 45.7884 33.7335 44.7874Z" fill="#2B2D42"/>
<path d="M33.3704 44.1605C33.2421 44.4475 33.0315 44.69 32.7653 44.8573C32.4992 45.0246 32.1894 45.1092 31.8751 45.1005C31.5609 45.0917 31.2562 44.99 30.9998 44.8081C30.7434 44.6263 30.5466 44.3725 30.4344 44.0788C30.3222 43.7851 30.2996 43.4647 30.3695 43.1582C30.4394 42.8517 30.5986 42.5728 30.827 42.3567C31.0554 42.1407 31.3427 41.9972 31.6526 41.9445C31.9625 41.8917 32.2811 41.9321 32.5681 42.0604C32.9527 42.2328 33.2531 42.5508 33.4035 42.9445C33.5539 43.3382 33.542 43.7755 33.3704 44.1605Z" fill="#E9E9E9"/>
<path d="M36.8376 40.7008C36.8566 40.6753 36.8786 40.6521 36.903 40.6317L37.1031 40.4446L37.8512 39.7752V39.8182C37.3158 38.9311 36.575 38.1858 35.6912 37.6451C34.6943 37.0316 33.5912 36.6105 32.4391 36.4034H32.4092V36.3753C32.4429 36.0817 32.4709 35.8442 32.4915 35.6647C32.4975 35.5801 32.5112 35.4962 32.5326 35.4141C32.5366 35.499 32.5334 35.5841 32.5233 35.6684C32.5102 35.8554 32.4915 36.0873 32.469 36.3809L32.4429 36.3473C32.9488 36.4264 33.4464 36.5516 33.9296 36.7213C34.5639 36.9347 35.1714 37.2208 35.7398 37.574C36.6369 38.1222 37.3826 38.8859 37.9091 39.7957L37.9222 39.8219L37.9017 39.8387L37.1312 40.4839L36.918 40.656C36.8675 40.6859 36.8395 40.7046 36.8376 40.7008Z" fill="#2B2D42"/>
<path d="M39.4108 46.2587C39.3855 46.254 39.361 46.2458 39.3379 46.2344L39.1266 46.1521L38.3785 45.8268L38.4197 45.8099L38.1036 46.558C38.0374 46.7005 37.9631 46.8391 37.8811 46.9731C37.7988 47.1134 37.7203 47.2649 37.6268 47.4145C37.1924 48.0658 36.6527 48.6403 36.0297 49.1144C35.3846 49.5902 34.6603 49.948 33.8903 50.171C33.312 50.3489 32.7112 50.4434 32.1062 50.4515H32.0782V50.4234C32.0782 50.1018 32.0782 49.8437 32.067 49.653C32.067 49.5707 32.067 49.5034 32.067 49.4491C32.0646 49.4255 32.0646 49.4017 32.067 49.3781C32.0741 49.4004 32.0779 49.4238 32.0782 49.4473C32.0782 49.5034 32.0782 49.5707 32.0913 49.6511C32.1006 49.8381 32.1137 50.0999 32.1287 50.4216L32.1006 50.3935C32.6976 50.3715 33.2889 50.2689 33.8585 50.0887C34.6163 49.8594 35.3287 49.5006 35.9642 49.0283C36.5784 48.5609 37.1127 47.9969 37.5463 47.3584C37.6398 47.2125 37.7203 47.0629 37.8025 46.9245C37.8851 46.793 37.96 46.6569 38.0269 46.5168C38.1485 46.2494 38.2588 46.0044 38.3561 45.7875L38.3692 45.7594L38.3954 45.7707L39.1434 46.1222L39.3416 46.2195C39.3902 46.2419 39.4127 46.255 39.4108 46.2587Z" fill="#2B2D42"/>
<path d="M26.3688 49.1911C26.4175 49.1169 26.4706 49.0457 26.5278 48.9779L26.9934 48.3963V48.4356C26.5459 48.0469 26.1611 47.5914 25.8527 47.0853C25.4458 46.4108 25.1686 45.6662 25.0354 44.8899C24.9123 44.1749 24.8827 43.4469 24.9475 42.7243C24.9922 42.1589 25.0937 41.5994 25.2505 41.0543L25.2598 41.0262H25.2879L26.193 41.2282L26.4343 41.2862C26.4627 41.2906 26.4903 41.2987 26.5165 41.3105C26.4886 41.3146 26.4603 41.3146 26.4324 41.3105L26.1874 41.2694L25.2748 41.0954L25.3122 41.0749C25.1671 41.6177 25.0745 42.1731 25.0354 42.7336C24.9776 43.448 25.0103 44.1668 25.1327 44.873C25.2637 45.6384 25.533 46.3735 25.9275 47.0423C26.2278 47.5441 26.5995 47.9995 27.0308 48.3944L27.0533 48.415L27.0346 48.4356L26.5483 48.9966C26.4948 49.0669 26.4346 49.132 26.3688 49.1911Z" fill="#2B2D42"/>
<path d="M26.6717 39.9528C26.6717 40.0201 26.6518 40.0859 26.6144 40.1419C26.577 40.1978 26.5238 40.2415 26.4616 40.2672C26.3994 40.293 26.331 40.2997 26.265 40.2866C26.199 40.2735 26.1383 40.2411 26.0907 40.1935C26.0431 40.1459 26.0107 40.0852 25.9976 40.0192C25.9844 39.9532 25.9912 39.8847 26.0169 39.8225C26.0427 39.7603 26.0863 39.7072 26.1423 39.6698C26.1983 39.6324 26.2641 39.6124 26.3314 39.6124C26.4217 39.6124 26.5082 39.6483 26.5721 39.7121C26.6359 39.7759 26.6717 39.8625 26.6717 39.9528Z" fill="#E9E9E9"/>
<path d="M27.0682 39.3394C27.2562 39.3394 27.4086 39.187 27.4086 38.999C27.4086 38.811 27.2562 38.6587 27.0682 38.6587C26.8802 38.6587 26.7279 38.811 26.7279 38.999C26.7279 39.187 26.8802 39.3394 27.0682 39.3394Z" fill="#E9E9E9"/>
<path d="M28.3287 38.1631C28.329 38.2308 28.3093 38.2972 28.2719 38.3537C28.2345 38.4102 28.1812 38.4544 28.1187 38.4806C28.0562 38.5068 27.9873 38.5138 27.9208 38.5008C27.8543 38.4878 27.7932 38.4554 27.7451 38.4076C27.6971 38.3598 27.6643 38.2988 27.6509 38.2324C27.6376 38.166 27.6442 38.0971 27.6701 38.0344C27.6959 37.9718 27.7398 37.9182 27.7961 37.8805C27.8524 37.8428 27.9187 37.8227 27.9864 37.8227C28.0313 37.8225 28.0757 37.8311 28.1173 37.8481C28.1588 37.8651 28.1965 37.8901 28.2283 37.9218C28.2601 37.9534 28.2854 37.991 28.3026 38.0324C28.3198 38.0738 28.3287 38.1182 28.3287 38.1631Z" fill="#E9E9E9"/>
<path d="M16.6928 27.0128L17.2846 26.6472L17.0861 26.3258L16.4942 26.6914L16.6928 27.0128Z" fill="#C1121F"/>
<path d="M17.4311 25.5737L20.6623 23.5773L18.8654 20.6691L15.6343 22.6655L17.4311 25.5737Z" fill="#2B2D42"/>
<path d="M17.5408 26.4894L21.3209 24.1539L20.8815 23.4428L17.1015 25.7783L17.5408 26.4894Z" fill="#2B2D42"/>
<path d="M16.767 28.2073L22.6802 24.5202L22.2114 23.7683L16.2981 27.4554L16.767 28.2073Z" fill="#2B2D42"/>
<path d="M19.3021 30.6631L24.1242 27.6837L22.2359 24.6275L17.4139 27.6069L19.3021 30.6631Z" fill="#E9E9E9"/>
<path d="M20.5528 21.2033C20.8557 22.1233 21.6748 22.6638 22.4229 23.2061C22.8566 23.4898 23.2365 23.8482 23.5449 24.2646C23.8549 24.7417 23.9909 25.311 23.9302 25.8766C23.9171 26.0262 24.1509 26.0262 24.1639 25.8766C24.2631 24.8088 23.7413 23.9411 22.9278 23.2959C22.1143 22.6507 21.1138 22.157 20.7772 21.1415C20.7305 20.9994 20.506 21.0593 20.5528 21.2033Z" fill="#2B2D42"/>
<path d="M17.4915 27.3016C16.8064 26.9451 16.2317 26.4084 15.8293 25.7492C15.4269 25.0901 15.2121 24.3336 15.2081 23.5614C15.2045 23.533 15.1906 23.5068 15.1691 23.4878C15.1476 23.4689 15.1199 23.4584 15.0912 23.4584C15.0625 23.4584 15.0348 23.4689 15.0133 23.4878C14.9918 23.5068 14.9779 23.533 14.9743 23.5614C14.9786 24.3744 15.2042 25.1709 15.6269 25.8655C16.0496 26.56 16.6535 27.1263 17.3736 27.5036C17.5064 27.5728 17.6261 27.3708 17.4915 27.3016Z" fill="#2B2D42"/>
<path d="M22.9222 40.9533L17.4073 28.8613C19.2456 29.1773 20.5378 28.7528 20.6501 26.7387L23.6048 24.7751L32.5064 33.9779C30.2701 34.1571 28.1424 35.0173 26.4099 36.4427C23.4608 38.8401 22.9222 40.9533 22.9222 40.9533Z" fill="#C1121F"/>
<path d="M21.8058 25.9738C21.8193 25.9853 21.8312 25.9985 21.8413 26.0131L21.9367 26.1309L22.292 26.591L23.5898 28.2909L25.5011 30.8211C25.6881 31.0605 25.8657 31.3036 26.0527 31.5542C26.2618 31.7998 26.4442 32.0668 26.5969 32.3509C26.7344 32.6686 26.7793 33.0187 26.7263 33.3609C26.6734 33.703 26.5248 34.0232 26.2977 34.2845C26.1826 34.4171 26.0483 34.5318 25.8994 34.6249C25.7537 34.72 25.594 34.7919 25.4263 34.8381C25.098 34.9316 24.7502 34.9316 24.422 34.8381C24.1051 34.7483 23.8186 34.5737 23.5936 34.3332C23.489 34.2167 23.3946 34.0916 23.3112 33.9591L23.0569 33.5851L21.2803 30.9576L20.089 29.1811L19.7692 28.6948L19.6888 28.5677C19.6784 28.5541 19.6702 28.5389 19.6645 28.5228C19.6766 28.5346 19.6873 28.5478 19.6963 28.5621C19.7206 28.5938 19.7487 28.635 19.7861 28.6836L20.1208 29.1605L21.3364 30.9184L23.1298 33.5365L23.386 33.9105C23.4666 34.0405 23.5592 34.1626 23.6628 34.2752C23.8806 34.5065 24.1582 34.6731 24.4648 34.7565C24.7713 34.84 25.095 34.8372 25.4001 34.7483C25.719 34.6544 26.0044 34.4715 26.2229 34.221C26.4377 33.9735 26.5785 33.6705 26.6291 33.3467C26.6797 33.0229 26.6381 32.6914 26.509 32.3901C26.3595 32.1124 26.1821 31.8505 25.9798 31.6084L25.4319 30.8754L23.5356 28.332L22.2639 26.6134L21.9217 26.1422L21.8357 26.0187L21.8058 25.9738Z" fill="white"/>
<path d="M30.2118 31.6028C30.1438 31.6014 30.076 31.5926 30.0099 31.5766L29.4488 31.4738L27.474 31.0867H27.4572L27.4478 31.0736C27.042 30.5294 26.5782 29.9048 26.0845 29.2446L23.9657 26.3665L23.3318 25.4857L23.1635 25.2445C23.1423 25.2165 23.1242 25.1864 23.1092 25.1547C23.1092 25.1547 23.1354 25.179 23.1784 25.2314L23.3654 25.4633L24.0256 26.3254C24.5866 27.0734 25.3346 28.0795 26.1687 29.1941L27.5226 31.0287L27.4965 31.0137L29.4657 31.4345L30.0267 31.5598C30.0893 31.5701 30.1511 31.5844 30.2118 31.6028Z" fill="#2B2D42"/>
<path d="M24.6521 38.1818C24.6521 38.1818 24.609 38.1425 24.5417 38.0584C24.4744 37.9742 24.3809 37.8508 24.2649 37.6956C24.0349 37.3852 23.717 36.9476 23.3617 36.452L23.3935 36.4726L23.0681 36.4146C22.393 36.293 21.7815 36.1789 21.3401 36.0911C21.1194 36.048 20.9399 36.0106 20.8165 35.9826C20.7522 35.9729 20.6894 35.9553 20.6295 35.9302C20.6953 35.9268 20.7613 35.9319 20.8258 35.9452C20.9511 35.962 21.1307 35.9882 21.3532 36.0237C21.7983 36.0948 22.4117 36.1976 23.0868 36.3192L23.4122 36.3772H23.4309L23.4421 36.3921C23.7955 36.8896 24.1022 37.3272 24.321 37.6544C24.4295 37.8134 24.5081 37.9443 24.5716 38.0285C24.6056 38.0755 24.6327 38.1271 24.6521 38.1818Z" fill="#2B2D42"/>
<path d="M21.1288 25.2109C21.1064 25.2239 21.0072 25.1061 20.9081 24.9453C20.809 24.7845 20.7473 24.6442 20.7697 24.6293C20.7922 24.6143 20.8913 24.734 20.9904 24.8948C21.0895 25.0556 21.1512 25.1959 21.1288 25.2109Z" fill="#2B2D42"/>
<path d="M19.8534 26.0131C19.831 26.0262 19.7206 25.8897 19.6084 25.7064C19.4962 25.5231 19.4214 25.3661 19.4457 25.3511C19.47 25.3361 19.5785 25.4727 19.6907 25.6559C19.8029 25.8392 19.8758 25.9925 19.8534 26.0131Z" fill="#2B2D42"/>
<path d="M18.5219 26.7929C18.4994 26.806 18.391 26.6733 18.2806 26.4937C18.1703 26.3142 18.0936 26.1552 18.1198 26.1422C18.146 26.1291 18.2526 26.2618 18.3629 26.4414C18.4733 26.6209 18.5555 26.778 18.5219 26.7929Z" fill="#2B2D42"/>
<path d="M21.5304 24.0255L22.1222 23.6599L21.9236 23.3385L21.3318 23.7042L21.5304 24.0255Z" fill="#C1121F"/>
<path d="M22.3144 23.5764C22.2447 23.6332 22.1703 23.6839 22.0919 23.7279L21.471 24.1112L19.4139 25.3661L17.368 26.6359L16.7472 27.0192C16.6744 27.071 16.596 27.1143 16.5134 27.1483C16.5796 27.0885 16.6509 27.0347 16.7266 26.9874C16.8687 26.8883 17.0744 26.7481 17.3325 26.5779C17.8449 26.2375 18.563 25.7775 19.3634 25.2838C20.1638 24.7901 20.8988 24.3487 21.4336 24.0514C21.701 23.898 21.9198 23.7765 22.0713 23.6942C22.1486 23.6477 22.23 23.6082 22.3144 23.5764Z" fill="#2B2D42"/>
<path d="M20.8352 23.4997C20.6677 23.6282 20.4908 23.7439 20.3059 23.8457L19.0062 24.6461L17.7103 25.4502C17.5364 25.5696 17.3539 25.6759 17.1642 25.7681C17.3233 25.6298 17.4934 25.5047 17.6729 25.3941C17.9964 25.1735 18.4489 24.878 18.9557 24.5657C19.4625 24.2534 19.9301 23.9785 20.2648 23.7896C20.4464 23.6771 20.6372 23.5801 20.8352 23.4997Z" fill="#2B2D42"/>
<path d="M23.0733 30.3216L23.1292 30.284C23.1862 30.2456 23.2503 30.2188 23.3176 30.2051C23.385 30.1915 23.4545 30.1912 23.522 30.2044C23.5894 30.2176 23.6537 30.2439 23.711 30.2819C23.7683 30.32 23.8176 30.3689 23.856 30.4259L25.0246 32.1618C25.1025 32.2774 25.1312 32.4192 25.1045 32.556C25.0778 32.6928 24.9978 32.8134 24.8822 32.8912L24.8263 32.9288C24.7111 33.0063 24.5699 33.035 24.4336 33.0083C24.2973 32.9817 24.1771 32.9021 24.0996 32.7869L22.9309 31.051C22.8921 30.9938 22.865 30.9295 22.8512 30.8618C22.8373 30.7942 22.837 30.7244 22.8503 30.6566C22.8635 30.5888 22.89 30.5243 22.9283 30.4668C22.9666 30.4093 23.0159 30.36 23.0733 30.3216Z" fill="#E9E9E9"/>
<path d="M6.69729 16.9282L3.40593 14.426L4.28113 12.8719L7.66974 15.1329L6.69729 16.9282Z" fill="#2B2D42"/>
<path d="M8.95636 3.4093L10.3458 5.38973L12.0645 8.55019L13.1379 11.3778L15.2305 10.9028L14.6433 9.12805L12.5095 5.23451L10.488 2.27042L8.95636 3.4093Z" fill="#2B2D42"/>
<path d="M7.66972 8.54084C7.66972 8.54084 10.4749 12.9019 10.5497 12.8589C10.6245 12.8159 12.805 11.5816 12.805 11.5816L9.36029 7.31967L7.66972 8.54084Z" fill="#2B2D42"/>
<path d="M4.78417 11.0711L8.33174 14.6916L10.2112 13.0178L6.11942 9.50394L3.39656 7.31967L2.02205 8.956L4.78417 11.0711Z" fill="#2B2D42"/>
<path d="M18.5032 15.0974C17.8935 15.0562 17.3101 13.6705 17.0258 13.13C16.7004 12.511 16.3526 11.6826 15.9804 11.2057L13.2706 12.18C11.1301 13.3268 9.22088 14.8607 7.6398 16.7038C7.46594 16.8688 7.35264 17.0875 7.31814 17.3247C7.33018 17.5355 7.40728 17.7374 7.53881 17.9025C8.17923 18.8705 9.02289 19.6874 10.0111 20.2962C10.2268 20.4469 10.477 20.5408 10.7385 20.5693C11.1126 20.5861 11.438 20.371 11.7409 20.1653L16.3993 17.0161C16.7154 16.801 20.3957 17.493 20.5715 17.1526C20.809 16.6907 20.7491 15.247 18.5032 15.0974Z" fill="#2B2D42"/>
<path d="M19.6047 10.5213C19.6047 10.5213 20.2442 11.9033 20.4051 12.4045C20.5659 12.9056 19.8683 13.9791 19.8683 13.9791L18.3723 13.88L18.0188 12.7579L17.5532 11.965L19.6047 10.5213Z" fill="#2B2D42"/>
<path d="M20.938 22.0653C20.9586 21.9251 20.938 20.9152 20.8838 20.1522C20.8296 19.3892 21.125 17.564 21.1082 17.0142C21.1082 17.0142 17.9795 16.6907 17.8019 16.5093C17.6242 16.3279 16.6387 15.5013 16.1973 15.6135C15.756 15.7257 9.02741 20.1709 8.95821 20.2139C8.88902 20.257 12.7601 24.82 13.7662 25.5699C14.7723 26.3198 14.9556 26.0486 14.9556 26.0486C14.9556 26.0486 14.4301 24.6816 14.8789 24.1168C15.3278 23.5521 15.9318 23.0845 17.3998 23.294C18.8678 23.5034 19.1184 23.6998 19.9413 23.2229C20.4076 22.9766 20.7637 22.5631 20.938 22.0653Z" fill="#C1121F"/>
<path d="M15.5297 10.6671C15.5297 10.6671 16.6742 12.311 16.4648 12.9561C16.2553 13.6013 13.9607 14.6617 11.5446 16.4326C9.67448 17.8015 8.5973 19.1387 8.27565 19.1237C7.95399 19.1087 6.70664 17.2405 6.63745 17.1096C6.36441 16.6009 7.71462 14.4784 9.61838 13.0553C11.5221 11.6321 15.1669 10.3455 15.5297 10.6671Z" fill="#C1121F"/>
<path d="M9.49868 0.314302C8.88155 -0.269167 8.07366 0.138512 8.07366 0.138512C7.61736 0.419026 7.44531 1.03242 7.71461 1.61589C7.9839 2.19936 8.81983 3.78893 8.93391 3.77958C9.85586 3.4972 10.5946 3.11196 11.0658 2.57337C11.0752 2.57337 10.0036 0.789305 9.49868 0.314302Z" fill="#C1121F"/>
<path d="M11.337 3.28027L9.566 4.44533C9.53807 4.46264 9.51392 4.48539 9.49496 4.51222C9.47601 4.53905 9.46264 4.56942 9.45566 4.60153C9.44868 4.63363 9.44823 4.66681 9.45434 4.69909C9.46044 4.73137 9.47298 4.76209 9.4912 4.78943C9.82968 5.29997 10.6993 6.60903 11.0322 7.11396C11.071 7.17042 11.1288 7.21097 11.1951 7.22815C11.2615 7.24533 11.3318 7.23798 11.3931 7.20746C11.6642 7.07468 12.1075 6.85401 12.345 6.72124C12.7732 6.48186 13.2987 6.13403 13.2987 5.85351C13.2987 5.573 12.1767 3.98342 11.7241 3.34759C11.6801 3.28944 11.6156 3.25015 11.5438 3.23766C11.4719 3.22516 11.398 3.24039 11.337 3.28027Z" fill="#C1121F"/>
<path d="M13.7737 6.66326C13.7323 6.61827 13.6768 6.58861 13.6164 6.5791C13.556 6.56959 13.4941 6.5808 13.4408 6.6109C12.8798 6.89329 11.3407 7.69368 11.3314 7.85264C11.3183 8.03965 12.3468 10.0537 12.7003 10.3473C13.0537 10.641 15.253 9.62362 15.1912 9.2683C15.137 8.94852 14.2543 7.25234 13.7737 6.66326Z" fill="#C1121F"/>
<path d="M3.31429 2.36768C3.39284 2.30971 4.11843 1.87023 4.82159 2.35646C5.52474 2.84268 6.57948 3.81513 6.65241 4.08817C6.72534 4.3612 6.80576 4.87734 6.42613 5.13168C6.0465 5.38601 5.11706 6.14527 4.93005 6.04428C4.74304 5.9433 4.42513 5.72263 3.84166 4.96337C3.25819 4.20411 2.26517 3.15125 3.31429 2.36768Z" fill="#C1121F"/>
<path d="M6.71037 4.43036C6.71037 4.43036 7.17041 4.71835 7.18537 4.83617C7.20033 4.95399 7.36116 5.27564 7.09748 5.52062C6.76152 5.78408 6.40648 6.02223 6.03527 6.23313C5.97061 6.28891 5.89128 6.32492 5.80672 6.33686C5.72217 6.3488 5.63596 6.33616 5.55839 6.30045L5.16567 5.99189L6.71037 4.43036Z" fill="#2B2D42"/>
<path d="M10.2056 7.99102C10.2797 7.97834 10.356 7.98964 10.4232 8.02328C10.4905 8.05691 10.5453 8.11112 10.5796 8.17803C10.7479 8.42114 12.1954 10.1472 12.1411 10.381C12.0869 10.6148 9.89702 11.9687 9.76237 11.8565C9.62773 11.7443 8.1541 9.65914 8.22142 9.4366C8.28874 9.21406 10.1102 7.99289 10.2056 7.99102Z" fill="#C1121F"/>
<path d="M7.05448 10.1903C7.11058 10.1772 7.18912 10.0332 7.42849 10.2557C7.66787 10.4783 9.19573 11.7518 9.23313 12.0903C9.27053 12.4288 7.90724 13.9791 7.52574 13.837C7.14424 13.6948 6.01844 12.5728 5.62947 12.0604C5.62947 12.0604 5.45929 11.836 5.55279 11.6863C5.62572 11.5704 7.05448 10.1903 7.05448 10.1903Z" fill="#C1121F"/>
<path d="M6.51961 9.5806C6.4953 9.49084 4.62521 7.99102 4.29233 7.93679C4.14646 7.91435 3.1123 8.95412 3.05246 9.29822C3.01376 9.47185 3.01898 9.65238 3.06763 9.82348C3.11628 9.99459 3.20684 10.1509 3.3311 10.2781C3.63032 10.6316 4.73741 11.5367 5.06281 11.3535C5.38821 11.1702 6.29146 10.2725 6.29146 10.2725C6.29146 10.2725 6.6206 9.9434 6.51961 9.5806Z" fill="#C1121F"/>
<path d="M1.9117 6.30046C1.28335 6.0854 0.668087 6.25745 0.415624 6.7923C0.163162 7.32715 0.561492 8.00599 0.856966 8.34822C1.15244 8.69044 1.88739 9.28326 2.31564 9.26082C2.76633 9.01958 3.41712 8.23788 3.68829 7.61327C3.71098 7.55693 3.7141 7.4946 3.69714 7.43628C3.68019 7.37795 3.64414 7.32701 3.59478 7.29161C3.06935 6.9042 2.50533 6.57206 1.9117 6.30046Z" fill="#C1121F"/>
<path d="M2.44281 11.9781L2.51762 11.9332C2.51762 11.9332 4.038 12.425 4.33722 12.7373C4.63643 13.0496 4.31477 13.5265 4.25493 13.6724C4.19509 13.8182 3.72196 14.6953 3.4377 14.6953C2.99019 14.6574 2.56364 14.489 2.21092 14.211C2.05365 14.0891 1.90436 13.9573 1.76397 13.8164L2.44281 11.9781Z" fill="#C1121F"/>
<path d="M4.99922 13.188C5.07637 13.1481 5.1632 13.1306 5.24982 13.1375C5.35454 13.1619 7.07503 14.3064 7.19471 14.5289C7.3144 14.7514 7.17414 15.0731 7.01892 15.3798C6.8637 15.6865 6.21291 16.5692 5.9511 16.5355C5.68929 16.5018 4.21939 15.376 4.06792 15.1703C4.0236 15.1113 3.99179 15.0439 3.97442 14.9722C3.95706 14.9005 3.95451 14.826 3.96693 14.7533L4.99922 13.188Z" fill="#C1121F"/>
<path d="M17.3587 7.51041C17.6124 7.57154 17.8418 7.70776 18.017 7.90126C18.2994 8.21918 19.9319 10.8055 19.9319 10.8055C19.9319 10.8055 19.9319 11.2487 19.1241 11.7705C18.7893 11.9874 17.6934 12.3727 17.6934 12.3727C17.6934 12.3727 17.0969 11.5816 16.7023 10.9102C16.3077 10.2389 15.9917 9.0495 16.2684 8.39123C16.5452 7.73295 17.0707 7.45431 17.3587 7.51041Z" fill="#C1121F"/>
<path d="M20.2573 11.533C20.2573 11.533 19.7561 12.1221 19.4363 12.2492C19.1166 12.3764 17.9403 12.7317 17.9403 12.7317L18.0506 14.3494C18.0506 14.3494 17.7327 15.4452 17.7664 15.5256C17.8 15.6061 20.6089 16.5635 20.7585 16.4008C20.9081 16.2381 21.1101 14.585 21.0858 14.0352C21.0615 13.4854 20.2573 11.533 20.2573 11.533Z" fill="#C1121F"/>
<path d="M7.19099 4.95775C7.25249 4.90891 7.32989 4.88456 7.40827 4.8894C7.48665 4.89423 7.56047 4.92791 7.6155 4.98393C8.09985 5.47764 9.29858 6.71564 9.41453 6.88955C9.55104 7.11023 9.67634 7.37017 9.31541 7.72549C8.95449 8.0808 8.09237 8.85876 7.72397 8.8251C7.35556 8.79144 5.56214 7.02046 5.5584 6.624C5.5584 6.16957 6.48222 5.53748 6.48222 5.53748C6.70519 5.32854 6.94198 5.13486 7.19099 4.95775Z" fill="#C1121F"/>
<g opacity="0.3">
<path d="M2.08189 14.1885C2.30102 14.1765 2.51491 14.117 2.70868 14.0139C2.90245 13.9109 3.07146 13.7669 3.20394 13.592C3.34104 13.4246 3.41691 13.2155 3.419 12.9992C3.40146 12.7722 3.30172 12.5594 3.13849 12.4007C2.97646 12.2431 2.79556 12.1062 2.5999 11.993" fill="#222B29"/>
</g>
<path d="M2.43161 11.8939C2.76262 12.0005 3.28812 12.7093 3.15908 13.0721C3.03004 13.4349 2.21094 14.1717 1.85001 14.2727C1.48909 14.3737 0.892527 14.0127 0.580222 13.764C0.267916 13.5153 0.303448 13.0889 0.55965 12.7859C0.815853 12.483 2.03141 11.763 2.43161 11.8939Z" fill="#C1121F"/>
<g opacity="0.3">
<path d="M1.30391 12.2418C1.36334 12.2518 1.4202 12.2735 1.47122 12.3056C1.52224 12.3377 1.56643 12.3796 1.60126 12.4288C1.68589 12.5276 1.74326 12.6469 1.7677 12.7747C1.8001 12.9312 1.78579 13.0938 1.72655 13.2423C1.67324 13.3751 1.59234 13.4952 1.48917 13.5945C1.38601 13.6938 1.26295 13.7701 1.12813 13.8182C1.02124 13.8678 0.901229 13.8816 0.785898 13.8575C0.785898 13.8407 0.916805 13.8388 1.10194 13.7547C1.34328 13.6471 1.53409 13.451 1.63492 13.2067C1.68332 13.0867 1.70063 12.9565 1.68527 12.828C1.66991 12.6995 1.62236 12.577 1.54703 12.4718C1.42547 12.3035 1.29643 12.2586 1.30391 12.2418Z" fill="#222B29"/>
</g>
<g opacity="0.3">
<path d="M2.67657 13.6499C2.48098 13.693 2.27811 13.6906 2.08358 13.6429C1.88905 13.5953 1.70805 13.5036 1.55452 13.375C1.56948 13.3507 1.79763 13.4741 2.10432 13.5471C2.41102 13.62 2.6747 13.6275 2.67657 13.6499Z" fill="#222B29"/>
</g>
<g opacity="0.3">
<path d="M3.9389 14.0763C3.52105 14.029 3.12858 13.8517 2.81684 13.5695C3.01029 13.6393 3.19789 13.7244 3.37787 13.8238C3.57087 13.894 3.75839 13.9784 3.9389 14.0763Z" fill="#222B29"/>
</g>
<g opacity="0.3">
<path d="M6.55888 15.8623C6.42678 15.8253 6.30078 15.7692 6.18487 15.6958C5.896 15.5391 5.61854 15.3623 5.35454 15.1666C5.09002 14.9705 4.84002 14.7555 4.60651 14.5233C4.50402 14.4324 4.41521 14.3272 4.34282 14.211C4.36526 14.1904 4.80287 14.6299 5.41626 15.0843C6.02965 15.5387 6.57197 15.8361 6.55888 15.8623Z" fill="#222B29"/>
</g>
<g opacity="0.3">
<path d="M2.1511 6.46317C2.15238 6.57763 2.12944 6.69107 2.08377 6.79604C1.99186 7.0559 1.85021 7.29537 1.66674 7.50107C1.48481 7.70874 1.26365 7.87842 1.01595 8.00038C0.917179 8.0576 0.80769 8.09388 0.694296 8.10698C1.02872 7.9345 1.33259 7.70833 1.59381 7.43748C1.83115 7.14506 2.01937 6.81599 2.1511 6.46317Z" fill="#222B29"/>
</g>
<g opacity="0.3">
<path d="M2.88602 8.70725C2.62434 8.57942 2.385 8.41018 2.17726 8.20607C1.9478 8.02649 1.74942 7.81042 1.59005 7.5665C1.81845 7.73977 2.0358 7.92715 2.24084 8.12753C2.46713 8.3079 2.68256 8.50148 2.88602 8.70725Z" fill="#222B29"/>
</g>
<g opacity="0.3">
<path d="M5.56215 10.7438C5.42915 10.694 5.30337 10.6267 5.18813 10.5437C4.89959 10.3598 4.6246 10.1555 4.36529 9.93221C4.10507 9.71082 3.86189 9.47014 3.63782 9.21223C3.53812 9.11073 3.45258 8.99624 3.38349 8.87187C3.40593 8.8513 3.82483 9.34313 4.42887 9.85928C5.03291 10.3754 5.57898 10.7177 5.56215 10.7438Z" fill="#222B29"/>
</g>
<g opacity="0.3">
<path d="M8.06433 13.2759C7.93703 13.2144 7.81875 13.1357 7.71275 13.0422C7.17618 12.6188 6.70923 12.114 6.32888 11.5461C6.24169 11.432 6.17116 11.306 6.11943 11.1721C6.14561 11.1571 6.49345 11.6957 7.03391 12.2717C7.57436 12.8477 8.08303 13.2553 8.06433 13.2759Z" fill="#222B29"/>
</g>
<g opacity="0.3">
<path d="M4.87021 2.48923C4.85855 2.60587 4.82221 2.7187 4.76361 2.82023C4.63633 3.07428 4.45478 3.29725 4.2318 3.47337C4.00882 3.64949 3.74986 3.77446 3.47325 3.83943C3.36059 3.8735 3.24171 3.88181 3.12541 3.86375C3.12541 3.84878 3.25632 3.83382 3.45642 3.77211C3.97947 3.60963 4.42383 3.25921 4.70377 2.78844C4.75143 2.68455 4.80708 2.58451 4.87021 2.48923Z" fill="#222B29"/>
</g>
<g opacity="0.3">
<path d="M5.88939 5.35983C5.54922 5.11199 5.23584 4.82932 4.95434 4.51642C4.65566 4.22311 4.38807 3.89973 4.15581 3.55145C4.46556 3.83237 4.76021 4.1295 5.0385 4.44162C5.33793 4.73266 5.62194 5.03915 5.88939 5.35983Z" fill="#222B29"/>
</g>
<g opacity="0.3">
<path d="M8.61788 8.23977C8.47369 8.15401 8.34 8.05171 8.21955 7.93494C7.61154 7.40333 7.07755 6.7926 6.63184 6.11908C6.53267 5.98341 6.44864 5.8373 6.38125 5.68335C6.49415 5.80622 6.59673 5.9382 6.68794 6.07794C6.87495 6.32666 7.13115 6.66141 7.43598 7.01299C7.7408 7.36456 8.04189 7.66939 8.26256 7.88258C8.39002 7.99232 8.50881 8.11174 8.61788 8.23977Z" fill="#222B29"/>
</g>
<g opacity="0.3">
<path d="M11.0209 11.3273C10.6595 10.9415 10.3217 10.5344 10.0092 10.108C9.67201 9.70021 9.35975 9.27243 9.07418 8.82697C9.43587 9.21313 9.77373 9.62094 10.0859 10.0481C10.4233 10.4551 10.7356 10.8823 11.0209 11.3273Z" fill="#222B29"/>
</g>
<g opacity="0.3">
<path d="M13.899 10.1061C13.7965 9.99835 13.7068 9.87912 13.6316 9.75079C13.4783 9.52264 13.2744 9.20473 13.0594 8.84567C12.8443 8.48661 12.6592 8.15747 12.532 7.91062C12.4543 7.78365 12.3915 7.6481 12.345 7.50668C12.4409 7.62221 12.5243 7.74758 12.5937 7.8807L13.1435 8.79518L13.6933 9.72274C13.7748 9.84316 13.8438 9.97162 13.899 10.1061Z" fill="#222B29"/>
</g>
<g opacity="0.3">
<path d="M12.0196 6.73059C11.9022 6.62274 11.7986 6.5009 11.711 6.36779C11.483 6.06037 11.272 5.74073 11.0789 5.41031C10.8853 5.08008 10.7105 4.73918 10.5553 4.38924C10.4834 4.24755 10.4275 4.09826 10.3888 3.94415C10.4775 4.07522 10.5539 4.2142 10.617 4.35931C10.7498 4.61926 10.9386 4.97644 11.1631 5.36168C11.3875 5.74692 11.6063 6.08354 11.7671 6.32852C11.8629 6.45486 11.9474 6.58941 12.0196 6.73059Z" fill="#222B29"/>
</g>
<g opacity="0.3">
<path d="M9.42387 0.540595C9.41842 0.652657 9.38289 0.761183 9.32101 0.85477C9.19219 1.09515 8.99547 1.29231 8.75537 1.42167C8.51528 1.55103 8.24242 1.60687 7.97081 1.58224C7.85854 1.58187 7.74832 1.55222 7.65102 1.49621C7.65102 1.48125 7.77632 1.51304 7.97455 1.51491C8.23115 1.51369 8.48352 1.44947 8.7095 1.3279C8.93758 1.20584 9.13069 1.02753 9.27052 0.809887C9.36964 0.654669 9.40891 0.534984 9.42387 0.540595Z" fill="#222B29"/>
</g>
<g opacity="0.3">
<path d="M9.88018 3.42612C9.65274 3.11083 9.45254 2.77674 9.28176 2.42749C9.08212 2.09363 8.91012 1.74401 8.76748 1.38211C8.99493 1.69741 9.19512 2.03149 9.36591 2.38074C9.56464 2.71509 9.73661 3.06464 9.88018 3.42612Z" fill="#222B29"/>
</g>
<g opacity="0.3">
<path d="M18.2544 8.22665C18.2037 8.34415 18.1363 8.45374 18.0543 8.55205C17.8769 8.80649 17.6669 9.0366 17.4297 9.2365C17.1884 9.43828 16.9004 9.57649 16.5919 9.63857C16.4656 9.67144 16.333 9.67144 16.2067 9.63857C16.2067 9.62174 16.3544 9.63857 16.5807 9.57312C16.8709 9.49446 17.1407 9.35413 17.3718 9.1617C17.6026 8.96592 17.8137 8.74794 18.002 8.51091C18.075 8.40682 18.1597 8.31145 18.2544 8.22665Z" fill="#222B29"/>
</g>
<g opacity="0.3">
<path d="M18.4041 12.0118C18.1216 11.615 17.8655 11.2002 17.6373 10.77C17.3811 10.3557 17.153 9.92461 16.9547 9.47964C17.2377 9.87601 17.4939 10.2908 17.7215 10.7214C17.9777 11.1357 18.2058 11.5668 18.4041 12.0118Z" fill="#222B29"/>
</g>
<g opacity="0.3">
<path d="M18.8286 15.765C18.8231 15.6096 18.8293 15.4539 18.8473 15.2994C18.8684 14.9257 18.8684 14.551 18.8473 14.1773C18.8233 13.8053 18.7777 13.435 18.7107 13.0684C18.6734 12.9173 18.6484 12.7634 18.6359 12.6083C18.7031 12.7496 18.7509 12.8993 18.7781 13.0534C18.9538 13.7878 19 14.5472 18.9146 15.2975C18.9078 15.4566 18.8788 15.6139 18.8286 15.765Z" fill="#222B29"/>
</g>
<g opacity="0.3">
<path d="M10.0447 16.212C10.0276 16.0772 10.0276 15.9409 10.0447 15.8061C10.0597 15.5556 10.0915 15.2115 10.142 14.8337C10.1925 14.4559 10.2504 14.1137 10.3009 13.8687C10.3183 13.7342 10.3522 13.6023 10.4019 13.476C10.43 13.476 10.3383 14.0913 10.2392 14.8468C10.1401 15.6023 10.0709 16.2138 10.0447 16.212Z" fill="#222B29"/>
</g>
<g opacity="0.3">
<path d="M10.8227 15.333C10.8148 14.9992 10.8392 14.6654 10.8956 14.3363C10.9207 14.0023 10.9783 13.6716 11.0677 13.3488C11.0744 13.6833 11.0493 14.0177 10.9929 14.3475C10.9679 14.6807 10.9109 15.0107 10.8227 15.333Z" fill="#222B29"/>
</g>
<g opacity="0.3">
<path d="M15.1127 23.524C15.0994 23.5026 15.0893 23.4792 15.0828 23.4548C15.066 23.4081 15.0398 23.3408 15.0136 23.251C14.9371 22.9963 14.8796 22.7362 14.8415 22.473C14.7124 21.6017 14.774 20.7126 15.0219 19.8673C15.2699 19.0221 15.6984 18.2407 16.2778 17.5771C16.4511 17.3769 16.6386 17.1894 16.8388 17.0161C16.908 16.9544 16.9678 16.9114 17.0071 16.8815C17.0464 16.8515 17.067 16.8366 17.0707 16.8403C17.0056 16.9123 16.9363 16.9804 16.8631 17.0442C16.674 17.227 16.4948 17.4199 16.3264 17.622C15.769 18.2881 15.3552 19.0621 15.111 19.8956C14.8667 20.7291 14.7973 21.604 14.907 22.4656C14.9385 22.7268 14.9853 22.9859 15.0472 23.2416C15.0761 23.334 15.098 23.4284 15.1127 23.524Z" fill="#222B29"/>
</g>
<path d="M5.30783 13.7061L5.30006 13.7166C5.27125 13.7557 5.27956 13.8107 5.31863 13.8396L5.73101 14.1437C5.77008 14.1725 5.8251 14.1642 5.85392 14.1251L5.86169 14.1146C5.8905 14.0755 5.88219 14.0205 5.84312 13.9917L5.43074 13.6875C5.39168 13.6587 5.33665 13.667 5.30783 13.7061Z" fill="#E9E9E9"/>
<path d="M7.34759 10.7734L7.33879 10.783C7.30616 10.819 7.30884 10.8746 7.34478 10.9072L7.72413 11.2517C7.76007 11.2843 7.81565 11.2816 7.84829 11.2457L7.85709 11.236C7.88972 11.2 7.88704 11.1445 7.8511 11.1118L7.47175 10.7674C7.43581 10.7347 7.38022 10.7374 7.34759 10.7734Z" fill="#E9E9E9"/>
<path d="M10.4019 8.59938L10.3918 8.6077C10.3543 8.63856 10.349 8.69395 10.3798 8.73143L10.7056 9.12698C10.7364 9.16445 10.7918 9.16982 10.8293 9.13896L10.8394 9.13064C10.8769 9.09978 10.8822 9.04439 10.8514 9.00691L10.5256 8.61136C10.4948 8.57389 10.4394 8.56852 10.4019 8.59938Z" fill="#E9E9E9"/>
<path d="M5.61435 3.47044L5.60524 3.47984C5.57144 3.51469 5.5723 3.57033 5.60715 3.60413L5.97499 3.96084C6.00984 3.99464 6.06549 3.99378 6.09928 3.95894L6.10839 3.94954C6.14219 3.91469 6.14133 3.85904 6.10649 3.82525L5.73864 3.46853C5.70379 3.43474 5.64815 3.43559 5.61435 3.47044Z" fill="#E9E9E9"/>
<path d="M13.7787 7.27705L13.7673 7.2836C13.7251 7.30787 13.7106 7.36178 13.7348 7.40401L13.991 7.84981C14.0153 7.89204 14.0692 7.9066 14.1114 7.88233L14.1228 7.87578C14.1651 7.85151 14.1796 7.7976 14.1553 7.75537L13.8991 7.30957C13.8749 7.26734 13.821 7.25278 13.7787 7.27705Z" fill="#E9E9E9"/>
<path d="M12.0196 4.31628C12.0196 4.34654 12.0076 4.37555 11.9862 4.39695C11.9648 4.41834 11.9358 4.43036 11.9055 4.43036C11.8829 4.43036 11.8609 4.42367 11.8421 4.41114C11.8234 4.3986 11.8087 4.38079 11.8001 4.35994C11.7915 4.3391 11.7892 4.31616 11.7936 4.29403C11.798 4.2719 11.8089 4.25158 11.8248 4.23562C11.8408 4.21967 11.8611 4.2088 11.8832 4.2044C11.9054 4.2 11.9283 4.20226 11.9492 4.21089C11.97 4.21953 11.9878 4.23415 12.0003 4.25291C12.0129 4.27167 12.0196 4.29372 12.0196 4.31628Z" fill="#E9E9E9"/>
<path d="M12.2459 4.60989C12.2459 4.64015 12.2338 4.66916 12.2124 4.69056C12.1911 4.71195 12.162 4.72397 12.1318 4.72397C12.1015 4.72397 12.0725 4.71195 12.0511 4.69056C12.0297 4.66916 12.0177 4.64015 12.0177 4.60989C12.0177 4.57964 12.0297 4.55062 12.0511 4.52923C12.0725 4.50784 12.1015 4.49582 12.1318 4.49582C12.162 4.49582 12.1911 4.50784 12.2124 4.52923C12.2338 4.55062 12.2459 4.57964 12.2459 4.60989Z" fill="#E9E9E9"/>
<path d="M5.5266 3.26157C5.52945 3.28404 5.52553 3.30686 5.51536 3.3271C5.50519 3.34734 5.48922 3.3641 5.46949 3.37523C5.44975 3.38637 5.42715 3.39137 5.40456 3.38961C5.38198 3.38785 5.36043 3.3794 5.34266 3.36535C5.32489 3.35129 5.31171 3.33226 5.30479 3.31069C5.29788 3.28911 5.29755 3.26597 5.30384 3.2442C5.31013 3.22244 5.32276 3.20304 5.34012 3.18848C5.35748 3.17392 5.37878 3.16486 5.40131 3.16245C5.43101 3.15928 5.46078 3.16788 5.4842 3.18641C5.50763 3.20495 5.52286 3.23193 5.5266 3.26157Z" fill="#E9E9E9"/>
<path d="M2.74952 7.23737C2.74903 7.26747 2.73686 7.29621 2.71557 7.3175C2.69428 7.33879 2.66554 7.35096 2.63544 7.35144C2.60519 7.35144 2.57617 7.33942 2.55478 7.31803C2.53338 7.29664 2.52136 7.26762 2.52136 7.23737C2.52136 7.20711 2.53338 7.1781 2.55478 7.1567C2.57617 7.13531 2.60519 7.12329 2.63544 7.12329C2.66569 7.12329 2.69471 7.13531 2.7161 7.1567C2.7375 7.1781 2.74952 7.20711 2.74952 7.23737Z" fill="#E9E9E9"/>
<path d="M17.2072 13.7528C17.181 13.7752 17.1528 13.7952 17.1231 13.8126L16.8706 13.9716L15.9355 14.5476C15.1557 15.0375 14.0879 15.7332 12.9434 16.5467C11.7989 17.3602 10.7909 18.1438 10.0728 18.7197L9.22379 19.4079L8.99189 19.5949C8.96531 19.6177 8.93648 19.6378 8.90587 19.6548C8.92718 19.6271 8.95166 19.602 8.9788 19.58L9.19947 19.3799C9.38648 19.2078 9.67448 18.9647 10.0279 18.6693C10.7367 18.0783 11.7391 17.2873 12.8873 16.47C14.0355 15.6528 15.1108 14.9739 15.9019 14.4915C16.2965 14.2521 16.62 14.0651 16.8463 13.9304L17.1062 13.7883C17.1379 13.7714 17.172 13.7595 17.2072 13.7528Z" fill="#2B2D42"/>
<path d="M26.3795 11.5869C26.359 11.5869 26.3608 11.2129 26.258 10.5958C26.1977 10.2404 26.1121 9.88979 26.0018 9.54665C25.8633 9.12559 25.6907 8.71655 25.4856 8.32361C25.2757 7.93571 25.0356 7.56491 24.7675 7.21465C24.5443 6.93092 24.3019 6.66287 24.0419 6.41238C23.595 5.98786 23.2752 5.7728 23.2939 5.75784C23.374 5.79797 23.4499 5.84622 23.5202 5.90184C23.608 5.95985 23.6929 6.02227 23.7745 6.08885C23.8699 6.16739 23.9821 6.25155 24.0943 6.36001C24.3644 6.6053 24.6145 6.87169 24.8423 7.15667C25.1194 7.50865 25.3653 7.88409 25.5773 8.27873C25.7838 8.67529 25.9558 9.08885 26.0915 9.51486C26.2001 9.86323 26.2807 10.2197 26.3328 10.5808C26.359 10.7342 26.3664 10.8744 26.3777 10.9978C26.3883 11.1028 26.3933 11.2083 26.3926 11.3139C26.3978 11.4051 26.3934 11.4966 26.3795 11.5869Z" fill="#C1121F"/>
<path d="M29.1061 12.8754C29.1012 12.8369 29.1012 12.798 29.1061 12.7595C29.1061 12.6735 29.1192 12.5725 29.1286 12.4266C29.1286 12.3537 29.1398 12.2751 29.1454 12.1872C29.151 12.0993 29.1454 12.0002 29.1454 11.903C29.1454 11.6973 29.1547 11.4635 29.1267 11.2073C29.1173 11.0783 29.108 10.9436 29.0968 10.8052C29.0856 10.6668 29.0575 10.521 29.0388 10.3695C29.0051 10.0684 28.9266 9.75425 28.8518 9.42137C28.6711 8.70658 28.4206 8.01129 28.1038 7.34556C27.7714 6.68492 27.3749 6.05855 26.92 5.47547C26.6993 5.21553 26.4974 4.96307 26.2804 4.75175C26.172 4.64515 26.0766 4.53482 25.9719 4.43944L25.6689 4.17202C25.4971 4.01629 25.3173 3.8696 25.1303 3.73254C25.048 3.67083 24.9751 3.61099 24.9022 3.5605L24.7021 3.42772L24.4272 3.24071C24.3939 3.21992 24.3626 3.19613 24.3337 3.16965C24.3703 3.18274 24.405 3.201 24.4365 3.22388L24.7226 3.39406L24.9283 3.51935C25.0031 3.56798 25.0779 3.62782 25.1621 3.68766C25.3541 3.82037 25.5383 3.96398 25.7138 4.11778L26.0149 4.39643C26.1215 4.48993 26.2206 4.60027 26.329 4.70686C26.559 4.93661 26.7769 5.17818 26.9817 5.43059C27.4454 6.01454 27.8483 6.64429 28.1842 7.31003C28.5046 7.98204 28.7552 8.68513 28.9322 9.40828C29.0074 9.72427 29.0667 10.0438 29.1099 10.3658C29.1267 10.5172 29.1529 10.6631 29.1622 10.8052C29.1716 10.9474 29.1791 11.082 29.1865 11.211C29.1986 11.444 29.1986 11.6775 29.1865 11.9105C29.1865 12.0133 29.1865 12.1106 29.1772 12.1985C29.1678 12.2864 29.1585 12.3649 29.151 12.4378C29.1342 12.5743 29.1211 12.6828 29.1117 12.7688C29.1147 12.8045 29.1128 12.8403 29.1061 12.8754Z" fill="#C1121F"/>
<path d="M3.00524 22.3661C3.02394 22.3661 3.16607 22.7159 3.48398 23.2432C3.67216 23.5514 3.88215 23.8458 4.11234 24.124C4.67524 24.8061 5.35463 25.3829 6.11894 25.8277C6.4302 26.0105 6.75462 26.1699 7.08952 26.3046C7.65055 26.5346 8.03766 26.615 8.02457 26.6356C7.9347 26.6269 7.84581 26.61 7.75902 26.5851C7.65597 26.5633 7.5542 26.5358 7.45419 26.5028C7.33637 26.4654 7.19986 26.428 7.05586 26.3682C6.71431 26.2408 6.3835 26.0863 6.06658 25.9062C5.67955 25.6816 5.31231 25.4245 4.96884 25.1376C4.62993 24.8462 4.31707 24.5259 4.03379 24.1801C3.80441 23.8966 3.59805 23.5952 3.41666 23.2788C3.33438 23.146 3.2764 23.0188 3.2203 22.9047C3.17144 22.8112 3.12774 22.7151 3.08939 22.6167C3.05411 22.5358 3.02595 22.452 3.00524 22.3661Z" fill="#C1121F"/>
<path d="M0 22.1754C0.0162603 22.2106 0.030009 22.2468 0.0411423 22.2839C0.0691937 22.3662 0.102855 22.4709 0.145867 22.5999C0.166438 22.671 0.19075 22.7477 0.216931 22.8299C0.243113 22.9122 0.284254 23.0001 0.321656 23.0955C0.4002 23.2825 0.475002 23.5051 0.594688 23.7351L0.781698 24.0979C0.843411 24.225 0.921956 24.3485 0.99676 24.4719C1.13889 24.7393 1.32777 25.003 1.51665 25.2854C2.37864 26.4909 3.49124 27.4957 4.77809 28.2308C5.05795 28.3904 5.34569 28.5358 5.6402 28.6665C5.78046 28.7282 5.91136 28.7937 6.04227 28.8423L6.41629 28.9807C6.63374 29.0616 6.85535 29.1309 7.08017 29.1883C7.17929 29.2163 7.26718 29.2444 7.35508 29.2649L7.59071 29.3136L7.91423 29.3846C7.95295 29.3899 7.99073 29.4006 8.02644 29.4164C7.98814 29.4164 7.94993 29.4127 7.91236 29.4052L7.58323 29.351L7.34386 29.3098C7.25783 29.293 7.15685 29.2668 7.06521 29.2406C6.83821 29.1905 6.6141 29.128 6.39385 29.0536L6.00861 28.9208C5.87583 28.8722 5.74306 28.8068 5.6028 28.7488C5.30443 28.62 5.01292 28.4758 4.72946 28.3168C3.42051 27.5844 2.29257 26.5677 1.42875 25.3415C1.24174 25.0554 1.05473 24.7805 0.910734 24.5168C0.837801 24.3821 0.759259 24.2568 0.699416 24.1297L0.527365 23.7556C0.427639 23.5446 0.340223 23.3279 0.265553 23.1067C0.230021 23.0095 0.194489 22.9197 0.168307 22.8374C0.142126 22.7551 0.123427 22.6747 0.102856 22.6037C0.0673239 22.4728 0.0392713 22.3662 0.0168302 22.282C0.00666779 22.2473 0.00101169 22.2115 0 22.1754Z" fill="#C1121F"/>
</svg>
