<svg width="51" height="53" viewBox="0 0 51 53" fill="none" xmlns="http://www.w3.org/2000/svg">
<path d="M41.3922 50.0218C42.0113 49.9736 42.627 49.8892 43.2362 49.7689C44.9795 49.3605 46.548 48.409 47.7158 47.0518C48.5604 46.083 49.1643 44.9284 49.4782 43.682C49.7609 42.1764 49.8486 40.6407 49.7393 39.1127C49.7393 35.8 49.7393 32.0222 49.7393 27.8609C49.7393 23.6996 49.7393 19.1222 49.7393 14.2184V10.4733C49.811 9.20458 49.7177 7.93196 49.4619 6.68729C49.1279 5.41288 48.4947 4.23653 47.6148 3.25594C46.735 2.27535 45.6339 1.51881 44.403 1.04915C43.7722 0.799339 43.1109 0.634703 42.4366 0.559587C41.7447 0.500519 41.0502 0.478728 40.356 0.49431H8.60778C7.06157 0.505019 5.5493 0.948806 4.2425 1.77533C3.59106 2.17589 3.00263 2.67084 2.49639 3.24403C1.98185 3.80034 1.55287 4.43006 1.22353 5.11253C0.887452 5.78889 0.645849 6.50819 0.505497 7.25029C0.386527 7.992 0.337361 8.74323 0.358634 9.49412V14.0389C0.358634 20.0361 0.358634 25.8292 0.358634 31.345C0.358634 34.1028 0.358634 36.7873 0.358634 39.3983C0.300842 40.6735 0.355446 41.9513 0.521819 43.2169C0.774634 44.4135 1.28408 45.5409 2.01499 46.5215C2.71211 47.4492 3.59715 48.2195 4.61229 48.7819C5.62742 49.3443 6.74979 49.6862 7.90607 49.7852C10.1499 49.8668 12.3529 49.7852 14.4336 49.8423L34.1875 49.9076L39.5564 49.9484L34.1875 49.9892L14.4336 50.0626C12.3448 50.0626 10.1744 50.1034 7.90607 50.0626C6.70022 49.9607 5.52974 49.6039 4.47201 49.016C3.41428 48.4281 2.49338 47.6223 1.77021 46.652C0.999234 45.6315 0.464188 44.4527 0.203603 43.2006C0.0213728 41.9145 -0.0387317 40.6141 0.0240955 39.3167C0.0240955 36.7057 0.0240955 34.0213 0.0240955 31.2634C0.0240955 25.7476 0.0240955 19.9545 0.0240955 13.9573V9.41253C-0.00352976 8.63444 0.0456588 7.85553 0.170959 7.0871C0.319749 6.30896 0.572219 5.55429 0.921621 4.84327C1.27285 4.12806 1.72336 3.46605 2.25977 2.87685C2.79393 2.27673 3.41232 1.75728 4.09564 1.33473C5.47813 0.469954 7.07501 0.00926241 8.70569 0.00474768H40.3968C41.1075 -0.0112688 41.8185 0.0132462 42.5264 0.0781792C43.2306 0.162413 43.9215 0.335127 44.5825 0.592225C45.8708 1.0853 47.0222 1.87962 47.9407 2.90877C48.8591 3.93791 49.5178 5.17198 49.8617 6.50779C50.1265 7.78154 50.2198 9.085 50.1391 10.3835V14.1287C50.1391 19.0243 50.1391 23.5936 50.1391 27.7712C50.1391 31.9488 50.1391 35.7103 50.1391 39.023C50.2314 40.5693 50.1272 42.1211 49.829 43.6412C49.5 44.9139 48.8704 46.0891 47.9932 47.0681C46.7979 48.4402 45.1881 49.3854 43.4076 49.7607C42.9517 49.8618 42.4873 49.9192 42.0205 49.9321C41.5473 50.03 41.3922 50.0218 41.3922 50.0218Z" fill="#757575"/>
<path d="M14.3357 35.0657H8.06108V39.8716H14.3357V35.0657Z" fill="#757575"/>
<path d="M22.2748 23.9852H16.0002V39.8715H22.2748V23.9852Z" fill="#757575"/>
<path d="M31.0053 30.8228H24.7307V39.8634H31.0053V30.8228Z" fill="#757575"/>
<path d="M39.336 19.3752H33.0615V39.8634H39.336V19.3752Z" fill="#757575"/>
<path d="M10.77 30.1129C10.1519 30.1129 9.54773 29.9296 9.03382 29.5863C8.51991 29.2429 8.11937 28.7548 7.88284 28.1838C7.64632 27.6128 7.58442 26.9844 7.70501 26.3782C7.82559 25.772 8.12322 25.2152 8.56026 24.7781C8.99731 24.3411 9.55414 24.0435 10.1603 23.9229C10.7665 23.8023 11.3949 23.8642 11.9659 24.1007C12.5369 24.3372 13.025 24.7378 13.3684 25.2517C13.7118 25.7656 13.8951 26.3698 13.8951 26.9879C13.8951 27.8167 13.5658 28.6116 12.9798 29.1976C12.3937 29.7837 11.5988 30.1129 10.77 30.1129ZM10.77 24.6869C10.313 24.6869 9.86619 24.8226 9.48629 25.0766C9.10638 25.3307 8.81043 25.6919 8.6359 26.1143C8.46137 26.5367 8.41612 27.0014 8.50588 27.4495C8.59564 27.8977 8.81638 28.3091 9.14013 28.6317C9.46388 28.9543 9.87609 29.1736 10.3245 29.2618C10.773 29.3499 11.2375 29.303 11.6593 29.127C12.0811 28.951 12.4412 28.6538 12.6939 28.273C12.9467 27.8922 13.0807 27.4449 13.0791 26.9879C13.077 26.3769 12.8327 25.7916 12.3999 25.3604C11.9671 24.9291 11.381 24.6869 10.77 24.6869Z" fill="#757575"/>
<path d="M19.7453 18.2328C19.1273 18.2328 18.5231 18.0495 18.0092 17.7062C17.4953 17.3628 17.0947 16.8747 16.8582 16.3037C16.6217 15.7327 16.5598 15.1043 16.6803 14.4981C16.8009 13.8919 17.0986 13.3351 17.5356 12.898C17.9727 12.461 18.5295 12.1634 19.1357 12.0428C19.7419 11.9222 20.3702 11.9841 20.9413 12.2206C21.5123 12.4571 22.0003 12.8577 22.3437 13.3716C22.6871 13.8855 22.8704 14.4897 22.8704 15.1078C22.8682 15.9359 22.5383 16.7295 21.9527 17.3151C21.3671 17.9007 20.5735 18.2307 19.7453 18.2328ZM19.7453 12.7987C19.2887 12.7987 18.8422 12.9341 18.4625 13.1878C18.0827 13.4416 17.7868 13.8022 17.612 14.2241C17.4372 14.646 17.3915 15.1103 17.4806 15.5583C17.5697 16.0062 17.7896 16.4176 18.1126 16.7406C18.4355 17.0635 18.8469 17.2834 19.2949 17.3725C19.7428 17.4616 20.2071 17.4159 20.629 17.2411C21.0509 17.0663 21.4116 16.7704 21.6653 16.3906C21.919 16.0109 22.0545 15.5645 22.0545 15.1078C22.0545 14.8045 21.9947 14.5043 21.8787 14.2241C21.7626 13.944 21.5926 13.6894 21.3781 13.475C21.1637 13.2606 20.9092 13.0905 20.629 12.9744C20.3489 12.8584 20.0486 12.7987 19.7453 12.7987Z" fill="#757575"/>
<path d="M27.9047 25.764C27.2867 25.764 26.6825 25.5807 26.1686 25.2373C25.6546 24.8939 25.2541 24.4058 25.0176 23.8348C24.7811 23.2638 24.7192 22.6354 24.8397 22.0292C24.9603 21.423 25.258 20.8662 25.695 20.4292C26.132 19.9921 26.6889 19.6945 27.2951 19.5739C27.9013 19.4533 28.5296 19.5152 29.1007 19.7517C29.6717 19.9883 30.1597 20.3888 30.5031 20.9027C30.8465 21.4166 31.0298 22.0208 31.0298 22.6389C31.0276 23.4671 30.6977 24.2607 30.1121 24.8463C29.5265 25.4319 28.7329 25.7618 27.9047 25.764ZM27.9047 20.338C27.4477 20.338 27.0009 20.4736 26.621 20.7277C26.2411 20.9818 25.9452 21.3429 25.7706 21.7653C25.5961 22.1877 25.5509 22.6524 25.6406 23.1006C25.7304 23.5487 25.9511 23.9601 26.2749 24.2827C26.5986 24.6054 27.0108 24.8246 27.4593 24.9128C27.9077 25.001 28.3723 24.9541 28.7941 24.7781C29.2159 24.602 29.5759 24.3048 29.8287 23.924C30.0814 23.5432 30.2155 23.0959 30.2139 22.6389C30.2139 22.0265 29.9706 21.4392 29.5375 21.0061C29.1045 20.5731 28.5172 20.3298 27.9047 20.3298V20.338Z" fill="#757575"/>
<path d="M36.5455 14.8467C35.9275 14.8467 35.3233 14.6634 34.8094 14.32C34.2954 13.9766 33.8949 13.4886 33.6584 12.9175C33.4218 12.3465 33.36 11.7182 33.4805 11.112C33.6011 10.5058 33.8987 9.94894 34.3358 9.51189C34.7728 9.07485 35.3297 8.77722 35.9359 8.65664C36.5421 8.53606 37.1704 8.59794 37.7414 8.83447C38.3125 9.071 38.8005 9.47154 39.1439 9.98545C39.4873 10.4994 39.6706 11.1036 39.6706 11.7216C39.6684 12.5498 39.3385 13.3434 38.7529 13.929C38.1673 14.5146 37.3737 14.8445 36.5455 14.8467ZM36.5455 9.41253C36.0888 9.41253 35.6424 9.54796 35.2627 9.80169C34.8829 10.0554 34.587 10.416 34.4122 10.838C34.2374 11.2599 34.1917 11.7242 34.2808 12.1721C34.3699 12.62 34.5898 13.0315 34.9127 13.3544C35.2357 13.6774 35.6471 13.8973 36.095 13.9864C36.543 14.0755 37.0073 14.0297 37.4292 13.855C37.8511 13.6802 38.2118 13.3842 38.4655 13.0045C38.7192 12.6248 38.8546 12.1783 38.8546 11.7216C38.8461 11.1149 38.599 10.5359 38.1669 10.1099C37.7348 9.6839 37.1523 9.44511 36.5455 9.44517V9.41253Z" fill="#757575"/>
<path d="M34.3684 13.4697L29.3296 20.6393L29.9971 21.1085L35.036 13.9389L34.3684 13.4697Z" fill="#757575"/>
<path d="M22.136 17.0181L21.5463 17.582L25.381 21.592L25.9707 21.028L22.136 17.0181Z" fill="#757575"/>
<path d="M17.6064 17.1919L11.9528 24.4753L12.5973 24.9756L18.251 17.6923L17.6064 17.1919Z" fill="#757575"/>
<path d="M37.0759 50.6093C37.0775 51.0812 36.939 51.543 36.6778 51.936C36.4166 52.3291 36.0446 52.6357 35.6089 52.8171C35.1732 52.9984 34.6935 53.0463 34.2306 52.9546C33.7676 52.8629 33.3424 52.6358 33.0087 52.3022C32.675 51.9685 32.4479 51.5432 32.3562 51.0802C32.2646 50.6173 32.3124 50.1376 32.4938 49.7019C32.6751 49.2662 32.9817 48.8942 33.3748 48.633C33.7678 48.3719 34.2296 48.2333 34.7015 48.2349C35.3313 48.2349 35.9352 48.4851 36.3805 48.9304C36.8257 49.3756 37.0759 49.9796 37.0759 50.6093Z" fill="#757575"/>
</svg>
