<svg width="50" height="50" viewBox="0 0 50 50" fill="none" xmlns="http://www.w3.org/2000/svg">
<path d="M46.0575 49.9591C46.0575 49.9591 46.2207 49.9591 46.5472 49.9018C47.0236 49.8318 47.4814 49.6678 47.8941 49.4193C48.5642 49.0139 49.0898 48.4071 49.396 47.6852C49.8041 46.8672 49.649 45.7221 49.6735 44.5115C49.6735 39.6037 49.6327 32.5774 49.6 23.8743C49.6 19.5145 49.6 14.7458 49.6 9.62539V5.7237C49.6 5.06115 49.6 4.38226 49.6 3.72789C49.5628 3.0775 49.3452 2.45043 48.9717 1.91721C48.5982 1.38399 48.0837 0.965775 47.4859 0.70961C46.8609 0.463622 46.1877 0.365641 45.5187 0.423319H41.2252H3.83217C3.04815 0.425043 2.28739 0.690362 1.67172 1.1768C1.05605 1.66324 0.621097 2.34266 0.436516 3.10623C0.329082 3.90028 0.296292 4.70267 0.338568 5.50286V7.95674C0.338568 11.2286 0.338568 14.3778 0.338568 17.5187C0.338568 23.7843 0.338568 29.8291 0.338568 35.5875C0.338568 38.4667 0.338568 41.3133 0.338568 44.0043V46.0411C0.312265 46.6814 0.44995 47.3178 0.738529 47.8897C1.02867 48.4402 1.45819 48.9046 1.984 49.2362C2.5098 49.5679 3.1134 49.7551 3.73422 49.7792H17.9454L38.5397 49.8446L44.1311 49.8855L38.5397 49.9264L17.9454 50H3.71791C3.04022 49.9687 2.38242 49.7606 1.80972 49.3962C1.23703 49.0318 0.769298 48.5237 0.452857 47.9224C0.131729 47.302 -0.0229916 46.6086 0.00389727 45.9102V43.8735C0.00389727 41.1497 0.00389727 38.3359 0.00389727 35.4566C0.00389727 29.7309 0.00389727 23.6534 0.00389727 17.3878V4.29226C-0.0125477 3.86689 0.0230933 3.44112 0.110015 3.02443C0.31678 2.16716 0.804989 1.40436 1.49628 0.858485C2.18757 0.31261 3.04185 0.0153245 3.92197 0.0143374H41.315H45.5677C46.2901 -0.0417766 47.0158 0.0672905 47.69 0.33333C48.3464 0.630073 48.9105 1.09926 49.3225 1.69115C49.7261 2.28191 49.9604 2.97217 50 3.68698C50 4.37407 50 5.02843 50 5.69916C50 7.01608 50 8.32484 50 9.60086C50 14.7213 50 19.49 50 23.8497C50 32.5529 49.951 39.5955 49.9347 44.4869C49.9347 45.0922 49.9347 45.6648 49.9347 46.2047C49.9388 46.8697 49.7654 47.5237 49.4324 48.099C49.0994 48.6742 48.619 49.1498 48.041 49.4765C47.615 49.7222 47.1422 49.8754 46.6533 49.9264C46.4565 49.9589 46.2567 49.9698 46.0575 49.9591Z" fill="#757575"/>
</svg>
