<svg width="26" height="23" viewBox="0 0 26 23" fill="none" xmlns="http://www.w3.org/2000/svg">
<path d="M10.2007 0.839844C9.52465 0.839844 8.90708 1.05926 8.41021 1.48208C7.91334 1.90441 7.5261 2.5869 7.5261 3.3782C7.5261 3.41071 7.53602 3.4405 7.53722 3.47273H1.00366C0.453155 3.47273 0.0856175 3.84368 0.0305826 4.39298V7.60694L9.85315 11.3241C10.2839 10.4985 11.1271 9.92726 12.1051 9.90897C12.1219 9.90359 12.1355 9.89785 12.1524 9.89785H13.309C13.328 9.89785 13.3458 9.90897 13.3646 9.90897C14.3414 9.93049 15.1828 10.503 15.611 11.3297L25.5226 7.40676V4.44581C25.4978 3.86756 25.1023 3.47273 24.5272 3.47273H17.9992C18.0004 3.4405 18.0104 3.41071 18.0104 3.3782C18.0104 2.5869 17.6231 1.90474 17.1262 1.48208C16.6294 1.05974 16.0119 0.839844 15.3358 0.839844H10.2007ZM10.2007 2.76377H15.3358C15.6993 2.76377 15.9983 2.90433 16.1698 3.05013C16.3413 3.19593 16.3645 3.29481 16.3645 3.3782C16.3645 3.41376 16.3499 3.44135 16.345 3.47273C16.8379 3.47297 17.1234 3.47223 17.7907 3.47273C17.6341 3.74518 17.4075 3.98345 17.1374 4.15944C16.636 4.48548 16.0118 4.64321 15.3358 4.64321H10.2007C9.52459 4.64321 8.90037 4.48602 8.39909 4.15944C8.12894 3.98354 7.90236 3.74521 7.74573 3.47273C8.57867 3.47273 8.58065 3.47284 9.19146 3.47273C9.18656 3.44135 9.17199 3.41364 9.17199 3.3782C9.17199 3.29481 9.19518 3.19593 9.36661 3.05013C9.53807 2.90433 9.83708 2.76377 10.2007 2.76377ZM25.5309 9.13329L15.9168 12.9422V13.7707C15.9168 15.2169 14.7381 16.4092 13.3062 16.4092H12.1524C10.7205 16.4092 9.54455 15.2168 9.54455 13.7707V12.9366L0 9.31678V21.8167C0 22.3117 0.444349 22.8398 1.00088 22.8398H24.53C25.0865 22.8398 25.5309 22.3114 25.5309 21.8167V9.13329ZM12.1524 11.5104V11.5132C12.0613 11.5132 11.9832 11.5415 11.9022 11.5577C11.8573 11.5684 11.8075 11.5612 11.766 11.5827C11.4227 11.7166 11.1991 12.0329 11.1654 12.4501C11.161 12.5019 11.1517 12.5531 11.1376 12.603V13.7763C11.1376 14.3769 11.5578 14.7994 12.1524 14.7994H13.3062C13.9008 14.7994 14.321 14.3769 14.321 13.7763V12.6058C14.3083 12.5585 14.2999 12.5101 14.296 12.4612C14.2661 12.0367 14.0457 11.7163 13.6982 11.5827C13.5824 11.5396 13.4501 11.5104 13.309 11.5104H12.1524Z" fill="#C1121F"/>
</svg>
