<svg width="24" height="30" viewBox="0 0 24 30" fill="none" xmlns="http://www.w3.org/2000/svg">
<path d="M11.6587 30C12.3383 30 12.9047 29.5013 13.0306 28.8409C12.0835 28.8249 11.1152 28.7388 10.2632 28.6353C10.2997 29.3949 10.9095 30 11.6587 30Z" fill="#C1121F"/>
<path d="M15.0106 30C15.7593 30 16.3692 29.3949 16.4057 28.6353C15.5536 28.7389 14.5853 28.8249 13.6382 28.8409C13.7641 29.5013 14.3305 30 15.0106 30Z" fill="#C1121F"/>
<path d="M22.9322 7.37804C23.4022 6.94624 23.694 6.66787 23.6986 6.66381C24.0805 6.29933 24.1024 5.68637 23.7475 5.29431C23.3928 4.90224 22.7959 4.87966 22.4141 5.24415C22.4141 5.24415 22.3264 5.32716 22.1655 5.47789C22.037 5.59822 21.8607 5.76194 21.6509 5.95459C21.8108 6.18293 22.0159 6.44007 22.2438 6.6937C22.4595 6.93717 22.7001 7.17512 22.9322 7.37804Z" fill="#C1121F"/>
<path d="M12.9081 10.8613L12.4635 11.5121L10.894 9.91956C8.6226 8.16476 7.94223 6.96032 5.60489 5.37598C5.60489 5.89674 3.86343 7.92763 2.97412 8.20559C9.1995 11.7812 8.97701 14.3853 8.97701 14.3853C8.97701 14.3853 10.0522 25.651 9.21845 26.6406C8.3847 27.6297 7.66208 27.9422 7.66208 27.9422C7.66208 27.9422 10.6665 28.5671 13.3344 28.5671C16.0024 28.5671 19.007 27.9422 19.007 27.9422C19.007 27.9422 18.2845 27.6297 17.4506 26.6406C16.617 25.651 17.6918 14.3853 17.6918 14.3853C17.6918 14.3853 17.4695 11.7812 23.6952 8.20559C22.8058 7.92763 21.0639 5.89674 21.0639 5.37598C18.627 7.02791 17.9923 8.26642 15.4763 10.1468L14.1309 11.5121L13.6863 10.8613L14.4456 10.1667H12.1489L12.9081 10.8613Z" fill="#C1121F"/>
<path d="M11.2169 5.07247C10.7817 5.58188 10.5157 6.2477 10.5157 6.9787C10.5157 8.57777 11.7776 9.87401 13.3345 9.87401C14.8917 9.87401 16.1534 8.57777 16.1534 6.9787C16.1534 6.24744 15.8874 5.58147 15.4519 5.07193C15.0682 4.79789 14.4064 4.50195 13.3349 4.50195C12.2624 4.50195 11.6004 4.79829 11.2169 5.07247Z" fill="#C1121F"/>
<path d="M10.7154 3.80218L10.5311 5.38638C10.5311 5.38638 11.1778 4.2248 13.3345 4.2248H13.3348C15.4915 4.2248 16.1383 5.38638 16.1383 5.38638L15.9538 3.80218L18.7269 2.74605C14.8056 1.91921 13.3348 0 13.3348 0H13.3345C13.3345 0 11.8634 1.91921 7.94208 2.74605L8.75069 3.05402C8.74989 3.1227 8.74831 3.2218 8.74555 3.34712C8.72936 4.0988 8.67063 5.78345 8.46079 7.38427C8.45987 7.39144 8.45894 7.39874 8.45802 7.40591C8.46421 7.40307 8.46987 7.40131 8.47593 7.39887C8.81663 7.25476 9.00608 7.48622 9.00608 7.48622L9.02373 3.45312L9.02504 3.15839L10.7154 3.80218Z" fill="#C1121F"/>
<path d="M3.40185 7.06844C3.49967 7.15942 3.61197 7.26338 3.73743 7.37856C3.93424 7.20633 4.137 7.00867 4.3242 6.80385C4.58975 6.52252 4.8354 6.21563 5.01813 5.95457C4.9007 5.84681 4.79498 5.74908 4.70164 5.66228C4.90479 5.45152 5.11555 5.23655 5.33528 5.01618C5.36596 4.98551 5.3969 4.95454 5.42782 4.92372C5.98195 4.37065 6.59215 3.78336 7.28108 3.14173C7.3631 3.06534 7.38798 2.95273 7.37191 2.82403C7.36284 2.75211 7.34151 2.67544 7.30925 2.59677C7.07794 2.03409 6.31502 1.38422 5.96483 1.89497C5.23312 2.96139 4.42636 4.01766 3.63475 4.98577C3.3742 4.97969 3.11248 5.0827 2.92133 5.29415C2.71318 5.52411 2.63578 5.82979 2.68343 6.11694C1.59784 7.37127 0.616907 8.38184 0 8.92126C0.0384345 9.25491 0.621908 9.87681 1.00633 10.0171C1.48685 9.38376 1.94974 8.79174 2.42908 8.20933C2.47477 8.15376 2.52071 8.09833 2.56666 8.0429C2.8368 7.71803 3.11327 7.39493 3.40185 7.06844ZM6.25565 1.92202C6.35531 1.84577 6.80805 2.21133 6.96617 2.43007C7.12428 2.64908 7.17154 2.88811 7.07176 2.96409C7.0495 2.98099 7.02134 2.98707 6.99013 2.98599C7.03029 2.71263 6.661 2.22458 6.76474 2.50145C6.85559 2.74386 6.70813 2.75549 6.60702 2.70857C6.60636 2.70763 6.60558 2.70681 6.60492 2.70587C6.44668 2.48739 6.15585 1.998 6.25565 1.92202Z" fill="#C1121F"/>
</svg>
