<svg width="32" height="26" viewBox="0 0 32 26" fill="none" xmlns="http://www.w3.org/2000/svg">
<path d="M31 23.0498C30.4 23.0498 30 22.6498 30 22.0498V9.0498C30 8.4498 30.4 8.0498 31 8.0498C31.6 8.0498 32 8.4498 32 9.0498V22.0498C32 22.6498 31.6 23.0498 31 23.0498Z" fill="#C1121F"/>
<path d="M16 18.05C15.8 18.05 15.7 18.05 15.5 17.95L0.5 9.95C0.2 9.75 0 9.45 0 9.05C0 8.65 0.2 8.35 0.5 8.15L15.5 0.15C15.8 -0.05 16.1 -0.05 16.4 0.15L31.4 8.15C31.7 8.35 31.9 8.65 31.9 9.05C31.9 9.45 31.7 9.75 31.4 9.95L16.4 17.95C16.3 18.05 16.2 18.05 16 18.05Z" fill="#C1121F"/>
<path d="M17.4 19.6504C17 19.9504 16.5 20.0504 16 20.0504C15.5 20.0504 15 19.9504 14.6 19.6504L6 15.1504V19.0504C6 22.1504 10.9 25.0504 16 25.0504C21.1 25.0504 26 22.1504 26 19.0504V15.1504L17.4 19.6504Z" fill="#C1121F"/>
</svg>
