<svg width="108" height="54" viewBox="0 0 108 54" fill="none" xmlns="http://www.w3.org/2000/svg">
<path d="M18.666 27.1227C18.1532 27.1227 17.6923 27.0518 17.2832 26.91C16.8741 26.7682 16.5223 26.5664 16.2278 26.3045C16.0641 26.4627 15.8896 26.5936 15.7041 26.6973C15.5241 26.8009 15.336 26.8855 15.1396 26.9509C14.9487 27.0109 14.755 27.0545 14.5587 27.0818C14.3678 27.1091 14.1823 27.1227 14.0023 27.1227C13.7187 27.1227 13.4514 27.1009 13.2005 27.0573C12.9496 27.0136 12.7096 26.9155 12.4805 26.7627V27.1064C12.4805 28.6064 12.0741 29.7164 11.2614 30.4364C10.4541 31.1564 9.25413 31.5164 7.66141 31.5164H6.06595C5.33504 31.5164 4.66413 31.3964 4.05322 31.1564C3.44232 30.9164 2.91595 30.5727 2.47413 30.1255C2.03232 29.6836 1.68595 29.1464 1.43504 28.5136C1.18959 27.8864 1.06686 27.18 1.06686 26.3945C1.06686 26.0345 1.08868 25.6745 1.13232 25.3145C1.18141 24.9545 1.25504 24.5864 1.35322 24.21C1.45141 23.8336 1.57686 23.4409 1.72959 23.0318C1.88777 22.6173 2.07868 22.1755 2.30232 21.7064L4.13504 22.5982C3.94413 22.9909 3.77504 23.3564 3.62777 23.6945C3.48595 24.0273 3.36595 24.3464 3.26777 24.6518C3.17504 24.9518 3.10413 25.2436 3.05504 25.5273C3.01141 25.8055 2.98959 26.0864 2.98959 26.37C2.98959 26.8064 3.06322 27.2127 3.2105 27.5891C3.36322 27.9709 3.57322 28.3009 3.8405 28.5791C4.11322 28.8627 4.4405 29.0836 4.82232 29.2418C5.18777 29.4 5.58868 29.4791 6.02504 29.4791H7.66141C8.23959 29.4791 8.70868 29.4245 9.06868 29.3155C9.43413 29.2118 9.71777 29.0591 9.91959 28.8573C10.1214 28.6555 10.2578 28.4073 10.3287 28.1127C10.405 27.8182 10.4432 27.4827 10.4432 27.1064V21.4691H12.4805V22.9418C12.4805 23.4109 12.5241 23.7873 12.6114 24.0709C12.6987 24.3545 12.8132 24.5727 12.955 24.7255C13.0969 24.8727 13.2578 24.9709 13.4378 25.02C13.6232 25.0691 13.8114 25.0936 14.0023 25.0936C14.1169 25.0936 14.245 25.0745 14.3869 25.0364C14.5341 24.9927 14.6732 24.9218 14.8041 24.8236C14.935 24.7255 15.0441 24.5945 15.1314 24.4309C15.2187 24.2618 15.2623 24.0545 15.2623 23.8091V21.4691H17.2914V23.8909C17.3023 24.3055 17.4141 24.6109 17.6269 24.8073C17.845 24.9982 18.186 25.0936 18.6496 25.0936H18.6414C18.7178 25.0882 18.8187 25.0718 18.9441 25.0445C19.075 25.0118 19.2005 24.9518 19.3205 24.8645C19.4405 24.7718 19.5441 24.6436 19.6314 24.48C19.7187 24.3109 19.7623 24.0873 19.7623 23.8091C19.7623 23.6291 19.7405 23.4 19.6969 23.1218C19.6532 22.8436 19.6014 22.56 19.5414 22.2709C19.4814 21.9764 19.4214 21.7036 19.3614 21.4527C19.3014 21.1964 19.2523 21.0055 19.2141 20.88L21.1369 20.2991C21.1478 20.3318 21.1696 20.4164 21.2023 20.5527C21.2405 20.6891 21.2814 20.8582 21.325 21.06C21.3741 21.2564 21.4232 21.4773 21.4723 21.7227C21.5269 21.9627 21.5732 22.2082 21.6114 22.4591C21.655 22.7045 21.6905 22.9473 21.7178 23.1873C21.745 23.4218 21.7587 23.6291 21.7587 23.8091C21.7587 24.3655 21.666 24.8509 21.4805 25.2655C21.3005 25.6745 21.0632 26.0182 20.7687 26.2964C20.4796 26.5691 20.1496 26.7736 19.7787 26.91C19.4132 27.0464 19.0423 27.1173 18.666 27.1227ZM27.1006 26.6236C27.0678 27.3764 26.9288 28.0527 26.6833 28.6527C26.4378 29.2582 26.0997 29.7709 25.6688 30.1909C25.2378 30.6164 24.7169 30.9436 24.106 31.1727C23.4951 31.4018 22.8051 31.5164 22.036 31.5164H21.0215V29.4791H22.036C22.5597 29.4791 23.0124 29.4245 23.3942 29.3155C23.776 29.2064 24.0897 29.0318 24.3351 28.7918C24.5806 28.5518 24.7633 28.2382 24.8833 27.8509C25.0033 27.4691 25.0633 27.0027 25.0633 26.4518V21.4691H27.1006V26.6236ZM29.8527 29.4791C30.2891 29.4791 30.6764 29.4627 31.0146 29.43C31.3582 29.4027 31.6609 29.3591 31.9227 29.2991C32.19 29.2445 32.4218 29.1709 32.6182 29.0782C32.82 28.9909 32.9946 28.8845 33.1418 28.7591C33.3709 28.5736 33.5427 28.3582 33.6573 28.1127C33.7773 27.8673 33.8482 27.5373 33.87 27.1227H32.61C32.3373 27.1227 32.0591 27.1009 31.7755 27.0573C31.4918 27.0136 31.2191 26.94 30.9573 26.8364C30.6955 26.7273 30.4473 26.5882 30.2127 26.4191C29.9836 26.25 29.7818 26.0427 29.6073 25.7973C29.4382 25.5464 29.3018 25.2518 29.1982 24.9136C29.1 24.5755 29.0509 24.1882 29.0509 23.7518C29.0509 23.3755 29.0836 23.0427 29.1491 22.7536C29.2146 22.4591 29.2964 22.2 29.3946 21.9764C29.4982 21.7527 29.6127 21.5591 29.7382 21.3955C29.8636 21.2264 29.9836 21.0791 30.0982 20.9536C30.4255 20.6264 30.7964 20.3755 31.2109 20.2009C31.6255 20.0209 32.0727 19.9309 32.5527 19.9309C33.1473 19.9309 33.6546 20.0345 34.0746 20.2418C34.5 20.4436 34.8464 20.7245 35.1136 21.0845C35.3864 21.4445 35.5855 21.8727 35.7109 22.3691C35.8364 22.86 35.8991 23.3945 35.8991 23.9727V25.0855H37.29V27.1227H35.8909C35.8691 27.87 35.7355 28.5 35.49 29.0127C35.25 29.5255 34.89 29.9727 34.41 30.3545C34.1591 30.5509 33.8864 30.72 33.5918 30.8618C33.2973 31.0091 32.9673 31.1318 32.6018 31.23C32.2364 31.3282 31.8273 31.3991 31.3746 31.4427C30.9273 31.4918 30.42 31.5164 29.8527 31.5164V29.4791ZM32.5527 21.9682C32.0891 21.9682 31.7209 22.1127 31.4482 22.4018C31.1755 22.6909 31.0391 23.1409 31.0391 23.7518C31.0391 23.9918 31.0855 24.1964 31.1782 24.3655C31.2764 24.5345 31.3991 24.6736 31.5464 24.7827C31.6991 24.8864 31.8682 24.9627 32.0536 25.0118C32.2391 25.0609 32.4246 25.0855 32.61 25.0855H33.87V23.9727C33.87 23.6618 33.8455 23.3973 33.7964 23.1791C33.7473 22.9555 33.6818 22.77 33.6 22.6227C33.5236 22.4755 33.4336 22.3582 33.33 22.2709C33.2318 22.1836 33.1336 22.1182 33.0355 22.0745C32.9427 22.0309 32.8527 22.0036 32.7655 21.9927C32.6782 21.9764 32.6073 21.9682 32.5527 21.9682ZM44.8336 18.18C45.1882 18.6491 45.5482 19.1236 45.9136 19.6036C46.0664 19.8109 46.2273 20.0264 46.3964 20.25C46.5709 20.4736 46.7455 20.7027 46.92 20.9373C47.1 21.1664 47.2746 21.3955 47.4436 21.6245C47.6127 21.8536 47.7764 22.0718 47.9346 22.2791C48.2727 22.7318 48.4936 23.2255 48.5973 23.76C48.63 23.9509 48.6464 24.1418 48.6464 24.3327C48.6464 24.6764 48.5891 25.02 48.4746 25.3636C48.3655 25.6909 48.2046 25.9909 47.9918 26.2636C47.7846 26.5364 47.5309 26.7709 47.2309 26.9673C46.9309 27.1636 46.5873 27.3164 46.2 27.4255C45.8127 27.5345 45.3873 27.5891 44.9236 27.5891C44.5309 27.5891 44.1246 27.5482 43.7046 27.4664C43.2846 27.39 42.8564 27.2427 42.42 27.0245C42.3218 26.9809 42.2264 26.9373 42.1336 26.8936C42.0518 26.8555 41.9673 26.8173 41.88 26.7791C41.7927 26.7355 41.7191 26.6973 41.6591 26.6645C41.1355 26.8227 40.5546 26.9373 39.9164 27.0082C39.2836 27.0845 38.5827 27.1227 37.8136 27.1227H36.8891V25.0855H37.8136C37.9664 25.0855 38.1 25.0882 38.2146 25.0936C38.3346 25.0936 38.4491 25.0936 38.5582 25.0936C38.6618 25.0936 38.7655 25.0909 38.8691 25.0855C38.9782 25.08 39.0982 25.0691 39.2291 25.0527C39.0873 24.8891 38.9591 24.7309 38.8446 24.5782C38.7355 24.42 38.64 24.2564 38.5582 24.0873C38.4818 23.9127 38.4218 23.73 38.3782 23.5391C38.34 23.3427 38.3209 23.1273 38.3209 22.8927C38.3209 22.4455 38.4055 22.0336 38.5746 21.6573C38.7491 21.2809 38.9864 20.9591 39.2864 20.6918C39.5918 20.4245 39.9464 20.2173 40.35 20.07C40.7591 19.9173 41.1982 19.8409 41.6673 19.8409C42.1964 19.8409 42.6655 19.9473 43.0746 20.16C43.4891 20.3673 43.8355 20.6318 44.1136 20.9536C44.3973 21.27 44.61 21.6136 44.7518 21.9845C44.8991 22.3555 44.9727 22.7018 44.9727 23.0236C44.9727 23.2855 44.9455 23.5255 44.8909 23.7436C44.8418 23.9618 44.7709 24.1691 44.6782 24.3655C44.5855 24.5564 44.4709 24.7391 44.3346 24.9136C44.1982 25.0882 44.0455 25.26 43.8764 25.4291C44.0455 25.4836 44.22 25.5355 44.4 25.5845C44.58 25.6282 44.7546 25.65 44.9236 25.65C45.0927 25.65 45.27 25.6391 45.4555 25.6173C45.6409 25.59 45.8155 25.5409 45.9791 25.47C46.1482 25.3936 46.2955 25.29 46.4209 25.1591C46.5518 25.0282 46.65 24.8564 46.7155 24.6436C46.7373 24.5673 46.7482 24.4882 46.7482 24.4064C46.7482 24.2591 46.7046 24.0709 46.6173 23.8418C46.53 23.6127 46.3691 23.3209 46.1346 22.9664C45.9055 22.6118 45.6191 22.2218 45.2755 21.7964C44.9318 21.3655 44.5555 20.8964 44.1464 20.3891L43.2955 19.3336L44.8336 18.18ZM40.2518 22.8927C40.2518 23.0945 40.2818 23.2745 40.3418 23.4327C40.4073 23.5855 40.5027 23.7273 40.6282 23.8582C40.7591 23.9891 40.9173 24.1173 41.1027 24.2427C41.2936 24.3627 41.5146 24.4909 41.7655 24.6273C41.9346 24.5455 42.0982 24.4527 42.2564 24.3491C42.4146 24.2455 42.5509 24.1309 42.6655 24.0055C42.7855 23.8745 42.8809 23.73 42.9518 23.5718C43.0227 23.4136 43.0582 23.2391 43.0582 23.0482C43.0582 22.8191 43.0091 22.6173 42.9109 22.4427C42.8127 22.2682 42.6927 22.1236 42.5509 22.0091C42.4091 21.8945 42.2564 21.81 42.0927 21.7555C41.9346 21.7009 41.7927 21.6736 41.6673 21.6736C41.4818 21.6736 41.3018 21.7064 41.1273 21.7718C40.9582 21.8373 40.8082 21.9273 40.6773 22.0418C40.5464 22.1509 40.4427 22.2791 40.3664 22.4264C40.29 22.5736 40.2518 22.7291 40.2518 22.8927ZM54.7771 27.1227C54.1771 27.1227 53.6617 27.0845 53.2307 27.0082C52.7998 26.9373 52.4371 26.8309 52.1426 26.6891C51.848 26.5418 51.6107 26.3564 51.4307 26.1327C51.2562 25.9091 51.1226 25.6473 51.0298 25.3473C50.9371 25.0473 50.8744 24.7091 50.8417 24.3327C50.8144 23.9509 50.8007 23.5309 50.8007 23.0727V15.3245H52.838V23.0727C52.838 23.5091 52.8517 23.8582 52.8789 24.12C52.9117 24.3818 52.9907 24.5864 53.1162 24.7336C53.2471 24.8755 53.4407 24.9709 53.6971 25.02C53.9589 25.0636 54.3189 25.0855 54.7771 25.0855V27.1227ZM60.5206 25.5764C60.5696 25.5764 60.646 25.5682 60.7496 25.5518C60.8587 25.53 60.9678 25.47 61.0769 25.3718C61.186 25.2736 61.2815 25.1236 61.3633 24.9218C61.4506 24.7145 61.4942 24.4255 61.4942 24.0545C61.4942 23.9127 61.4669 23.7327 61.4124 23.5145C61.3633 23.2909 61.2733 23.0755 61.1424 22.8682C61.0169 22.6555 60.8451 22.4755 60.6269 22.3282C60.4142 22.1755 60.1442 22.0991 59.8169 22.0991C59.5333 22.0991 59.3015 22.1836 59.1215 22.3527C58.9415 22.5218 58.7887 22.7318 58.6633 22.9827C58.5433 23.2336 58.4396 23.5064 58.3524 23.8009C58.2706 24.09 58.1806 24.3545 58.0824 24.5945C58.2842 24.7091 58.4969 24.8264 58.7206 24.9464C58.9496 25.0609 59.1733 25.1645 59.3915 25.2573C59.6096 25.35 59.8142 25.4264 60.0051 25.4864C60.2015 25.5464 60.3733 25.5764 60.5206 25.5764ZM59.8169 20.07C60.3896 20.07 60.8887 20.1764 61.3142 20.3891C61.7451 20.6018 62.0996 20.8882 62.3778 21.2482C62.6615 21.6027 62.8715 22.0145 63.0078 22.4836C63.1496 22.9527 63.2206 23.4436 63.2206 23.9564C63.2206 24.5236 63.1715 25.0064 63.0733 25.4045C62.9751 25.8027 62.8442 26.1327 62.6806 26.3945C62.5224 26.6564 62.3396 26.8609 62.1324 27.0082C61.9306 27.1609 61.726 27.2727 61.5187 27.3436C61.3169 27.42 61.1206 27.4664 60.9296 27.4827C60.7387 27.5045 60.5751 27.5155 60.4387 27.5155C60.166 27.5155 59.9069 27.4882 59.6615 27.4336C59.416 27.3845 59.1651 27.3109 58.9087 27.2127C58.6578 27.12 58.396 27.0055 58.1233 26.8691C57.8506 26.7273 57.5533 26.5691 57.2315 26.3945C56.986 26.6564 56.7215 26.8445 56.4378 26.9591C56.1596 27.0682 55.8324 27.1227 55.456 27.1227H54.4496L54.4333 25.0855H55.456C55.576 25.0855 55.6796 25.05 55.7669 24.9791C55.8596 24.9082 55.9415 24.81 56.0124 24.6845C56.0887 24.5536 56.1569 24.3982 56.2169 24.2182C56.2824 24.0327 56.3478 23.8282 56.4133 23.6045C56.5224 23.2118 56.6533 22.8082 56.806 22.3936C56.9587 21.9736 57.1606 21.5918 57.4115 21.2482C57.6678 20.9045 57.9896 20.6236 58.3769 20.4055C58.7642 20.1818 59.2442 20.07 59.8169 20.07Z" fill="#222B29"/>
<path d="M107.923 50.761C107.885 49.8734 107.834 48.8213 107.765 47.7003C107.621 45.3953 107.399 42.813 107.057 40.814C107.032 40.6556 106.997 40.499 106.952 40.3453C106.769 39.6705 106.445 39.0421 106.002 38.5014C105.559 37.9607 105.007 37.5199 104.381 37.2082C101.575 35.8098 96.7407 34.0079 93.3511 32.7952L93.6859 35.3565C96.9971 36.5559 100.972 38.0747 103.357 39.2626C103.693 39.4299 103.989 39.6662 104.226 39.956C104.463 40.2458 104.637 40.5825 104.735 40.9441L104.756 41.0148C104.773 41.0757 104.787 41.1377 104.796 41.2004C105.069 42.811 105.299 45.0471 105.475 47.84C105.532 48.785 105.584 49.8007 105.63 50.8509L105.636 51.023H62.3643L62.3701 50.8604C62.4179 49.7739 62.4676 48.7849 62.525 47.8458C62.6412 45.6142 62.8691 43.39 63.2079 41.1812C63.216 41.125 63.2282 41.0694 63.2442 41.0148L63.2653 40.9441C63.363 40.5824 63.5362 40.2455 63.7736 39.9557C64.0111 39.6659 64.3072 39.4297 64.6426 39.2626C67.0279 38.0728 71.0029 36.554 74.3141 35.3565L74.6489 32.7952C71.2592 34.0079 66.4254 35.8098 63.6191 37.2082C62.9932 37.5196 62.4404 37.9603 61.9973 38.501C61.5541 39.0418 61.2307 39.6704 61.0482 40.3453C61.0031 40.4992 60.9673 40.6557 60.9411 40.814C60.6006 42.813 60.3787 45.3953 60.2353 47.7003C60.1664 48.8213 60.1148 49.8734 60.0765 50.761C60.0172 52.2913 60 53.3185 60 53.3185H108C108 53.3185 107.983 52.2913 107.923 50.761Z" fill="#2B2D42"/>
<path d="M94.137 14.0994H94.1405C94.137 13.4384 94.1264 12.5664 94.1194 11.6557C94.0983 9.32462 94.0772 6.73676 94.0772 6.73676L91.63 7.16923L89.109 7.61225L84.4678 8.43152C84.4186 8.43856 84.3377 8.45264 84.2076 8.46668L84.1056 8.47724L84.0564 8.47372L84.0107 8.47724L83.9088 8.46668C83.7786 8.45264 83.6943 8.43856 83.6485 8.43152L79.0038 7.61225L76.4828 7.16923L74.0356 6.73676V13.354C74.0356 13.354 74.018 13.7162 74.004 14.1381H74.0075C73.9961 14.62 74.0232 15.1021 74.0883 15.5797L75.4315 22.5064C75.822 24.5113 76.8977 26.3181 78.4741 27.6171C80.0505 28.916 82.0296 29.6264 84.0722 29.6264C86.1149 29.6264 88.094 28.916 89.6704 27.6171C91.2468 26.3181 92.3224 24.5113 92.713 22.5064L94.0561 15.5797C94.1213 15.0891 94.1483 14.5942 94.137 14.0994ZM92.277 15.2914L90.9409 22.1618C90.6311 23.7566 89.7762 25.194 88.5226 26.2274C87.2691 27.2609 85.6951 27.8261 84.0705 27.8261C82.4459 27.8261 80.8718 27.2609 79.6183 26.2274C78.3648 25.194 77.5099 23.7566 77.2001 22.1618L75.8675 15.2914C75.8267 14.9684 75.8067 14.643 75.8077 14.3174H75.8288C79.2746 14.3174 82.3054 15.8118 84.0459 18.0691L84.0564 18.0761L84.067 18.0691C85.8074 15.8118 88.8418 14.3174 92.2875 14.3174H92.3368C92.336 14.643 92.3161 14.9682 92.277 15.2914Z" fill="#2B2D42"/>
<path d="M67.5907 4.17709L72.6327 5.06663L74.5736 5.40772L77.8928 5.99142L81.2401 6.57855L83.9369 7.05326C83.9761 7.06215 84.0162 7.06685 84.0565 7.06729H84.06C84.099 7.06663 84.1379 7.06193 84.176 7.05326L86.8728 6.58207L90.2236 5.9914L93.5358 5.4077L95.4802 5.06661L100.104 4.2509L100.107 11.1494L99.0665 17.081L99.1404 17.1056C99.3714 17.1896 99.6089 17.2543 99.8506 17.299C100.089 17.341 100.33 17.3622 100.571 17.3623C100.924 17.362 101.275 17.3159 101.616 17.2252C101.746 17.1935 101.876 17.1514 102.006 17.1056L102.08 17.081L101.039 11.167V3.67428C101.052 3.62856 101.058 3.58114 101.057 3.53365C101.058 3.46179 101.046 3.39035 101.021 3.32267V3.31918C100.985 3.20944 100.92 3.11148 100.832 3.03544C100.745 2.9594 100.639 2.90804 100.526 2.88668L84.1654 0.0105406C84.1307 0.00337896 84.0954 -0.000151889 84.06 5.00692e-06H84.0564C84.0198 -0.000148834 83.9833 0.00338079 83.9474 0.0105406L67.5872 2.88668C67.4735 2.90804 67.3676 2.9594 67.2804 3.03544C67.1933 3.11148 67.128 3.20944 67.0914 3.31917V3.32267C67.0684 3.39055 67.0577 3.46199 67.0598 3.53364C67.058 3.68633 67.1103 3.83471 67.2075 3.95249C67.3047 4.07027 67.4404 4.14984 67.5907 4.17709Z" fill="#C1121F"/>
<path d="M91.3178 32.7339H88.9841C88.52 33.5704 87.8403 34.2672 87.0157 34.752C86.8466 34.8535 86.6723 34.9461 86.4935 35.0294C85.711 35.3874 84.8605 35.5726 84 35.5726C83.1395 35.5726 82.2891 35.3874 81.5066 35.0294C81.3278 34.9461 81.1535 34.8535 80.9844 34.752C80.1593 34.2678 79.4795 33.5708 79.016 32.7339H76.6823L76.382 35.0294L74.7694 47.3713L83.9991 43.5456L93.2307 47.3713L91.6181 35.0294L91.3178 32.7339Z" fill="#C1121F"/>
</svg>
